<?xml version="1.0" standalone="no"?>
<!DOCTYPE svg PUBLIC "-//W3C//DTD SVG 1.1//EN" "http://www.w3.org/Graphics/SVG/1.1/DTD/svg11.dtd" >
<svg xmlns="http://www.w3.org/2000/svg">
<metadata>Generated by IcoMoon</metadata>
<defs>
<font id="cuw-icons" horiz-adv-x="1024">
<font-face units-per-em="1024" ascent="960" descent="-64" />
<missing-glyph horiz-adv-x="1024" />
<glyph unicode="&#x20;" horiz-adv-x="512" d="" />
<glyph unicode="&#xe900;" glyph-name="books" d="M640-10.667h-256c-231.68 0-330.667 98.987-330.667 330.667v256c0 231.68 98.987 330.667 330.667 330.667h256c231.68 0 330.667-98.987 330.667-330.667v-256c0-231.68-98.987-330.667-330.667-330.667zM384 842.667c-196.693 0-266.667-69.973-266.667-266.667v-256c0-196.693 69.973-266.667 266.667-266.667h256c196.693 0 266.667 69.973 266.667 266.667v256c0 196.693-69.973 266.667-266.667 266.667h-256zM512.004 151.462c-10.24 0-20.48 2.56-29.013 7.253-49.493 26.88-136.959 55.893-191.999 63.147l-8.107 1.28c-41.813 5.12-75.094 42.667-75.094 85.76v328.534c0 24.32 10.241 47.787 27.734 64 17.92 16.213 40.959 24.32 65.706 22.186 62.293-5.12 152.746-34.987 206.079-68.267l4.267-2.56 1.711 1.28c53.76 33.707 144.209 64 206.929 69.547 0.853 0 3.413 0 4.267 0 22.187 2.133 46.080-6.4 63.573-22.186 17.92-16.213 27.733-38.826 27.733-63.573v-328.108c0-42.667-33.28-80.213-75.52-85.76l-8.96-1.28c-54.613-7.253-142.507-36.267-191.147-63.147-8.107-5.973-17.92-8.107-28.16-8.107zM293.979 659.197c-5.973 0-11.095-2.133-14.935-5.547-4.693-4.267-6.825-10.241-6.825-16.641v-328.533c0-10.24 9.387-20.907 19.2-22.187l8.107-1.28c62.293-8.533 157.865-39.68 213.332-69.973 51.627 29.867 147.627 61.867 210.347 69.973l9.387 1.28c9.813 1.28 19.2 11.947 19.2 22.187v328.108c0 6.827-2.56 12.372-6.827 16.639-4.693 4.267-10.667 5.973-17.493 5.547-0.853 0-3.413 0-4.267 0-49.493-4.267-130.987-31.573-175.36-59.733l-4.267-2.56c-18.773-11.52-45.227-11.52-63.147-0.427l-6.4 3.84c-44.8 28.16-126.292 55.040-177.919 59.307-0.853 0-1.279 0-2.132 0zM512 174.502c-17.493 0-32 14.507-32 32v407.893c0 17.493 14.507 32 32 32s32-14.507 32-32v-407.893c0-17.92-14.507-32-32-32z" />
<glyph unicode="&#xe901;" glyph-name="chevron-left" d="M624.64 743.765c-6.613-2.261-25.771-20.693-140.501-135.125-75.819-75.648-134.784-135.765-137.387-140.16-3.883-6.485-4.565-9.643-4.565-20.48s0.683-13.995 4.565-20.48c5.803-9.685 266.368-269.952 274.261-273.877 19.413-9.771 44.629-1.92 55.979 17.365 4.139 7.040 4.821 9.984 4.779 20.992 0 9.045-0.939 14.549-3.157 18.773-1.707 3.285-55.083 58.027-118.571 121.6l-115.413 115.627 115.413 115.627c63.488 63.573 116.864 118.315 118.571 121.6 2.219 4.224 3.157 9.728 3.157 18.773 0.043 10.88-0.64 13.995-4.565 20.651-7.621 13.107-21.599 21.779-37.602 21.779-5.372 0-10.515-0.977-15.262-2.763l0.299 0.099z" />
<glyph unicode="&#xe902;" glyph-name="chevron-right" d="M369.92 744.064c-9.472-3.456-17.92-10.581-23.125-19.413-3.925-6.656-4.608-9.771-4.565-20.651 0-9.045 0.939-14.549 3.157-18.773 1.707-3.285 55.083-58.027 118.571-121.6l115.413-115.627-115.413-115.627c-63.488-63.573-116.864-118.315-118.571-121.6-2.219-4.224-3.157-9.728-3.157-18.773-0.043-11.008 0.64-13.952 4.779-20.992 5.547-9.472 15.744-17.451 25.728-20.181 8.619-2.304 22.613-1.024 30.251 2.816 7.893 3.925 268.459 264.192 274.261 273.877 3.883 6.485 4.565 9.643 4.565 20.48s-0.683 13.995-4.565 20.48c-2.603 4.395-61.525 64.512-137.387 140.16-121.003 120.661-133.589 132.693-141.227 135.253-4.345 1.606-9.364 2.535-14.6 2.535-5.055 0-9.908-0.866-14.418-2.458l0.303 0.093z" />
<glyph unicode="&#xe903;" d="M619.337 414.054h-11.008v8.418c0 53.12-43.23 96.35-96.35 96.35s-96.321-43.23-96.321-96.35v-8.418h-11.040c-33.408 0-60.576-27.2-60.576-60.608v-168.64c0.025-21.116 8.425-41.361 23.356-56.29 14.932-14.933 35.176-23.33 56.292-23.356h176.545c21.116 0.026 41.361 8.422 56.29 23.356 14.933 14.929 23.33 35.174 23.356 56.29v168.64c0.004 7.957-1.557 15.834-4.599 23.185-3.038 7.351-7.497 14.029-13.12 19.657-5.619 5.632-12.297 10.095-19.644 13.146-7.347 3.046-15.223 4.617-23.181 4.621zM473.289 422.473c0 21.342 17.378 38.72 38.72 38.72 21.346 0 38.72-17.378 38.72-38.72v-8.418h-77.44v8.418zM622.315 184.841c0-12.16-9.89-22.016-22.016-22.016h-176.545c-5.839 0.009-11.438 2.33-15.57 6.455s-6.461 9.719-6.478 15.561v168.64c0 1.664 1.344 2.974 2.976 2.974h214.689c1.664 0 2.974-1.31 2.974-2.974l-0.030-168.64z" />
<glyph unicode="&#xe904;" d="M832.009 924.802h-640c-41.573-0.042-81.431-16.576-110.828-45.972s-45.93-69.255-45.972-110.828v-639.998c0-86.464 70.336-156.8 156.8-156.8h640c86.464 0 156.8 70.336 156.8 156.8v639.998c0 86.464-70.336 156.8-156.8 156.8zM192.009 867.202h640c54.686 0 99.2-44.512 99.2-99.2v-115.2h-838.4v115.2c0 54.688 44.512 99.2 99.2 99.2zM832.009 28.804h-640c-26.299 0.030-51.511 10.496-70.108 29.090-18.596 18.598-29.059 43.81-29.092 70.11v467.198h838.4v-467.198c0-54.69-44.514-99.2-99.2-99.2z" />
<glyph unicode="&#xe905;" d="M174.372 731.934c7.447 0 14.589 2.959 19.855 8.224s8.224 12.408 8.224 19.855c0 7.447-2.959 14.589-8.224 19.856s-12.408 8.224-19.855 8.224c-7.447 0-14.59-2.959-19.856-8.224s-8.224-12.408-8.224-19.856c0-7.447 2.959-14.589 8.224-19.855s12.408-8.224 19.856-8.224zM269.476 731.934c7.447 0 14.589 2.959 19.855 8.224s8.224 12.408 8.224 19.855c0 7.447-2.959 14.589-8.224 19.856s-12.408 8.224-19.855 8.224c-7.447 0-14.59-2.959-19.856-8.224s-8.224-12.408-8.224-19.856c0-7.447 2.959-14.589 8.224-19.855s12.408-8.224 19.856-8.224zM364.612 731.934c7.447 0 14.589 2.959 19.855 8.224s8.224 12.408 8.224 19.855c0 7.447-2.959 14.589-8.224 19.856s-12.408 8.224-19.855 8.224c-7.447 0-14.59-2.959-19.856-8.224s-8.224-12.408-8.224-19.856c0-7.447 2.959-14.589 8.224-19.855s12.408-8.224 19.856-8.224z" />
<glyph unicode="&#xe906;" d="M443.409 204.864c7.637 0 14.963 3.038 20.365 8.435 5.402 5.402 8.435 12.727 8.435 20.365v20.096c68.898 18.402 78.754 62.946 79.33 84.288 1.118 43.554-33.122 73.634-101.858 89.314-26.335 6.016-57.567 16.414-56.511 32 1.984 28.736 52.479 34.782 82.367 35.84 1.387-0.017 2.718-0.542 3.746-1.472 0.542-0.516 0.973-1.135 1.263-1.822 0.294-0.691 0.439-1.429 0.431-2.18 0-7.637 3.034-14.963 8.435-20.365 5.402-5.397 12.727-8.435 20.365-8.435 7.642 0 14.963 3.038 20.365 8.435 5.402 5.402 8.435 12.727 8.435 20.365 0 17.058-7.040 33.6-19.328 45.442-6.003 5.927-13.167 10.55-21.039 13.579-7.876 3.028-16.29 4.398-24.721 4.021-0.478 0-0.862-0.064-1.344-0.096v12.224c0 7.639-3.034 14.964-8.435 20.365s-12.727 8.435-20.365 8.435c-7.637 0-14.963-3.034-20.364-8.435s-8.435-12.726-8.435-20.365v-20.256c-63.456-16.962-77.12-56.13-78.848-81.346-3.136-45.12 30.944-76.096 101.153-92.062 36.032-8.256 57.344-20.066 57.054-31.65-0.798-30.976-63.326-35.55-82.463-36.224-1.537 0.094-3.010 0.653-4.224 1.6-0.522 0.508-0.936 1.114-1.216 1.788-0.28 0.67-0.422 1.391-0.416 2.116-0.004 7.642-3.043 14.963-8.447 20.361s-12.731 8.431-20.369 8.427c-7.638-0.004-14.962-3.042-20.36-8.448s-8.428-12.732-8.424-20.369c0-17.25 6.848-33.344 19.264-45.312 11.744-11.328 27.712-17.762 44.064-17.762l2.176 0.034 1.056 0.064v-12.13c0.017-7.65 3.063-14.98 8.473-20.39s12.74-8.457 20.39-8.474z" />
<glyph unicode="&#xe907;" d="M579.529 52.352h-403.2c-22.138 0.017-43.363 8.819-59.017 24.474s-24.455 36.877-24.471 59.017v482.367h126.464c26.149 0.025 51.219 10.424 69.709 28.914s28.889 43.561 28.914 69.71v126.848h392.8c22.182-0.068 43.43-8.934 59.085-24.652 15.65-15.718 24.427-37.005 24.401-59.188v-304.319c0-7.637 3.038-14.963 8.435-20.365 5.402-5.402 12.727-8.435 20.365-8.435 7.642 0 14.967 3.034 20.365 8.435 5.402 5.402 8.435 12.727 8.435 20.365v304.319c0 37.457-14.857 73.384-41.31 99.9-26.458 26.516-62.353 41.455-99.81 41.54h-450.526c-18.064 0.017-35.952-3.548-52.628-10.491s-31.81-17.125-44.524-29.957l-87.68-87.68c-25.647-25.837-40.066-60.748-40.128-97.152v-540.159c0.042-37.414 14.924-73.284 41.38-99.742 26.456-26.453 62.326-41.335 99.74-41.378h403.2c7.642 0 14.972 3.034 20.378 8.439 5.402 5.402 8.439 12.732 8.439 20.378 0 7.642-3.038 14.972-8.439 20.373-5.406 5.406-12.736 8.439-20.378 8.439zM116.073 732.449l87.68 87.68c7.379 7.461 16.165 13.384 25.849 17.426s20.073 6.125 30.567 6.126h0.128v-126.88c0-22.624-18.368-41.024-40.992-41.024h-126.496v0.224c0 21.088 8.48 41.664 23.264 56.448z" />
<glyph unicode="&#xe908;" d="M799.531 373.282c-104.384 0-189.282-84.898-189.282-189.282s84.898-189.278 189.282-189.278c104.384 0 189.278 84.894 189.278 189.278s-84.894 189.282-189.278 189.282zM799.531 52.352c-72.61 0-131.648 59.072-131.648 131.648s59.072 131.648 131.648 131.648c72.576 0 131.678-59.038 131.678-131.648 0-72.606-59.072-131.648-131.678-131.648z" />
<glyph unicode="&#xe909;" d="M767.454 176.738l3.298 3.294v-61.662c0-7.642 3.034-14.967 8.435-20.365 5.402-5.402 12.723-8.435 20.365-8.435 7.637 0 14.963 3.034 20.365 8.435 5.402 5.397 8.435 12.723 8.435 20.365v61.662l3.294-3.294c2.662-2.688 5.833-4.826 9.323-6.281 3.494-1.459 7.241-2.21 11.025-2.214 3.78 0 7.531 0.742 11.025 2.197 3.494 1.451 6.665 3.58 9.331 6.263 2.679 2.667 4.809 5.837 6.259 9.331 1.455 3.49 2.206 7.232 2.206 11.017 0.004 3.78-0.738 7.522-2.185 11.017-1.451 3.494-3.571 6.669-6.246 9.34l-52.48 52.514c-2.675 2.679-5.854 4.804-9.353 6.255s-7.245 2.197-11.034 2.197c-3.785 0-7.535-0.747-11.034-2.197s-6.673-3.575-9.348-6.255l-52.48-52.514c-5.393-5.41-8.418-12.74-8.405-20.382 0.013-7.637 3.059-14.959 8.469-20.352 5.41-5.397 12.74-8.418 20.382-8.405 7.637 0.013 14.959 3.059 20.352 8.469z" />
<glyph unicode="&#xe90a;" d="M476.331 591.46v-26.112c-72.641-18.304-88.065-61.984-89.953-89.986-5.088-74.112 83.263-94.174 112.255-100.8 44.386-10.078 68.608-24.35 68.194-40.094-0.994-37.76-68.8-44.224-97.92-45.248-4.706 0-6.562 1.822-7.778 2.944-0.99 0.951-1.779 2.095-2.313 3.358-0.533 1.267-0.802 2.628-0.789 4.002-0.004 3.78-0.751 7.526-2.197 11.021-1.451 3.49-3.575 6.665-6.251 9.34-2.675 2.671-5.85 4.791-9.348 6.238-3.494 1.442-7.241 2.189-11.021 2.185-3.782 0-7.527-0.747-11.020-2.197s-6.667-3.571-9.34-6.251c-2.673-2.675-4.792-5.85-6.238-9.344s-2.188-7.241-2.186-11.025c0-18.56 7.36-35.87 20.704-48.768 12.833-12.382 29.537-19.102 47.329-19.102l2.496 0.030c1.886 0.064 3.52 0.354 5.376 0.448v-18.27c0-7.637 3.034-14.963 8.435-20.365s12.727-8.435 20.365-8.435c7.637 0 14.963 3.034 20.365 8.435s8.435 12.727 8.435 20.365v26.27c56.96 14.528 89.246 46.818 90.432 92.864 1.216 47.522-36.77 80.418-112.96 97.792-46.626 10.594-68.706 23.906-67.584 40.674 2.334 34.142 54.464 43.136 97.856 44.638 2.654 0 5.21-0.99 7.168-2.782 1.015-0.964 1.826-2.125 2.377-3.413s0.828-2.675 0.823-4.075c0-7.637 3.034-14.963 8.435-20.365s12.727-8.435 20.365-8.435c7.637 0 14.963 3.034 20.365 8.435s8.435 12.727 8.435 20.365c0 18.334-7.586 36.192-20.8 48.928-6.46 6.365-14.157 11.33-22.622 14.584-8.461 3.254-17.506 4.727-26.564 4.328-1.984-0.064-3.742-0.256-5.696-0.352v18.208c0 3.784-0.747 7.531-2.197 11.026s-3.575 6.671-6.255 9.345c-2.675 2.674-5.854 4.795-9.348 6.241-3.499 1.446-7.245 2.19-11.029 2.188s-7.531-0.75-11.029-2.2c-3.494-1.45-6.669-3.574-9.344-6.252s-4.796-5.855-6.242-9.352c-1.446-3.497-2.189-7.244-2.185-11.028z" />
<glyph unicode="&#xe90b;" d="M856.956 521.28c-3.657-0.96-7.091-2.637-10.103-4.928-3.008-2.291-5.538-5.15-7.445-8.422-1.903-3.268-3.145-6.878-3.657-10.628-0.508-3.75-0.273-7.561 0.695-11.221 7.040-26.59 10.56-54.686 10.56-83.52 0-188.446-153.314-341.76-341.76-341.76-188.449 0-341.729 153.314-341.729 341.76 0 186.594 145.824 336.706 331.967 341.794 7.633 0.209 14.874 3.441 20.122 8.986 5.252 5.545 8.085 12.948 7.881 20.582-0.269 7.614-3.52 14.817-9.050 20.055-5.534 5.239-12.902 8.092-20.518 7.945-217.569-5.92-388.001-181.312-388.001-399.362 0-220.224 179.168-399.36 399.359-399.36 220.194 0 399.36 179.17 399.36 399.36 0.077 33.139-4.126 66.15-12.51 98.21-0.947 3.665-2.607 7.108-4.894 10.129-2.283 3.021-5.141 5.555-8.414 7.462-3.268 1.907-6.886 3.149-10.637 3.648-3.755 0.503-7.569 0.256-11.226-0.73z" />
<glyph unicode="&#xe90c;" d="M702.588 671.27c2.334-3.019 5.252-5.54 8.576-7.416s6.993-3.067 10.782-3.506c3.793-0.438 7.637-0.114 11.302 0.954s7.078 2.858 10.044 5.264l65.984 53.152c2.948 2.372 5.397 5.302 7.215 8.622 1.813 3.32 2.957 6.964 3.366 10.726 0.405 3.762 0.068 7.567-0.994 11.198s-2.833 7.018-5.205 9.966c-2.372 2.948-5.299 5.4-8.623 7.215-3.319 1.816-6.963 2.96-10.726 3.367-3.759 0.407-7.565 0.070-11.196-0.994s-7.019-2.832-9.967-5.204l-43.23-34.848-7.906 10.048c-2.321 2.988-5.214 5.487-8.508 7.351s-6.925 3.060-10.679 3.515c-3.759 0.455-7.569 0.162-11.213-0.863s-7.044-2.761-10.014-5.108c-2.982-2.325-5.47-5.216-7.33-8.505s-3.055-6.913-3.511-10.665c-0.457-3.751-0.171-7.556 0.841-11.196 1.015-3.64 2.739-7.044 5.073-10.018l25.92-33.056z" />
<glyph unicode="&#xe90d;" d="M745.259 547.202c22.694-0.054 45.175 4.392 66.142 13.082s40 21.45 56.004 37.542l0.030 0.032c32.64 32.64 50.624 76 50.624 122.144s-18.014 89.568-50.624 122.144c-32.606 32.672-76.032 50.656-122.176 50.656s-89.566-18.016-122.142-50.624c-16.111-15.999-28.885-35.036-37.581-56.009s-13.141-43.463-13.077-66.167c0-46.144 18.018-89.568 50.624-122.144 16-16.11 35.038-28.882 56.009-37.578 20.975-8.695 43.465-13.14 66.167-13.078zM663.821 801.474c21.76 21.76 50.654 33.728 81.438 33.728s59.682-11.968 81.472-33.76c21.76-21.76 33.728-50.656 33.728-81.44s-11.968-59.68-33.728-81.44l-0.030-0.032c-43.49-43.488-119.33-43.52-162.914 0.032-21.76 21.76-33.728 50.656-33.728 81.44s11.968 59.68 33.762 81.472z" />
<glyph unicode="&#xe90e;" d="M864.009 756.802h-704c-68.8 0-124.8-56-124.8-124.8v-368.002c0-68.8 56-124.8 124.8-124.8h704c68.8 0 124.8 56 124.8 124.8v368.002c0 68.8-56 124.8-124.8 124.8zM931.209 264c0-37.056-30.114-67.2-67.2-67.2h-493.888v3.2c0 7.642-3.034 14.967-8.435 20.365-5.401 5.402-12.726 8.435-20.365 8.435s-14.964-3.034-20.364-8.435c-5.401-5.397-8.436-12.723-8.436-20.365v-3.2h-152.512c-37.056 0-67.2 30.114-67.2 67.2v368.002c0 37.056 30.144 67.2 67.2 67.2h152.544v-3.2c0-7.638 3.034-14.964 8.436-20.365s12.726-8.435 20.364-8.435c7.639 0 14.964 3.034 20.365 8.435s8.435 12.727 8.435 20.365v3.2h493.856c37.056 0 67.2-30.144 67.2-67.2v-368.002z" />
<glyph unicode="&#xe90f;" d="M341.466 414.72c-16 0-28.8-12.77-28.8-28.77v-61.79c0-16 12.8-28.77 28.8-28.77 15.68 0 28.8 12.77 28.8 28.77v61.79c0 16-13.12 28.77-28.8 28.77zM341.466 600.958c-16 0-28.8-13.12-28.8-28.8v-62.078c0-16 12.8-28.8 28.8-28.8 15.68 0 28.8 12.8 28.8 28.8v62.078c0 15.68-13.12 28.8-28.8 28.8z" />
<glyph unicode="&#xe910;" d="M575.731 490.274c20.45 0 37.026 16.576 37.026 37.026 0 20.446-16.576 37.023-37.026 37.023-20.446 0-37.022-16.576-37.022-37.023 0-20.45 16.576-37.026 37.022-37.026z" />
<glyph unicode="&#xe911;" d="M708.177 394.884c-6.942-6.938-10.846-16.35-10.846-26.167-0.004-9.813 3.891-19.226 10.829-26.172 6.938-6.942 16.35-10.842 26.167-10.846 9.813-0.004 19.226 3.895 26.172 10.833 6.942 6.938 10.842 16.35 10.846 26.163s-3.895 19.23-10.833 26.172c-6.938 6.942-16.35 10.846-26.163 10.846-9.813 0.004-19.23-3.891-26.172-10.829zM761.587 554.499c-2.675 2.675-5.85 4.797-9.348 6.246-3.494 1.448-7.241 2.193-11.021 2.193-3.785 0-7.531-0.745-11.025-2.193s-6.669-3.57-9.344-6.246l-172.288-172.287c-5.107-5.466-7.893-12.702-7.765-20.181s3.157-14.618 8.448-19.904c5.291-5.286 12.433-8.311 19.913-8.435 7.479-0.119 14.711 2.671 20.173 7.782l172.288 172.322c5.389 5.402 8.414 12.723 8.405 20.357-0.004 7.632-3.038 14.95-8.435 20.346z" />
<glyph unicode="&#xe912;" d="M505.468 419.908c27.136-6.178 32.32-13.026 32.546-13.026-0.29-9.024-21.568-14.784-43.874-16.158-1.306 7.070-5.21 13.393-10.944 17.732s-12.885 6.374-20.041 5.709c-7.159-0.666-13.811-3.985-18.645-9.306-4.838-5.321-7.509-12.258-7.488-19.447 0-14.37 5.696-27.746 16-37.73 8.158-7.902 18.846-12.702 30.046-14.144v-0.094c0-7.637 3.034-14.963 8.435-20.365s12.727-8.435 20.365-8.435c7.637 0 14.963 3.034 20.365 8.435s8.435 12.727 8.435 20.365v7.36c47.296 15.232 54.464 48.414 54.882 64.64 0.64 24.064-12.288 55.872-77.346 70.656-27.712 6.302-32.030 12.48-32.256 12.894 0.674 10.176 22.882 15.010 43.52 16.29 1.306-7.070 5.214-13.397 10.944-17.732 5.734-4.339 12.885-6.374 20.045-5.709s13.807 3.985 18.645 9.306c4.834 5.321 7.505 12.258 7.488 19.447 0 14.174-5.888 28-16.064 37.824-8.201 7.766-18.679 12.69-29.888 14.048v0.128c0 7.638-3.038 14.964-8.435 20.365-5.402 5.401-12.727 8.435-20.365 8.435-7.642 0-14.963-3.034-20.365-8.435s-8.435-12.727-8.435-20.365v-7.456c-43.392-13.984-53.282-43.136-54.592-62.242-2.401-36.224 23.488-60.8 77.022-72.99z" />
<glyph unicode="&#xe913;" d="M512.009 194.24c139.904 0 253.76 113.826 253.76 253.76 0 139.936-113.856 253.76-253.76 253.76-139.935 0-253.759-113.824-253.759-253.76 0-139.934 113.824-253.76 253.759-253.76zM512.009 644.16c108.16 0 196.13-88 196.13-196.16s-87.97-196.16-196.13-196.16c-108.159 0-196.159 88-196.159 196.16s88 196.16 196.159 196.16z" />
<glyph unicode="&#xe914;" d="M910.281 378.756c-7.42 1.805-15.249 0.597-21.777-3.362-6.524-3.959-11.217-10.347-13.039-17.758-16.273-66.108-50.364-126.481-98.56-174.562-70.754-70.72-164.8-109.696-264.896-109.696s-194.177 38.976-264.897 109.73c-27.232 27.17-50.085 58.398-67.744 92.574l44-15.424c3.59-1.348 7.414-1.967 11.247-1.822 3.833 0.149 7.598 1.062 11.073 2.684s6.592 3.925 9.167 6.767c2.574 2.842 4.555 6.174 5.825 9.792s1.805 7.454 1.573 11.285c-0.233 3.827-1.228 7.569-2.927 11.008s-4.068 6.507-6.967 9.015c-2.9 2.513-6.272 4.416-9.918 5.606l-107.232 37.568c-3.736 1.31-7.702 1.83-11.65 1.536s-7.792-1.399-11.293-3.247c-3.501-1.847-6.584-4.395-9.056-7.488-2.473-3.089-4.281-6.66-5.312-10.479l-29.664-109.696c-1.179-3.708-1.596-7.612-1.225-11.486 0.371-3.87 1.523-7.629 3.386-11.042s4.398-6.417 7.452-8.823c3.055-2.406 6.565-4.173 10.32-5.188 3.755-1.011 7.676-1.254 11.527-0.713s7.553 1.856 10.881 3.87c3.329 2.010 6.215 4.676 8.486 7.834s3.878 6.746 4.725 10.539l8.992 33.216c19.671-36.237 44.459-69.453 73.6-98.624 40.037-40.269 87.667-72.192 140.13-93.922s108.718-32.836 165.503-32.67c115.456 0 224.030 44.962 305.664 126.592 55.646 55.531 94.993 125.261 113.758 201.6 1.805 7.42 0.589 15.249-3.375 21.773-3.968 6.519-10.359 11.2-17.775 13.013zM935.526 708.515c-3.652 1.002-7.467 1.271-11.221 0.792s-7.381-1.696-10.667-3.582c-3.281-1.885-6.161-4.403-8.465-7.406-2.308-3.003-3.998-6.433-4.975-10.092l-8.99-33.184c-19.674 36.23-44.446 69.444-73.57 98.624-40.043 40.259-87.671 72.175-140.134 93.899s-108.715 32.826-165.495 32.661c-115.489 0-224.001-44.96-305.633-126.592-55.639-55.527-94.996-125.242-113.792-201.568-0.899-3.675-1.066-7.491-0.49-11.23s1.882-7.329 3.844-10.563c1.963-3.234 4.543-6.050 7.594-8.29 3.051-2.236 6.513-3.849 10.188-4.749s7.491-1.067 11.23-0.491c3.739 0.576 7.328 1.882 10.563 3.844s6.051 4.544 8.288 7.595c2.237 3.051 3.852 6.513 4.751 10.188 16.279 66.112 50.367 126.496 98.56 174.592 70.72 70.72 164.8 109.696 264.897 109.696s194.142-38.976 264.896-109.696c27.221-27.179 50.074-58.407 67.742-92.576l-43.998 15.424c-3.597 1.38-7.437 2.024-11.285 1.894-3.853-0.13-7.637-1.031-11.136-2.65-3.494-1.619-6.63-3.923-9.22-6.776s-4.578-6.196-5.854-9.833c-1.276-3.636-1.805-7.491-1.562-11.337 0.239-3.845 1.25-7.603 2.974-11.050 1.719-3.447 4.113-6.514 7.044-9.019 2.927-2.505 6.327-4.397 9.997-5.565l107.234-37.568c3.738-1.322 7.71-1.856 11.661-1.568 3.955 0.288 7.808 1.39 11.315 3.238s6.596 4.403 9.067 7.502c2.475 3.1 4.279 6.677 5.299 10.508l29.666 109.696c1.967 7.366 0.93 15.212-2.88 21.816s-10.082 11.429-17.442 13.416z" />
<glyph unicode="&#xe915;" d="M869.449 782.656h-595.52c-31.646-0.034-61.986-12.62-84.363-34.997s-34.963-52.717-34.997-84.363v-0.224h-0.064c-31.629-0.034-61.953-12.614-84.318-34.979s-34.944-52.689-34.978-84.317v-311.102c0.034-31.633 12.612-61.961 34.977-84.331s52.687-34.957 84.32-34.999h595.52c31.637 0.034 61.969 12.617 84.339 34.987 22.37 22.374 34.953 52.706 34.987 84.343v0.256h0.098c31.642 0.030 61.973 12.612 84.352 34.982 22.374 22.37 34.965 52.702 35.008 84.343v311.040c-0.034 31.645-12.621 61.986-34.999 84.363-22.374 22.377-52.715 34.963-84.361 34.997zM811.721 232.674c-0.009-16.367-6.511-32.055-18.078-43.631-11.567-11.571-27.255-18.082-43.618-18.099h-595.52c-16.364 0.017-32.051 6.528-43.619 18.099-11.567 11.575-18.069 27.264-18.077 43.631v311.102c0.017 16.358 6.522 32.040 18.089 43.607s27.249 18.072 43.607 18.089h595.52c16.358-0.017 32.038-6.523 43.605-18.089s18.074-27.249 18.091-43.607v-311.102zM931.209 352.256c0-34.048-27.682-61.76-61.76-61.76h-0.098v253.28c-0.038 31.632-12.625 61.955-34.995 84.32s-52.698 34.942-84.331 34.976l-537.856 0.224c0 34.048 27.712 61.76 61.76 61.76h595.52c34.048 0 61.76-27.712 61.76-61.76v-311.040z" />
<glyph unicode="&#xe916;" d="M452.284 515.012c-69.92 0-126.784-56.866-126.784-126.784 0-69.922 56.864-126.784 126.784-126.784 69.922 0 126.818 56.862 126.818 126.784 0 69.918-56.896 126.784-126.818 126.784zM452.284 319.010c-38.144 0-69.216 31.040-69.216 69.218 0 38.174 31.040 69.214 69.216 69.214 38.178 0 69.218-31.040 69.218-69.214 0-38.178-31.040-69.218-69.218-69.218z" />
<glyph unicode="&#xe917;" d="M220.809 421.79c-8.911 0-17.458-3.537-23.759-9.839s-9.841-14.848-9.841-23.761c0-8.909 3.54-17.455 9.841-23.757s14.848-9.843 23.759-9.843c8.911 0 17.457 3.541 23.759 9.843s9.841 14.848 9.841 23.757c0 8.913-3.54 17.459-9.841 23.761s-14.848 9.839-23.759 9.839zM683.75 421.79c-8.909 0-17.455-3.537-23.757-9.839s-9.843-14.848-9.843-23.761c0-8.909 3.541-17.455 9.843-23.757s14.848-9.843 23.757-9.843c8.913 0 17.459 3.541 23.761 9.843s9.839 14.848 9.839 23.757c0 8.913-3.537 17.459-9.839 23.761s-14.848 9.839-23.761 9.839z" />
<glyph unicode="&#xe918;" d="M831.053 889.312h-304c-33.344-0.034-65.314-13.295-88.887-36.872-23.579-23.577-36.84-55.545-36.874-88.888v-121.632c0.034-33.343 13.295-65.311 36.874-88.888 23.573-23.577 55.543-36.838 88.887-36.872h304c33.344 0.034 65.31 13.295 88.887 36.872s36.838 55.545 36.873 88.888v121.6c-0.034 33.346-13.295 65.318-36.873 88.9-23.573 23.582-55.543 36.85-88.887 36.892zM899.213 641.92c0-37.6-30.592-68.16-68.16-68.16h-304c-18.074 0.017-35.401 7.203-48.179 19.983s-19.964 30.106-19.981 48.177v121.6c0 37.6 30.592 68.16 68.16 68.16h304c37.598 0 68.16-30.592 68.16-68.16v-121.6z" />
<glyph unicode="&#xe919;" d="M679.031 794.365c-50.526 0-91.648-41.12-91.648-91.648s41.122-91.616 91.648-91.616c50.53 0 91.648 41.088 91.648 91.616s-41.118 91.648-91.648 91.648zM679.031 668.669c-18.752 0-34.048 15.264-34.048 34.016s15.296 34.048 34.048 34.048c18.752 0 34.048-15.296 34.048-34.048s-15.296-34.016-34.048-34.016zM530.615 724.253c-2.897 0.112-5.786-0.362-8.491-1.393-2.709-1.031-5.184-2.598-7.27-4.608-2.091-2.009-3.75-4.419-4.885-7.086s-1.719-5.535-1.719-8.433c0-2.898 0.585-5.766 1.719-8.433s2.795-5.077 4.885-7.086c2.086-2.009 4.561-3.576 7.27-4.608 2.705-1.031 5.594-1.505 8.491-1.393 5.564 0.215 10.829 2.576 14.69 6.588s6.016 9.364 6.016 14.932c0 5.568-2.155 10.92-6.016 14.932s-9.126 6.374-14.69 6.588zM827.447 724.253c-2.897 0.112-5.786-0.362-8.491-1.393-2.709-1.031-5.184-2.598-7.27-4.608-2.091-2.009-3.75-4.419-4.885-7.086s-1.719-5.535-1.719-8.433c0-2.898 0.585-5.766 1.719-8.433s2.795-5.077 4.885-7.086c2.086-2.009 4.561-3.576 7.27-4.608 2.705-1.031 5.594-1.505 8.491-1.393 5.564 0.215 10.829 2.576 14.69 6.588s6.016 9.364 6.016 14.932c0 5.568-2.155 10.92-6.016 14.932s-9.126 6.374-14.69 6.588z" />
<glyph unicode="&#xe91a;" d="M926.054 339.648c-16.090 17.045-37.658 27.895-60.937 30.656s-46.788-2.743-66.423-15.552l-89.182-58.146c1.246 6.306 1.95 12.77 1.95 19.426-0.081 22.946-8.009 45.171-22.468 62.989-14.46 17.822-34.581 30.157-57.020 34.961l-134.622 28.258c-28.399 5.901-57.694 6.046-86.15 0.422s-55.494-16.9-79.514-33.161l-24.096-16.384c-0.703 18.799-8.656 36.595-22.192 49.66s-31.604 20.382-50.416 20.42h-74.848c-24.644-0.026-48.271-9.83-65.693-27.255-17.423-17.429-27.218-41.062-27.235-65.702v-270.626c0.025-24.64 9.824-48.26 27.246-65.681s41.044-27.221 65.682-27.247h74.848c38.080 0 69.056 29.44 72.288 66.688l182.080-45.982c33.135-8.341 67.776-8.725 101.086-1.122l151.872 34.85c38.071 8.725 73.054 27.627 101.218 54.686l82.56 79.296c18.97 18.321 29.969 43.379 30.609 69.747s-9.126 51.925-27.187 71.151l-3.456 3.648zM250.313 79.616c-0.009-4.066-1.626-7.957-4.499-10.833-2.873-2.871-6.767-4.489-10.829-4.497h-74.848c-9.364 0.017-18.341 3.746-24.962 10.368-6.622 6.618-10.349 15.595-10.366 24.96v270.626c0 19.486 15.872 35.358 35.328 35.358h74.848c4.062-0.009 7.956-1.626 10.829-4.497 2.873-2.876 4.491-6.767 4.499-10.829v-310.656zM886.153 236.702l-82.594-79.326c-20.621-19.844-46.246-33.707-74.142-40.098l-151.872-34.846c-24.427-5.547-49.813-5.274-74.112 0.798l-195.52 49.408v191.010l56.192 38.208c17.594 11.934 37.408 20.211 58.266 24.333 20.856 4.126 42.33 4.011 63.143-0.333l134.622-28.258c10.21-2.244 19.234-8.166 25.353-16.636 6.123-8.474 8.905-18.901 7.825-29.299-1.079-10.394-5.952-20.028-13.679-27.059-7.731-7.036-17.783-10.974-28.233-11.068h-92.834c-7.637 0-14.963-3.038-20.365-8.439-5.397-5.397-8.435-12.723-8.435-20.361 0-7.642 3.038-14.967 8.435-20.365 5.402-5.402 12.727-8.435 20.365-8.435h142.946c19.409-0.021 38.4 5.615 54.656 16.222l114.014 74.338c8.329 5.436 18.3 7.77 28.173 6.601s19.021-5.773 25.843-13.001l3.392-3.584c7.68-8.154 11.831-19.008 11.563-30.204-0.269-11.191-4.941-21.833-13.001-29.606z" />
<glyph unicode="&#xe91b;" d="M976.017 125.248l-97.344 404.002c-4.834 20.277-16.371 38.329-32.742 51.234s-36.621 19.905-57.468 19.87h-54.848v102.848c0 122.176-99.456 221.6-221.632 221.6-58.756-0.068-115.092-23.44-156.641-64.989s-64.922-97.883-64.989-156.643v-102.848h-54.848c-20.846 0.035-41.093-6.966-57.465-19.87s-27.908-30.956-32.743-51.236l-97.344-403.968c-4.477-18.347-4.705-37.474-0.668-55.923 4.038-18.453 12.234-35.738 23.964-50.539 11.636-14.869 26.515-26.889 43.502-35.136 16.986-8.243 35.632-12.501 54.514-12.45h685.439c18.884-0.051 37.53 4.207 54.515 12.45 16.986 8.247 31.868 20.267 43.503 35.136 11.738 14.797 19.938 32.085 23.974 50.534 4.036 18.453 3.806 37.581-0.678 55.927zM347.952 703.202c0.042 43.488 17.339 85.182 48.093 115.93s72.452 48.036 115.938 48.070c43.486-0.042 85.171-17.335 115.921-48.081 30.746-30.746 48.038-72.436 48.081-115.919v-102.848h-328.033v102.848zM907.473 54.4c-12.8-16.286-32.064-25.6-52.77-25.6h-685.439c-20.704 0-39.968 9.314-52.768 25.6-12.8 16.29-17.408 37.184-12.544 57.344l97.344 404.002c3.84 15.872 17.92 26.976 34.208 26.976h552.959c16.32 0 30.37-11.104 34.21-26.976l97.344-404.002c4.864-20.16 0.286-41.054-12.544-57.344z" />
<glyph unicode="&#xe91c;" d="M509.282 480c-104.386 0-189.282-84.898-189.282-189.282s84.896-189.278 189.282-189.278c104.384 0 189.278 84.894 189.278 189.278s-84.894 189.282-189.278 189.282zM509.282 159.070c-72.61 0-131.65 59.072-131.65 131.648s59.074 131.648 131.65 131.648c72.576 0 131.678-59.038 131.678-131.648 0-72.606-59.072-131.648-131.678-131.648z" />
<glyph unicode="&#xe91d;" d="M477.163 283.456l3.298 3.294v-61.662c0-7.637 3.034-14.963 8.435-20.365 5.397-5.402 12.723-8.435 20.365-8.435 7.637 0 14.963 3.034 20.365 8.435 5.397 5.402 8.435 12.727 8.435 20.365v61.662l3.294-3.294c2.662-2.688 5.833-4.821 9.323-6.281 3.494-1.459 7.241-2.21 11.025-2.214 3.78 0 7.531 0.747 11.021 2.197 3.494 1.451 6.669 3.58 9.335 6.263 2.679 2.667 4.809 5.837 6.259 9.331 1.455 3.49 2.202 7.232 2.206 11.017 0.004 3.78-0.738 7.526-2.189 11.017-1.446 3.494-3.567 6.669-6.242 9.34l-52.48 52.514c-2.675 2.679-5.854 4.804-9.353 6.255s-7.245 2.197-11.034 2.197c-3.785 0-7.535-0.747-11.034-2.197s-6.673-3.575-9.348-6.255l-52.48-52.514c-5.393-5.41-8.418-12.74-8.405-20.382 0.013-7.637 3.059-14.959 8.469-20.352s12.74-8.418 20.378-8.405c7.642 0.013 14.963 3.059 20.356 8.469z" />
<glyph unicode="&#xe91e;" glyph-name="upsell-popups" d="M832.009 924.802h-640c-41.573-0.042-81.431-16.576-110.828-45.972s-45.93-69.255-45.972-110.828v-639.998c0-86.464 70.336-156.8 156.8-156.8h640c86.464 0 156.8 70.336 156.8 156.8v639.998c0 86.464-70.336 156.8-156.8 156.8zM192.009 867.202h640c54.686 0 99.2-44.512 99.2-99.2v-115.2h-838.4v115.2c0 54.688 44.512 99.2 99.2 99.2zM832.009 28.804h-640c-26.299 0.030-51.511 10.496-70.108 29.090-18.596 18.598-29.059 43.81-29.092 70.11v467.198h838.4v-467.198c0-54.69-44.514-99.2-99.2-99.2zM619.337 414.050h-11.008v8.414c0 53.12-43.23 96.354-96.35 96.354s-96.321-43.234-96.321-96.354v-8.414h-11.040c-33.408 0-60.576-27.2-60.576-60.608v-168.64c0.025-21.116 8.425-41.361 23.356-56.29 14.932-14.933 35.176-23.334 56.292-23.36h176.545c21.116 0.026 41.361 8.427 56.29 23.36 14.933 14.929 23.33 35.174 23.356 56.29v168.64c0.004 7.953-1.557 15.834-4.599 23.185-3.038 7.351-7.497 14.029-13.12 19.657-5.619 5.628-12.297 10.095-19.644 13.141-7.347 3.051-15.223 4.621-23.181 4.625zM473.289 422.464c0 21.346 17.378 38.72 38.72 38.72 21.346 0 38.72-17.374 38.72-38.72v-8.414h-77.44v8.414zM622.315 184.832c0-12.16-9.89-22.016-22.016-22.016h-176.545c-5.839 0.009-11.438 2.33-15.57 6.455-4.132 4.13-6.461 9.724-6.478 15.561v168.64c0 1.664 1.344 2.978 2.976 2.978h214.689c1.664 0 2.974-1.314 2.974-2.978l-0.030-168.64zM194.227 740.158c-5.266-5.266-12.408-8.224-19.855-8.224s-14.59 2.959-19.856 8.224c-5.266 5.266-8.224 12.408-8.224 19.855s2.959 14.589 8.224 19.856c5.266 5.266 12.408 8.224 19.856 8.224s14.589-2.959 19.855-8.224c5.266-5.266 8.224-12.408 8.224-19.856s-2.959-14.589-8.224-19.855zM289.331 740.158c-5.266-5.266-12.408-8.224-19.855-8.224s-14.59 2.959-19.856 8.224c-5.266 5.266-8.224 12.408-8.224 19.855s2.959 14.589 8.224 19.856c5.266 5.266 12.408 8.224 19.856 8.224s14.589-2.959 19.855-8.224c5.266-5.266 8.224-12.408 8.224-19.856s-2.959-14.589-8.224-19.855zM384.467 740.158c-5.266-5.266-12.408-8.224-19.855-8.224s-14.59 2.959-19.856 8.224c-5.266 5.266-8.224 12.408-8.224 19.855s2.959 14.589 8.224 19.856c5.266 5.266 12.408 8.224 19.856 8.224s14.589-2.959 19.855-8.224c5.266-5.266 8.224-12.408 8.224-19.856s-2.959-14.589-8.224-19.855z" />
<glyph unicode="&#xe91f;" glyph-name="thankyou-upsells" d="M176.329 52.352h403.2c7.642 0 14.972-3.034 20.378-8.439 5.402-5.402 8.439-12.732 8.439-20.373 0-7.646-3.038-14.972-8.439-20.378-5.406-5.406-12.736-8.439-20.378-8.439h-403.2c-37.414 0.043-73.284 14.925-99.74 41.378-26.456 26.458-41.338 62.327-41.38 99.742v540.159c0.062 36.404 14.482 71.315 40.128 97.152l87.68 87.68c12.714 12.832 27.847 23.014 44.524 29.957s34.564 10.509 52.628 10.491h450.526c37.457-0.085 73.353-15.024 99.81-41.54 26.453-26.516 41.31-62.444 41.31-99.9v-304.319c0-7.637-3.034-14.963-8.435-20.365-5.397-5.402-12.723-8.435-20.365-8.435-7.637 0-14.963 3.034-20.365 8.435-5.397 5.402-8.435 12.727-8.435 20.365v304.319c0.026 22.182-8.751 43.469-24.401 59.188-15.654 15.718-36.902 24.585-59.085 24.652h-392.8v-126.848c-0.025-26.149-10.424-51.22-28.914-69.71s-43.561-28.889-69.709-28.914h-126.464v-482.367c0.017-22.14 8.818-43.362 24.471-59.017s36.879-24.457 59.017-24.474zM203.753 820.129l-87.68-87.68c-14.784-14.784-23.264-35.36-23.264-56.448v-0.224h126.496c22.624 0 40.992 18.4 40.992 41.024v126.88h-0.128c-10.493-0.001-20.883-2.083-30.567-6.126s-18.47-9.966-25.849-17.426zM463.774 213.299c-5.402-5.397-12.727-8.435-20.365-8.435-7.65 0.017-14.98 3.063-20.39 8.474s-8.456 12.74-8.473 20.39v12.13l-1.056-0.064-2.176-0.034c-16.352 0-32.32 6.434-44.064 17.762-12.416 11.968-19.264 28.062-19.264 45.312-0.004 7.637 3.026 14.963 8.424 20.369s12.721 8.444 20.36 8.448c7.638 0.004 14.965-3.029 20.369-8.427s8.442-12.719 8.447-20.361c-0.006-0.725 0.135-1.446 0.416-2.116 0.281-0.674 0.695-1.28 1.216-1.788 1.214-0.947 2.687-1.506 4.224-1.6 19.137 0.674 81.665 5.248 82.463 36.224 0.29 11.584-21.022 23.394-57.054 31.65-70.209 15.966-104.289 46.942-101.153 92.062 1.728 25.216 15.392 64.384 78.848 81.346v20.256c0 7.639 3.034 14.964 8.435 20.365s12.726 8.435 20.364 8.435c7.642 0 14.963-3.034 20.365-8.435s8.435-12.726 8.435-20.365v-12.224l0.491 0.043c0.282 0.027 0.546 0.053 0.853 0.053 8.431 0.376 16.845-0.993 24.721-4.021 7.872-3.028 15.036-7.651 21.039-13.579 12.288-11.842 19.328-28.384 19.328-45.442 0-7.637-3.034-14.963-8.435-20.365-5.402-5.397-12.723-8.435-20.365-8.435-7.637 0-14.963 3.038-20.365 8.435-5.402 5.402-8.435 12.727-8.435 20.365 0.009 0.751-0.137 1.489-0.431 2.18-0.29 0.687-0.721 1.306-1.263 1.822-1.028 0.93-2.359 1.455-3.746 1.472-29.888-1.058-80.383-7.104-82.367-35.84-1.056-15.586 30.176-25.984 56.511-32 68.736-15.68 102.976-45.76 101.858-89.314-0.576-21.342-10.432-65.886-79.33-84.288v-20.096c0-7.637-3.034-14.963-8.435-20.365zM799.531 373.282c-104.384 0-189.282-84.898-189.282-189.282s84.898-189.278 189.282-189.278c104.384 0 189.278 84.894 189.278 189.278s-84.894 189.282-189.278 189.282zM799.531 52.352c-72.61 0-131.648 59.072-131.648 131.648s59.072 131.648 131.648 131.648c72.576 0 131.678-59.038 131.678-131.648 0-72.606-59.072-131.648-131.678-131.648zM770.709 180.032l-3.298-3.294c-5.393-5.41-12.715-8.457-20.352-8.469-7.642-0.013-14.972 3.008-20.382 8.405-5.41 5.393-8.457 12.715-8.469 20.352-0.013 7.642 3.012 14.972 8.405 20.382l52.48 52.514c2.675 2.679 5.854 4.804 9.348 6.255 3.499 1.451 7.249 2.197 11.034 2.197 3.789 0 7.539-0.747 11.038-2.197 3.494-1.451 6.673-3.575 9.348-6.255l52.48-52.514c2.675-2.671 4.8-5.845 6.246-9.34s2.189-7.236 2.185-11.017c0-3.785-0.751-7.526-2.202-11.017-1.455-3.494-3.58-6.665-6.263-9.331-2.667-2.684-5.837-4.813-9.331-6.263-3.494-1.455-7.241-2.197-11.025-2.197-3.785 0.004-7.531 0.755-11.021 2.214-3.494 1.455-6.66 3.593-9.327 6.281l-3.294 3.294v-61.662c0-7.642-3.034-14.967-8.435-20.365-5.402-5.402-12.727-8.435-20.365-8.435s-14.963 3.034-20.365 8.435c-5.402 5.397-8.435 12.723-8.435 20.365v61.662z" />
<glyph unicode="&#xe920;" glyph-name="post-purchase" d="M811.443 560.284c-20.966-8.689-43.447-13.136-66.142-13.082-22.703-0.063-45.197 4.382-66.167 13.078-20.975 8.696-40.009 21.469-56.009 37.578-32.61 32.576-50.624 76-50.624 122.144-0.064 22.704 4.382 45.194 13.077 66.167s21.47 40.010 37.577 56.009c32.576 32.608 76.002 50.624 122.146 50.624s89.566-17.984 122.176-50.656c32.606-32.576 50.624-76 50.624-122.144s-17.984-89.504-50.624-122.144l-0.034-0.032c-16-16.093-35.038-28.853-56-37.542zM745.301 835.202c-30.784 0-59.682-11.968-81.442-33.728-21.79-21.792-33.758-50.688-33.758-81.472s11.968-59.68 33.728-81.44c43.584-43.552 119.424-43.52 162.91-0.032l0.034 0.032c21.76 21.76 33.728 50.656 33.728 81.44s-11.968 59.68-33.728 81.44c-21.794 21.792-50.688 33.76-81.472 33.76zM846.852 516.352c3.012 2.291 6.447 3.968 10.103 4.928 3.657 0.986 7.471 1.233 11.226 0.73 3.75-0.499 7.369-1.741 10.637-3.648 3.273-1.907 6.131-4.442 8.414-7.462 2.287-3.021 3.947-6.464 4.894-10.129 8.384-32.060 12.587-65.071 12.51-98.21 0-220.19-179.166-399.36-399.36-399.36-220.191 0-399.359 179.136-399.359 399.36 0 218.050 170.432 393.442 388.001 399.362 7.616 0.148 14.985-2.706 20.518-7.945 5.53-5.238 8.781-12.442 9.050-20.055 0.205-7.633-2.628-15.037-7.881-20.582-5.248-5.545-12.489-8.777-20.122-8.986-186.143-5.088-331.967-155.2-331.967-341.794 0-188.446 153.28-341.76 341.729-341.76 188.446 0 341.76 153.314 341.76 341.76 0 28.834-3.52 56.93-10.56 83.52-0.969 3.661-1.203 7.471-0.695 11.221 0.512 3.75 1.754 7.36 3.657 10.628 1.907 3.273 4.437 6.131 7.445 8.422zM476.331 565.342v26.112c-0.004 3.785 0.738 7.532 2.185 11.029s3.567 6.675 6.242 9.352c2.675 2.677 5.85 4.801 9.344 6.252 3.499 1.45 7.245 2.197 11.029 2.199s7.531-0.741 11.029-2.187c3.494-1.446 6.673-3.567 9.348-6.241 2.679-2.674 4.804-5.85 6.255-9.345s2.197-7.242 2.197-11.026v-18.208c0.845 0.042 1.655 0.101 2.462 0.16v0c1.058 0.078 2.112 0.155 3.234 0.192 9.058 0.4 18.103-1.073 26.564-4.328 8.465-3.254 16.162-8.219 22.622-14.584 13.214-12.736 20.8-30.592 20.8-48.926 0-7.642-3.034-14.963-8.435-20.365s-12.727-8.435-20.365-8.435c-7.637 0-14.963 3.034-20.365 8.435s-8.435 12.723-8.435 20.365c0.004 1.399-0.273 2.786-0.823 4.075s-1.361 2.449-2.377 3.413c-1.958 1.788-4.514 2.782-7.168 2.782-43.392-1.502-95.522-10.496-97.856-44.638-1.122-16.768 20.958-30.080 67.584-40.674 76.19-17.374 114.176-50.27 112.96-97.792-1.186-46.046-33.472-78.336-90.432-92.864v-26.27c0-7.642-3.034-14.963-8.435-20.365s-12.727-8.435-20.365-8.435c-7.637 0-14.963 3.034-20.365 8.435s-8.435 12.723-8.435 20.365v18.27c-0.858-0.043-1.668-0.128-2.479-0.213-0.943-0.102-1.882-0.201-2.897-0.235l-2.496-0.030c-17.792 0-34.496 6.72-47.329 19.102-13.344 12.898-20.704 30.208-20.704 48.768-0.002 3.785 0.741 7.526 2.186 11.025 1.446 3.494 3.565 6.669 6.238 9.344s5.847 4.8 9.34 6.251c3.493 1.446 7.238 2.193 11.020 2.197 3.78 0 7.526-0.742 11.021-2.185 3.499-1.446 6.673-3.567 9.348-6.238 2.675-2.675 4.8-5.85 6.251-9.344 1.446-3.49 2.193-7.236 2.197-11.017-0.013-1.374 0.256-2.735 0.789-4.002s1.323-2.411 2.313-3.358l0.094-0.085c1.216-1.126 3.098-2.859 7.684-2.859 29.12 1.024 96.926 7.488 97.92 45.248 0.414 15.744-23.808 30.016-68.194 40.094l-0.141 0.034c-29.137 6.656-117.194 26.773-112.114 100.766 1.888 28.002 17.312 71.68 89.953 89.984zM702.588 671.264c2.334-3.019 5.252-5.541 8.576-7.416s6.993-3.068 10.782-3.506c3.793-0.438 7.637-0.114 11.302 0.954s7.078 2.858 10.044 5.264l65.984 53.152c2.948 2.372 5.397 5.302 7.215 8.622 1.813 3.319 2.957 6.964 3.366 10.726 0.405 3.762 0.068 7.567-0.994 11.198s-2.833 7.018-5.205 9.966c-2.372 2.948-5.299 5.4-8.623 7.215-3.319 1.816-6.963 2.96-10.726 3.367-3.759 0.407-7.565 0.070-11.196-0.994s-7.019-2.832-9.967-5.204l-43.23-34.848-7.906 10.048c-2.321 2.988-5.214 5.487-8.508 7.351s-6.925 3.060-10.679 3.515c-3.759 0.455-7.569 0.162-11.213-0.863s-7.044-2.761-10.014-5.108c-2.982-2.325-5.47-5.216-7.33-8.505s-3.055-6.913-3.511-10.665c-0.457-3.751-0.171-7.556 0.841-11.196 1.015-3.64 2.739-7.045 5.073-10.018l25.92-33.056z" />
<glyph unicode="&#xe921;" glyph-name="next-order-coupon" d="M160.009 756.802h704c68.8 0 124.8-56 124.8-124.8v-367.998c0-68.8-56-124.8-124.8-124.8h-704c-68.8 0-124.8 56-124.8 124.8v367.998c0 68.8 56 124.8 124.8 124.8zM864.009 196.8c37.086 0 67.2 30.144 67.2 67.204v367.998c0 37.056-30.144 67.2-67.2 67.2h-493.856v-3.2c0-7.638-3.034-14.964-8.435-20.365s-12.726-8.435-20.365-8.435c-7.638 0-14.964 3.034-20.364 8.435s-8.436 12.727-8.436 20.365v3.2h-152.544c-37.056 0-67.2-30.144-67.2-67.2v-367.998c0-37.090 30.144-67.204 67.2-67.204h152.512v3.204c0 7.637 3.034 14.963 8.436 20.361 5.401 5.402 12.726 8.435 20.364 8.435s14.964-3.034 20.365-8.435c5.401-5.397 8.435-12.723 8.435-20.361v-3.204h493.888zM312.625 385.95c0 16 12.8 28.77 28.8 28.77 15.68 0 28.8-12.77 28.8-28.77v-61.79c0-16-13.12-28.77-28.8-28.77-16 0-28.8 12.77-28.8 28.77v61.79zM312.625 572.158c0 15.68 12.8 28.8 28.8 28.8 15.68 0 28.8-13.12 28.8-28.8v-62.078c0-16-13.12-28.8-28.8-28.8-16 0-28.8 12.8-28.8 28.8v62.078zM575.731 490.27c20.45 0 37.026 16.576 37.026 37.022 0 20.45-16.576 37.026-37.026 37.026-20.446 0-37.022-16.576-37.022-37.026 0-20.446 16.576-37.022 37.022-37.022zM697.331 368.713c0 9.813 3.904 19.226 10.846 26.163 6.942 6.942 16.358 10.837 26.172 10.833s19.226-3.904 26.163-10.846c6.938-6.942 10.837-16.358 10.833-26.172-0.004-9.818-3.904-19.226-10.846-26.167-6.946-6.938-16.358-10.833-26.172-10.829-9.818 0.004-19.23 3.904-26.167 10.846s-10.833 16.358-10.829 26.172zM752.239 560.739c3.499-1.448 6.673-3.57 9.348-6.246 5.397-5.396 8.431-12.713 8.435-20.345 0.009-7.633-3.017-14.955-8.405-20.361l-172.288-172.318c-5.461-5.111-12.693-7.902-20.173-7.782-7.479 0.124-14.622 3.145-19.913 8.435-5.291 5.286-8.32 12.425-8.448 19.904s2.658 14.716 7.765 20.177l172.288 172.29c2.675 2.676 5.85 4.798 9.344 6.246s7.241 2.193 11.025 2.193c3.78 0 7.526-0.745 11.021-2.193z" />
<glyph unicode="&#xe922;" glyph-name="fbt" d="M888.503 375.386c6.528 3.959 14.357 5.171 21.777 3.366 7.415-1.813 13.807-6.494 17.775-13.018 3.964-6.519 5.18-14.353 3.375-21.769-18.765-76.339-58.112-146.069-113.758-201.6-81.634-81.63-190.208-126.592-305.664-126.592-56.785-0.166-113.040 10.94-165.503 32.67s-100.093 53.653-140.13 93.922c-29.141 29.171-53.929 62.387-73.6 98.624l-8.992-33.216c-0.847-3.797-2.455-7.381-4.725-10.539s-5.157-5.824-8.486-7.834c-3.328-2.014-7.030-3.328-10.881-3.874-3.852-0.542-7.773-0.299-11.527 0.717s-7.265 2.778-10.32 5.188c-3.054 2.406-5.589 5.41-7.452 8.823s-3.014 7.168-3.386 11.042c-0.372 3.87 0.045 7.778 1.225 11.486l29.664 109.696c1.032 3.819 2.84 7.39 5.312 10.479 2.472 3.093 5.555 5.641 9.056 7.488s7.346 2.953 11.293 3.247c3.948 0.294 7.913-0.23 11.65-1.536l107.232-37.568c3.646-1.19 7.018-3.098 9.918-5.606 2.899-2.513 5.268-5.577 6.967-9.015s2.694-7.181 2.927-11.012c0.232-3.827-0.303-7.663-1.573-11.281-1.27-3.622-3.251-6.95-5.825-9.792-2.575-2.846-5.691-5.146-9.167-6.767s-7.24-2.534-11.073-2.684c-3.833-0.145-7.656 0.474-11.247 1.822l-44 15.424c17.659-34.176 40.512-65.404 67.744-92.574 70.72-70.754 164.8-109.73 264.897-109.73s194.142 38.976 264.896 109.696c48.196 48.077 82.287 108.454 98.56 174.562 1.822 7.411 6.515 13.794 13.039 17.754zM924.305 709.302c3.755 0.479 7.569 0.209 11.221-0.792 7.36-1.987 13.632-6.812 17.442-13.416s4.847-14.45 2.88-21.816l-29.666-109.696c-1.020-3.831-2.825-7.408-5.299-10.508-2.47-3.099-5.559-5.654-9.067-7.502s-7.36-2.951-11.315-3.238c-3.955-0.288-7.923 0.247-11.661 1.568l-107.234 37.568c-3.669 1.167-7.070 3.059-9.997 5.564-2.931 2.505-5.325 5.572-7.044 9.020-1.724 3.447-2.735 7.205-2.974 11.050-0.243 3.845 0.286 7.7 1.562 11.336s3.264 6.98 5.854 9.833c2.59 2.853 5.726 5.157 9.22 6.776 3.499 1.619 7.283 2.521 11.136 2.65 3.849 0.13 7.689-0.514 11.285-1.894l43.998-15.424c-17.668 34.169-40.521 65.397-67.742 92.576-70.754 70.72-164.8 109.696-264.896 109.696s-194.177-38.976-264.897-109.696c-48.193-48.096-82.281-108.481-98.56-174.592-0.899-3.675-2.513-7.136-4.751-10.187s-5.053-5.632-8.288-7.595c-3.235-1.963-6.824-3.268-10.563-3.844s-7.555-0.41-11.23 0.491c-3.675 0.9-7.137 2.513-10.188 4.749-3.051 2.24-5.632 5.056-7.594 8.29s-3.269 6.823-3.844 10.562c-0.576 3.739-0.409 7.555 0.49 11.23 18.796 76.326 58.153 146.041 113.792 201.568 81.632 81.632 190.144 126.592 305.633 126.592 56.781 0.165 113.033-10.937 165.495-32.661s100.092-53.64 140.134-93.899c29.124-29.18 53.897-62.394 73.57-98.624l8.99 33.184c0.977 3.659 2.667 7.089 4.975 10.092 2.304 3.003 5.184 5.52 8.465 7.406 3.285 1.886 6.912 3.103 10.667 3.582zM512.009 194.24c139.904 0 253.76 113.826 253.76 253.76 0 139.936-113.856 253.76-253.76 253.76-139.935 0-253.759-113.824-253.759-253.76 0-139.934 113.824-253.76 253.759-253.76zM512.009 644.16c108.16 0 196.13-88 196.13-196.16s-87.97-196.16-196.13-196.16c-108.159 0-196.159 88-196.159 196.16s88 196.16 196.159 196.16zM505.468 419.904c24.572-5.594 31.142-11.738 32.333-12.847 0.047-0.043 0.085-0.077 0.115-0.107 0.051-0.047 0.085-0.073 0.098-0.073-0.29-9.024-21.568-14.784-43.874-16.158-1.306 7.070-5.21 13.393-10.944 17.732-5.734 4.335-12.885 6.374-20.041 5.709-7.159-0.666-13.811-3.985-18.645-9.306-4.838-5.321-7.509-12.258-7.488-19.447 0-14.37 5.696-27.746 16-37.73 8.158-7.902 18.846-12.702 30.046-14.144v-0.094c0-7.642 3.034-14.963 8.435-20.365s12.727-8.435 20.365-8.435c7.637 0 14.963 3.034 20.365 8.435s8.435 12.723 8.435 20.365v7.36c47.296 15.232 54.464 48.414 54.882 64.64 0.64 24.064-12.288 55.872-77.346 70.656-27.712 6.302-32.030 12.48-32.256 12.894 0.674 10.176 22.882 15.010 43.52 16.29 1.31-7.070 5.214-13.397 10.944-17.732 5.734-4.339 12.885-6.374 20.045-5.709s13.807 3.985 18.645 9.306c4.834 5.321 7.505 12.258 7.488 19.447 0 14.174-5.888 27.999-16.064 37.823-8.201 7.765-18.679 12.69-29.888 14.048v0.128c0 7.638-3.038 14.964-8.435 20.364-5.402 5.401-12.727 8.436-20.365 8.436-7.642 0-14.963-3.034-20.365-8.436s-8.435-12.726-8.435-20.364v-7.456c-43.392-13.984-53.282-43.135-54.592-62.241-2.401-36.224 23.488-60.8 77.022-72.99z" />
<glyph unicode="&#xe923;" glyph-name="double-order" d="M869.449 782.656h-595.52c-31.646-0.034-61.986-12.62-84.363-34.997s-34.963-52.717-34.997-84.363v-0.224h-0.064c-31.629-0.034-61.953-12.614-84.318-34.979s-34.944-52.689-34.978-84.317v-311.102c0.034-31.633 12.612-61.961 34.977-84.331s52.687-34.957 84.32-34.999h595.52c31.637 0.034 61.969 12.617 84.339 34.987 22.37 22.374 34.953 52.706 34.987 84.343v0.256h0.098c31.642 0.030 61.973 12.612 84.352 34.982 22.374 22.37 34.965 52.702 35.008 84.343v311.040c-0.034 31.645-12.621 61.986-34.999 84.363-22.374 22.377-52.715 34.963-84.361 34.997zM811.721 232.674c-0.009-16.367-6.511-32.055-18.078-43.631-11.567-11.571-27.255-18.082-43.618-18.099h-595.52c-16.364 0.017-32.051 6.528-43.619 18.099-11.567 11.575-18.069 27.264-18.077 43.631v311.102c0.017 16.358 6.522 32.040 18.089 43.607s27.249 18.072 43.607 18.089h595.52c16.358-0.017 32.038-6.523 43.605-18.089s18.074-27.249 18.091-43.607v-311.102zM931.209 352.256c0-34.048-27.682-61.76-61.76-61.76h-0.098v253.28c-0.038 31.632-12.625 61.955-34.995 84.32s-52.698 34.942-84.331 34.976l-537.856 0.224c0 34.048 27.712 61.76 61.76 61.76h595.52c34.048 0 61.76-27.712 61.76-61.76v-311.040zM452.241 515.012c-69.919 0-126.783-56.866-126.783-126.784 0-69.922 56.864-126.784 126.783-126.784 69.922 0 126.818 56.862 126.818 126.784 0 69.918-56.896 126.784-126.818 126.784zM452.241 319.010c-38.143 0-69.215 31.040-69.215 69.218 0 38.174 31.040 69.214 69.215 69.214 38.178 0 69.218-31.040 69.218-69.214 0-38.178-31.040-69.218-69.218-69.218zM197.050 411.951c6.301 6.302 14.848 9.839 23.759 9.839s17.457-3.537 23.759-9.839c6.301-6.302 9.841-14.848 9.841-23.761 0-8.909-3.54-17.455-9.841-23.757s-14.848-9.843-23.759-9.843c-8.911 0-17.458 3.541-23.759 9.843s-9.841 14.848-9.841 23.757c0 8.913 3.54 17.459 9.841 23.761zM659.994 411.951c6.302 6.302 14.848 9.839 23.757 9.839 8.913 0 17.459-3.537 23.761-9.839s9.839-14.848 9.839-23.761c0-8.909-3.537-17.455-9.839-23.757s-14.848-9.843-23.761-9.843c-8.909 0-17.455 3.541-23.757 9.843s-9.843 14.848-9.843 23.757c0 8.913 3.541 17.459 9.843 23.761z" />
<glyph unicode="&#xe924;" glyph-name="revenue" d="M831.053 889.312h-304c-33.344-0.034-65.314-13.295-88.887-36.872-23.579-23.577-36.84-55.545-36.874-88.888v-121.632c0.034-33.343 13.295-65.311 36.874-88.888 23.573-23.577 55.543-36.838 88.887-36.872h304c33.344 0.034 65.31 13.295 88.887 36.872s36.838 55.545 36.873 88.888v121.6c-0.034 33.346-13.295 65.318-36.873 88.9-23.573 23.582-55.543 36.85-88.887 36.892zM899.213 641.92c0-37.6-30.592-68.16-68.16-68.16h-304c-18.074 0.017-35.401 7.203-48.179 19.983s-19.964 30.106-19.981 48.177v121.6c0 37.6 30.592 68.16 68.16 68.16h304c37.598 0 68.16-30.592 68.16-68.16v-121.6zM679.031 794.37c-50.526 0-91.648-41.12-91.648-91.648s41.122-91.616 91.648-91.616c50.53 0 91.648 41.088 91.648 91.616s-41.118 91.648-91.648 91.648zM679.031 668.674c-18.752 0-34.048 15.264-34.048 34.016s15.296 34.048 34.048 34.048c18.752 0 34.048-15.296 34.048-34.048s-15.296-34.016-34.048-34.016zM530.615 724.258c-2.897 0.112-5.786-0.362-8.491-1.393-2.709-1.031-5.184-2.598-7.27-4.608-2.091-2.009-3.75-4.419-4.885-7.086s-1.719-5.535-1.719-8.433c0-2.898 0.585-5.766 1.719-8.433s2.795-5.076 4.885-7.086c2.086-2.009 4.561-3.576 7.27-4.608 2.705-1.031 5.594-1.505 8.491-1.393 5.564 0.215 10.829 2.576 14.69 6.588s6.016 9.364 6.016 14.932c0 5.568-2.155 10.92-6.016 14.932s-9.126 6.374-14.69 6.588zM827.447 724.258c-2.897 0.112-5.786-0.362-8.491-1.393-2.709-1.031-5.184-2.598-7.27-4.608-2.091-2.009-3.75-4.419-4.885-7.086s-1.719-5.535-1.719-8.433c0-2.898 0.585-5.766 1.719-8.433s2.795-5.076 4.885-7.086c2.086-2.009 4.561-3.576 7.27-4.608 2.705-1.031 5.594-1.505 8.491-1.393 5.564 0.215 10.829 2.576 14.69 6.588s6.016 9.364 6.016 14.932c0 5.568-2.155 10.92-6.016 14.932s-9.126 6.374-14.69 6.588zM865.118 370.304c23.279-2.761 44.847-13.611 60.937-30.656l3.456-3.648c18.061-19.226 27.827-44.783 27.187-71.151s-11.639-51.426-30.609-69.747l-82.56-79.296c-28.164-27.059-63.147-45.961-101.218-54.686l-151.872-34.85c-33.31-7.603-67.951-7.219-101.086 1.122l-182.080 45.982c-3.232-37.248-34.208-66.688-72.288-66.688h-74.848c-24.638 0.026-48.26 9.826-65.682 27.247s-27.22 41.041-27.246 65.681v270.626c0.017 24.64 9.812 48.273 27.235 65.702 17.423 17.425 41.050 27.23 65.693 27.255h74.848c18.812-0.038 36.88-7.356 50.416-20.42s21.489-30.861 22.192-49.66l24.096 16.384c24.020 16.26 51.058 27.537 79.514 33.161s57.751 5.478 86.15-0.422l134.622-28.258c22.438-4.804 42.56-17.139 57.020-34.961 14.46-17.818 22.387-40.043 22.468-62.989 0-6.656-0.704-13.12-1.95-19.426l89.182 58.146c19.635 12.809 43.145 18.313 66.423 15.552zM245.813 68.783c2.873 2.876 4.491 6.767 4.499 10.833v310.656c-0.008 4.062-1.626 7.953-4.499 10.829-2.873 2.871-6.767 4.489-10.829 4.497h-74.848c-19.456 0-35.328-15.872-35.328-35.358v-270.626c0.017-9.365 3.744-18.342 10.366-24.96 6.621-6.622 15.598-10.351 24.962-10.368h74.848c4.062 0.009 7.956 1.626 10.829 4.497zM803.558 157.376l82.594 79.326c8.060 7.774 12.732 18.411 13.001 29.606s-3.883 22.050-11.563 30.204l-3.392 3.584c-6.822 7.228-15.97 11.831-25.843 13.001s-19.844-1.165-28.173-6.601l-114.014-74.338c-16.256-10.607-35.247-16.243-54.656-16.222h-142.946c-7.637 0-14.963 3.034-20.365 8.435-5.397 5.397-8.435 12.723-8.435 20.365 0 7.637 3.038 14.963 8.435 20.361 5.402 5.402 12.727 8.439 20.365 8.439h92.834c10.449 0.094 20.501 4.032 28.233 11.068 7.727 7.031 12.599 16.666 13.679 27.059 1.079 10.398-1.702 20.826-7.825 29.299-6.118 8.469-15.142 14.391-25.353 16.636l-134.622 28.258c-20.813 4.343-42.287 4.459-63.143 0.333-20.857-4.122-40.672-12.399-58.266-24.333l-56.192-38.208v-191.010l195.52-49.408c24.299-6.071 49.685-6.345 74.112-0.798l151.872 34.846c27.895 6.391 53.521 20.254 74.142 40.098z" />
<glyph unicode="&#xe925;" glyph-name="cart-upsells" d="M976.017 125.248l-97.344 404.002c-4.834 20.277-16.371 38.329-32.742 51.234s-36.621 19.905-57.468 19.87h-54.848v102.848c0 122.176-99.456 221.6-221.632 221.6-58.756-0.068-115.092-23.44-156.641-64.989s-64.922-97.883-64.989-156.643v-102.848h-54.848c-20.846 0.035-41.093-6.966-57.465-19.87s-27.908-30.956-32.743-51.236l-97.344-403.968c-4.477-18.347-4.705-37.474-0.668-55.923 4.038-18.453 12.234-35.738 23.964-50.539 11.636-14.869 26.515-26.889 43.502-35.136 16.986-8.243 35.632-12.501 54.514-12.446h685.439c18.884-0.055 37.53 4.203 54.515 12.446 16.986 8.247 31.868 20.267 43.503 35.136 11.738 14.797 19.938 32.085 23.974 50.534 4.036 18.453 3.806 37.581-0.678 55.927zM347.952 703.202c0.042 43.488 17.339 85.182 48.093 115.93s72.452 48.036 115.938 48.070c43.486-0.042 85.171-17.335 115.921-48.081 30.746-30.746 48.038-72.436 48.081-115.919v-102.848h-328.033v102.848zM907.473 54.4c-12.8-16.286-32.064-25.6-52.77-25.6h-685.439c-20.704 0-39.968 9.314-52.768 25.6-12.8 16.29-17.408 37.184-12.544 57.344l97.344 404.002c3.84 15.872 17.92 26.976 34.208 26.976h552.959c16.32 0 30.37-11.104 34.21-26.976l97.344-404.002c4.864-20.16 0.286-41.054-12.544-57.344zM509.282 480c-104.386 0-189.282-84.898-189.282-189.282s84.896-189.278 189.282-189.278c104.384 0 189.278 84.894 189.278 189.278s-84.894 189.282-189.278 189.282zM509.282 159.070c-72.61 0-131.65 59.072-131.65 131.648s59.074 131.652 131.65 131.652c72.572 0 131.678-59.042 131.678-131.652 0-72.606-59.072-131.648-131.678-131.648zM480.461 286.75l-3.298-3.294c-5.393-5.41-12.715-8.457-20.356-8.469-7.637-0.013-14.967 3.012-20.378 8.405s-8.457 12.715-8.469 20.352c-0.013 7.642 3.012 14.972 8.405 20.382l52.48 52.514c2.675 2.679 5.85 4.804 9.348 6.255s7.249 2.197 11.034 2.197c3.789 0 7.535-0.747 11.034-2.197s6.677-3.575 9.353-6.255l52.48-52.514c2.675-2.671 4.796-5.845 6.242-9.34 1.451-3.49 2.193-7.236 2.189-11.017-0.004-3.785-0.751-7.526-2.206-11.017-1.451-3.494-3.58-6.665-6.259-9.331-2.667-2.684-5.841-4.813-9.331-6.263-3.494-1.451-7.245-2.197-11.025-2.197-3.785 0.004-7.531 0.755-11.025 2.214-3.49 1.459-6.66 3.593-9.323 6.281l-3.294 3.294v-61.662c0-7.637-3.038-14.963-8.435-20.365-5.402-5.402-12.727-8.435-20.365-8.435-7.642 0-14.967 3.034-20.365 8.435-5.402 5.402-8.435 12.727-8.435 20.365v61.662z" />
<glyph unicode="&#xe926;" glyph-name="upsell-revenue" d="M53.333 448c0 253.013 205.653 458.667 458.667 458.667 17.493 0 32-14.507 32-32s-14.507-32-32-32c-217.6 0-394.667-177.067-394.667-394.667s177.067-394.667 394.667-394.667c217.6 0 394.667 177.067 394.667 394.667 0 17.493 14.507 32 32 32s32-14.507 32-32c0-253.013-205.653-458.667-458.667-458.667s-458.667 205.653-458.667 458.667zM512 224c-17.493 0-32 14.507-32 32v10.667h-3.413c-56.746 0-103.253 47.787-103.253 106.667 0 17.493 14.507 32 32 32s32-14.507 32-32c0-23.467 17.493-42.667 39.253-42.667h3.413v94.771l-42.667 14.882c-27.307 9.813-64 29.44-64 92.16 0 53.334 42.24 97.28 93.867 97.28h12.8v10.24c0 17.493 14.507 32 32 32s32-14.507 32-32v-10.24h3.413c56.747 0 103.253-47.787 103.253-106.667 0-17.493-14.507-32-32-32s-32 14.507-32 32c0 23.467-17.493 42.667-39.253 42.667h-3.413v-94.767l42.667-14.886c27.307-9.813 64-29.44 64-92.16 0-53.76-42.24-97.28-93.867-97.28h-12.8v-10.667c0-17.493-14.507-32-32-32zM480 565.76v-72.444l-21.76 7.59c-14.507 5.12-20.907 8.533-20.907 31.573 0 18.347 13.227 33.28 29.867 33.28h12.8zM544 330.667v72.444l21.76-7.59c14.507-5.12 20.907-8.533 20.907-31.573 0-18.347-13.227-33.28-29.867-33.28h-12.8zM938.667 672c-17.493 0-32 14.507-32 32v93.466l-158.741-158.743c-6.404-6.4-14.507-9.387-22.613-9.387s-16.213 2.987-22.613 9.387c-12.373 12.373-12.373 32.853 0 45.227l158.716 158.717h-93.414c-17.493 0-32 14.507-32 32s14.507 32 32 32h170.667c5.009 0 9.771-1.189 14.020-3.297 3.106-1.5 6.012-3.529 8.572-6.087 2.308-2.31 4.186-4.901 5.632-7.67 2.406-4.477 3.776-9.571 3.776-14.946v-170.667c0-17.493-14.507-32-32-32z" />
<glyph unicode="&#xe927;" d="M512.026 711.255l104.96-104.96c16.64-16.64 43.52-16.64 60.16 0s16.64 43.52 0 60.16l-135.253 135.68c-16.64 16.64-43.52 16.64-60.16 0l-135.252-135.68c-16.64-16.64-16.64-43.52 0-60.16s43.52-16.64 60.16 0l105.386 104.96z" />
<glyph unicode="&#xe928;" d="M407.015 289.707l104.96-104.96 105.387 104.533c16.64 16.64 43.52 16.64 60.16 0s16.64-43.52 0-60.16l-135.253-135.253c-16.64-16.64-43.52-16.64-60.16 0l-135.253 135.68c-16.64 16.64-16.64 43.52 0 60.16s43.52 16.64 60.16 0z" />
<glyph unicode="&#xe929;" d="M512.026 711.255l104.96-104.96c16.64-16.64 43.52-16.64 60.16 0s16.64 43.52 0 60.16l-135.253 135.68c-16.64 16.64-43.52 16.64-60.16 0l-135.252-135.68c-16.64-16.64-16.64-43.52 0-60.16s43.52-16.64 60.16 0l105.386 104.96z" />
<glyph unicode="&#xe92a;" d="M407.015 289.707l104.96-104.96 105.387 104.533c16.64 16.64 43.52 16.64 60.16 0s16.64-43.52 0-60.16l-135.253-135.253c-16.64-16.64-43.52-16.64-60.16 0l-135.253 135.68c-16.64 16.64-16.64 43.52 0 60.16s43.52 16.64 60.16 0z" />
<glyph unicode="&#xe92b;" glyph-name="unfold" d="M512.026 711.255l104.96-104.96c16.64-16.64 43.52-16.64 60.16 0s16.64 43.52 0 60.16l-135.253 135.68c-16.64 16.64-43.52 16.64-60.16 0l-135.252-135.68c-16.64-16.64-16.64-43.52 0-60.16s43.52-16.64 60.16 0l105.386 104.96zM407.015 289.707l104.96-104.96 105.387 104.533c16.64 16.64 43.52 16.64 60.16 0s16.64-43.52 0-60.16l-135.253-135.253c-16.64-16.64-43.52-16.64-60.16 0l-135.253 135.68c-16.64 16.64-16.64 43.52 0 60.16s43.52 16.64 60.16 0z" />
<glyph unicode="&#xe92c;" glyph-name="tick-circle" d="M53.333 448c0-253.013 205.653-458.667 458.667-458.667s458.667 205.653 458.667 458.667c0 253.013-205.653 458.667-458.667 458.667s-458.667-205.653-458.667-458.667zM117.333 448c0 217.6 177.067 394.667 394.667 394.667s394.667-177.067 394.667-394.667c0-217.6-177.067-394.667-394.667-394.667s-394.667 177.067-394.667 394.667zM428.817 304.64c5.973-5.973 14.080-9.387 22.613-9.387s16.64 3.413 22.613 9.387l241.92 241.921c12.373 12.373 12.373 32.853 0 45.226s-32.853 12.373-45.227 0l-219.307-219.308-98.132 98.133c-12.373 12.373-32.853 12.373-45.227 0s-12.373-32.853 0-45.227l120.745-120.747z" />
<glyph unicode="&#xe92d;" glyph-name="star" d="M749.218 64c-6.827-0.026-13.555 1.583-19.627 4.693l-217.6 113.92-217.602-113.92c-7.066-3.712-15.032-5.372-22.994-4.787-7.962 0.589-15.599 3.396-22.044 8.107-6.445 4.715-11.439 11.14-14.413 18.547s-3.812 15.501-2.416 23.36l42.667 240.213-175.787 170.667c-5.484 5.474-9.375 12.338-11.254 19.855s-1.676 15.404 0.588 22.813c2.473 7.583 7.022 14.321 13.131 19.449s13.533 8.442 21.429 9.564l243.2 35.413 107.095 218.88c3.49 7.214 8.947 13.297 15.74 17.554 6.788 4.257 14.643 6.514 22.66 6.514 8.013 0 15.868-2.257 22.66-6.514 6.788-4.257 12.245-10.341 15.74-17.554l108.373-218.453 243.2-35.413c7.893-1.123 15.317-4.436 21.427-9.564s10.658-11.866 13.133-19.449c2.261-7.41 2.466-15.297 0.585-22.813-1.877-7.517-5.769-14.381-11.251-19.855l-175.787-170.667 42.667-240.213c1.523-7.996 0.725-16.265-2.3-23.825s-8.149-14.097-14.767-18.842c-7.727-5.414-17.033-8.115-26.453-7.68v0z" />
<glyph unicode="&#xe92e;" glyph-name="settings" d="M622.080 16.64c8.96-2.133 17.92-3.413 26.88-3.413 17.92 0 35.413 4.693 51.627 13.653l73.813 42.24c26.453 14.933 45.227 39.253 52.907 68.693 8.107 29.013 3.84 59.733-11.093 85.76-12.8 21.76-15.787 41.387-8.533 53.76s25.6 19.627 50.773 19.627c62.293 0 113.067 50.773 113.067 113.067v75.093c0 62.292-50.773 113.065-113.067 113.065-25.173 0-43.52 7.253-50.773 19.627s-3.84 32 8.533 53.76c14.933 26.027 18.773 56.32 11.093 85.76-8.107 29.44-26.88 53.76-52.907 68.693l-73.387 42.24c-48.64 29.013-112.213 12.373-141.227-37.12l-4.693-8.107c-25.173-43.52-59.733-43.52-84.907 0l-5.12 8.533c-29.013 49.067-92.587 65.707-140.8 37.12l-73.813-42.24c-26.453-14.933-45.227-39.253-52.907-68.693-7.68-29.013-3.84-59.733 11.093-85.76 12.8-21.76 15.787-41.387 8.533-53.76s-25.6-19.627-50.773-19.627c-62.293 0-113.067-50.773-113.067-113.065v-75.093c0-62.293 50.773-113.067 113.067-113.067 25.173 0 43.52-7.253 50.773-19.627s3.84-32-8.533-53.76c-14.933-26.027-18.773-56.32-11.093-85.76 8.107-29.44 26.88-53.76 52.907-68.693l73.387-42.24c23.467-14.080 51.2-17.92 78.080-10.667 26.453 6.827 48.64 23.893 62.72 47.787l4.693 8.107c25.173 43.52 59.733 43.52 84.907 0l5.12-8.533c14.080-23.467 36.267-40.107 62.72-47.36zM609.707 104.96c-24.32 42.24-59.733 66.133-97.707 66.133s-73.387-24.32-97.707-66.133l-4.693-8.107c-5.547-8.96-14.080-15.787-24.32-18.347-9.813-2.56-20.48-1.28-29.44 4.267l-73.813 42.24c-11.093 6.827-19.2 17.067-22.613 29.867s-1.707 26.027 4.693 37.12c24.32 41.813 27.307 84.907 8.533 117.76s-57.6 51.627-106.24 51.627c-27.307 0-49.067 22.187-49.067 49.067v75.093c0 27.307 21.76 49.065 49.067 49.065 48.64 0 87.467 18.773 106.24 51.627s15.787 75.947-8.533 117.76c-6.4 11.093-8.107 24.32-4.693 37.12s11.947 23.467 23.040 29.867l73.813 42.667c18.347 10.667 42.24 4.267 52.907-13.653l4.693-8.533c24.32-42.24 59.733-66.133 97.707-66.133s73.387 23.893 97.707 66.133l4.693 8.107c11.093 18.773 35.413 25.173 53.76 14.080l73.813-42.24c11.093-6.827 19.2-17.067 22.613-29.867s1.707-26.027-4.693-37.12c-24.32-41.813-27.307-84.907-8.533-117.76s57.6-51.627 106.24-51.627c27.307 0 49.067-22.185 49.067-49.065v-75.093c0-27.307-21.76-49.067-49.067-49.067-48.64 0-87.467-18.773-106.24-51.627s-15.787-75.947 8.533-117.76c6.4-11.093 8.107-24.32 4.693-37.12s-11.947-23.467-23.040-29.867l-73.813-42.667c-8.533-5.12-18.773-6.4-29.013-3.84s-18.773 8.96-23.893 17.92l-4.693 8.107zM352 448c0-88.32 71.68-160 160-160s160 71.68 160 160c0 88.32-71.68 160-160 160s-160-71.68-160-160zM416 448c0 52.907 43.093 96 96 96s96-43.093 96-96c0-52.907-43.093-96-96-96s-96 43.093-96 96z" />
<glyph unicode="&#xe92f;" glyph-name="search" d="M53.333 469.333c0-241.067 196.267-437.333 437.333-437.333s437.333 196.267 437.333 437.333c0 241.067-196.267 437.333-437.333 437.333s-437.333-196.267-437.333-437.333zM117.333 469.333c0 205.653 167.253 373.333 373.333 373.333s373.333-167.68 373.333-373.333c0-205.653-167.253-373.333-373.333-373.333s-373.333 167.68-373.333 373.333zM916.070-1.276c6.4-6.4 14.507-9.387 22.613-9.387s16.213 2.987 22.613 9.387c12.373 12.373 12.373 32.853 0 45.227l-85.333 85.333c-12.373 12.373-32.853 12.373-45.227 0s-12.373-32.853 0-45.227l85.333-85.333z" />
<glyph unicode="&#xe930;" glyph-name="save" d="M597.333 672c88.034 0 110.016 42.992 115.507 81.764 100.134-11.986 151.159-56.913 151.159-220.435v-256c0-157.867-31.147-224-224-224h-256c-192.853 0-224 66.133-224 224v256c0 164.031 51.345 208.728 152.099 220.546 14.047-81.875 78.237-81.875 114.568-81.875h170.667zM650.667 787.083c-0.017-40.385-0.96-51.083-53.333-51.083h-170.667c-41.556 0-52.966 0-53.324 50.783 0.041 0.978 0.039 1.969-0.009 2.97 0.058 52.914 11.204 52.914 53.333 52.914h170.667c42.018 0 53.218 0 53.333-52.501-0.051-1.036-0.051-2.064 0-3.083zM712.905 818.157c-11.652 88.51-78.285 88.51-115.571 88.51h-170.667c-37.337 0-104.101 0-115.619-88.873-152.432-16.532-215.048-100.974-215.048-284.465v-256c0-177.92 48.213-288 288-288h256c239.787 0 288 110.080 288 288.427v256.002c0 183.106-62.63 267.523-215.095 284.399zM461.227 236.8c-8.107 0-16.213 2.987-22.613 9.387l-64 64c-12.373 12.373-12.373 32.853 0 45.227s32.853 12.373 45.227 0l41.387-41.387 148.053 148.053c12.373 12.373 32.853 12.373 45.227 0s12.373-32.853 0-45.227l-170.667-170.667c-5.973-6.4-14.507-9.387-22.613-9.387z" />
<glyph unicode="&#xe931;" glyph-name="rules" d="M53.333 736c0 94.293 76.373 170.667 170.667 170.667s170.667-76.373 170.667-170.667c0-83.841-60.38-153.515-140.050-167.931 20.839-53.833 72.605-90.202 131.501-90.202l148.052 0.427c113.664 0 215.851-67.004 261.739-169.634 4.86 0.448 9.783 0.674 14.758 0.674 88.32 0 160-71.68 160-160s-71.68-160-160-160c-88.32 0-160 71.68-160 160 0 60.745 33.907 113.613 83.81 140.71-37.082 75.563-114.338 124.676-200.307 124.676l-148.052-0.427c-53.83 0-103.694 20.958-140.784 56.017v-164.181c73.003-14.839 128-79.433 128-156.796 0-88.32-71.68-160-160-160s-160 71.68-160 160c0 77.363 54.997 141.956 128 156.796v264.576c-73.63 18.934-128 85.736-128 165.295zM213.333 245.333c-52.907 0-96-43.093-96-96s43.093-96 96-96c52.907 0 96 43.093 96 96s-43.093 96-96 96zM224 842.667c-58.88 0-106.667-47.787-106.667-106.667s47.787-106.667 106.667-106.667c58.88 0 106.667 47.787 106.667 106.667s-47.787 106.667-106.667 106.667zM810.667 245.333c-52.907 0-96-43.093-96-96s43.093-96 96-96c52.907 0 96 43.093 96 96s-43.093 96-96 96z" />
<glyph unicode="&#xe932;" glyph-name="reset" d="M502 919.8c-63.6-7.8-109.4-21.2-163-47.8-51.2-25.2-84.2-49-126.2-91-33.2-33.2-64-75.4-83.8-114.8-4-8-8-14-8.8-13s-13 25.8-27.2 55l-25.6 53.4-30.4-14.6c-16.8-8-32-15.4-33.8-16.4-2.6-1.4 5-18.6 51.8-115.6 34.8-72.4 56-114 57.8-114 4.8 0 227.2 107.8 227.2 110.2 0 3-29.8 63.6-31.6 64.4-1 0.2-27.6-12-59.6-27.4-31.8-15.2-58.2-27.4-58.6-27-1.6 1.4 27.2 49 40.6 66.8 49 65.6 118.4 115 196.6 140 56.8 18.2 131.8 23.8 187.4 13.8 173.6-30.8 303.8-164 330.2-338 4.4-27.6 4.4-84 0-111.6-18.2-119.4-85-221-187.2-284.4-41-25.4-92-44.6-142.8-53.6-42-7.6-99-6.4-144.4 2.8-90 18.2-175.2 69.8-230.6 139.8-10.2 13-17.6 20.4-19 19.6-1.2-0.8-15-10.4-30.4-21.4l-28.2-19.8 6.2-9c13.2-18.4 43.8-52.2 61.8-68.2 35.8-32 69.6-54.8 110.6-75 44.4-21.8 90.6-36.4 141-44.2 32.2-5.2 103.8-5.2 136-0.2 29 4.6 69.8 15 95.2 24.4 46.4 17 101.8 49 138.4 79.6 19.6 16.6 53 50.4 67.4 68.4 41.8 52 73.6 115.6 90 179.8 10.8 43 13.8 68.4 13.8 117.2s-3 74.2-13.8 117.2c-16.4 64.2-48.2 127.8-90 179.8-14.4 18-47.8 51.8-67.4 68.4-36.6 30.6-92 62.6-138.4 79.6-24.8 9.2-65.8 19.8-93.2 24-24.8 3.8-96 5.6-118 2.8z" />
<glyph unicode="&#xe933;" glyph-name="reports" d="M53.333 320c0-231.68 98.987-330.667 330.667-330.667h256c231.68 0 330.667 98.987 330.667 330.667v256c0 231.68-98.987 330.667-330.667 330.667h-256c-231.68 0-330.667-98.987-330.667-330.667v-256zM117.333 576c0 196.693 69.973 266.667 266.667 266.667h256c196.693 0 266.667-69.973 266.667-266.667v-256c0-196.693-69.973-266.667-266.667-266.667h-256c-196.693 0-266.667 69.973-266.667 266.667v256zM480 290.987c0-17.493 14.507-32 32-32s32 14.507 32 32v285.013c0 17.493-14.507 32-32 32s-32-14.507-32-32v-285.013zM266.667 365.227c0-17.493 14.507-32 32-32s32 14.080 32 32v136.96c0 17.493-14.507 32.001-32 32.001s-32-14.508-32-32.001v-136.96zM725.333 333.227c-17.493 0-32 14.507-32 32v136.96c0 17.493 14.507 32.001 32 32.001s32-14.508 32-32.001v-136.96c0-17.92-14.507-32-32-32z" />
<glyph unicode="&#xe934;" glyph-name="radio-unchecked" d="M512-10.667c-253.013 0-458.667 205.653-458.667 458.667s205.653 458.667 458.667 458.667c253.013 0 458.667-205.653 458.667-458.667s-205.653-458.667-458.667-458.667zM512 842.667c-217.6 0-394.667-177.067-394.667-394.667s177.067-394.667 394.667-394.667c217.6 0 394.667 177.067 394.667 394.667s-177.067 394.667-394.667 394.667z" />
<glyph unicode="&#xe935;" glyph-name="radio-checked" d="M512 874.667c-235.093 0-426.667-191.573-426.667-426.667s191.573-426.667 426.667-426.667c235.093 0 426.667 191.573 426.667 426.667s-191.573 426.667-426.667 426.667zM715.947 546.133l-241.92-241.92c-5.973-5.973-14.080-9.387-22.613-9.387s-16.64 3.413-22.613 9.387l-120.747 120.747c-12.373 12.373-12.373 32.853 0 45.227s32.853 12.373 45.227 0l98.133-98.133 219.307 219.307c12.373 12.373 32.853 12.373 45.227 0s12.373-32.427 0-45.227z" />
<glyph unicode="&#xe936;" glyph-name="product" d="M511.991 392.533c-5.547 0-11.093 1.28-16.213 4.267l-376.745 218.026c-15.36 8.96-20.481 28.588-11.521 43.948s28.16 20.481 43.947 11.521l360.532-208.641 358.4 207.36c15.36 8.96 34.987 3.412 43.947-11.521 8.96-15.36 3.413-34.985-11.52-43.945l-374.182-216.747c-5.547-2.56-11.098-4.267-16.644-4.267zM512 5.973c-17.493 0-32 14.507-32 32v386.987c0 17.493 14.507 32 32 32s32-14.507 32-32v-386.987c0-17.493-14.507-32-32-32zM512.004-10.667c-37.547 0-74.667 8.107-104.106 24.32l-227.84 126.72c-61.867 34.133-110.079 116.48-110.079 187.307v241.068c0 70.827 48.212 152.745 110.079 187.305l227.84 126.294c58.452 32.427 149.759 32.427 208.212 0l227.84-126.719c61.867-34.133 110.080-116.481 110.080-187.308v-241.067c0-70.827-48.213-152.747-110.080-187.307l-227.84-126.293c-29.44-16.213-66.56-24.32-104.107-24.32zM512.004 842.667c-26.88 0-53.333-5.547-72.96-16.214l-227.839-126.719c-40.96-23.040-77.226-84.054-77.226-131.414v-241.067c0-46.933 36.266-108.373 77.226-131.413l227.839-126.72c38.827-21.76 107.093-21.76 145.92 0l227.84 126.72c40.96 23.040 77.227 84.053 77.227 131.413v241.067c0 46.933-36.267 108.374-77.227 131.414l-227.84 126.719c-19.627 10.667-46.080 16.214-72.96 16.214zM693.342 532.476l-389.121 224.428c-15.36 8.96-20.481 28.588-11.521 43.521 8.96 15.36 28.161 20.481 43.521 11.521l404.908-233.815-47.787-45.655z" />
<glyph unicode="&#xe937;" glyph-name="purchased" d="M198.822 742.403l154.88 154.88c12.373 12.373 32.853 12.373 45.227 0s12.373-32.853 0-45.227l-109.66-109.66h445.464l-109.662 109.66c-12.373 12.373-12.373 32.853 0 45.227s32.853 12.373 45.227 0l154.88-154.88 18.769-0.007c40.96 0 126.72 0 126.72-117.333 0-44.373-8.96-73.813-28.587-93.013-11.49-11.49-25.045-17.604-39.292-20.826l-68.663-357.623c-16.64-86.613-44.373-164.267-198.827-164.267h-257.282c-152.747 0-186.88 90.88-200.107 169.813l-57.4 352.141c-13.958 3.285-27.257 9.429-38.589 20.762-19.627 19.2-28.587 49.067-28.587 93.013 0 117.333 85.76 117.333 126.72 117.333l18.768 0.007zM837.022 507.729h-651.112l55.146-337.916c12.373-75.52 37.973-116.48 136.96-116.48h257.282c109.653 0 122.027 38.4 136.107 112.64l65.617 341.756zM474.436 181.333c-8.107 0-16.213 2.987-22.613 9.387l-64.001 64c-12.373 12.373-12.373 32.853 0 45.227s32.853 12.373 45.228 0l42.24-42.24 116.053 107.093c12.8 11.947 33.28 11.093 45.227-1.707s11.093-33.28-1.707-45.227l-138.667-128c-5.973-5.547-13.653-8.533-21.76-8.533zM180.053 571.729h673.707c19.2-0.427 37.12-0.427 43.093 5.547 2.987 2.987 9.387 13.227 9.387 47.787 0 48.213-11.947 53.333-62.72 53.333h-663.467c-50.773 0-62.72-5.12-62.72-53.333 0-34.56 6.827-44.8 9.387-47.787 5.973-5.547 24.32-5.547 43.093-5.547h10.24z" />
<glyph unicode="&#xe938;" glyph-name="product1" d="M512.026-10.667c-37.547 0-74.667 8.107-104.106 24.32l-227.84 126.72c-61.867 34.133-110.080 116.48-110.080 187.307v241.068c0 70.827 48.213 152.745 110.080 187.305l227.84 126.294c58.453 32.427 149.76 32.427 208.213 0l227.84-126.719c61.867-34.133 110.080-116.481 110.080-187.308v-241.067c0-70.827-48.213-152.747-110.080-187.307l-227.84-126.293c-29.44-16.213-66.56-24.32-104.107-24.32zM512.026 842.667c-26.88 0-53.333-5.547-72.96-16.214l-65.164-36.243 353.334-204.035 128.107 74.118c-12.39 16.699-27.123 30.782-42.517 39.441l-227.84 126.719c-19.627 10.667-46.080 16.214-72.96 16.214zM693.385 492.22v-97.126c0-17.493 14.507-32 32-32s32 14.502 32 31.142v135.053l127.13 73.641c3.558-11.878 5.538-23.64 5.538-34.609v-241.067c0-47.36-36.267-108.373-77.227-131.413l-227.84-126.72c-11.567-6.481-25.749-11.034-40.986-13.653v350.221l149.385 86.532zM663.859 549.506l-151.846-87.852-343.346 198.696c12.401 16.671 27.148 30.717 42.56 39.386l97.824 54.408 354.808-204.637zM480 405.943l-340.495 197.047c-3.537-11.863-5.506-23.637-5.506-34.67v-241.067c0-46.933 36.267-108.373 77.227-131.413l227.839-126.72c11.554-6.477 25.715-11.025 40.934-13.645v350.468z" />
<glyph unicode="&#xe939;" glyph-name="notification" d="M513.263 909.656c-43.674 0-82.53-23.736-102.675-61.015-108.44-41.364-185.74-146.493-185.74-269.225v-123.306c0-20.053-9.387-54.187-19.627-71.253l-49.067-81.493c-19.627-32.427-23.893-68.693-11.52-101.547 11.947-32.853 39.253-58.027 75.093-70.4 46.082-15.433 93.388-27.089 141.318-34.982 7.821-23.441 21.024-45.035 38.721-62.733 29.865-29.867 70.825-46.933 113.065-46.933 70.75 0 130.82 45.995 151.923 109.696 47.821 7.889 94.963 19.537 140.787 34.953 33.707 11.093 60.587 36.693 72.96 70.4s8.96 70.827-9.387 101.547l-48.64 81.067c-10.24 17.493-19.627 52.053-19.627 71.68v123.306c0 122.31-76.77 227.137-184.623 268.796-20.062 37.83-59.081 61.444-102.963 61.444zM587.942 87.066c-24.973-2.005-50.035-3.008-75.093-3.008-25.062 0-50.125 1.003-75.102 3.008 2.253-2.842 4.668-5.559 7.245-8.137 17.92-17.92 42.667-28.16 67.84-28.16 30.366 0 57.502 14.199 75.11 36.297zM288.848 579.417c0 112.55 83.315 205.684 191.178 221.6 20.634 2.723 41.924 2.82 63.689 0.292 109.12-15.033 193.135-108.631 193.135-221.892v-122.879c0-31.147 12.373-76.8 28.587-104.533l49.067-81.493c8.533-14.080 9.813-30.72 4.267-46.080s-17.493-26.88-32.853-32c-178.347-59.733-367.361-59.733-545.708 0-17.493 5.973-30.293 17.067-35.413 31.573-5.547 14.080-2.987 30.72 6.4 46.507l49.067 81.493c15.787 26.88 28.587 72.96 28.587 104.107v123.306z" />
<glyph unicode="&#xe93a;" glyph-name="more" d="M213.333 330.667c-64.853 0-117.333 52.48-117.333 117.333s52.48 117.333 117.333 117.333c64.853 0 117.333-52.48 117.333-117.333s-52.48-117.333-117.333-117.333zM213.333 501.333c-29.44 0-53.333-23.893-53.333-53.333s23.893-53.333 53.333-53.333c29.44 0 53.333 23.893 53.333 53.333s-23.893 53.333-53.333 53.333zM810.667 330.667c-64.853 0-117.333 52.48-117.333 117.333s52.48 117.333 117.333 117.333c64.853 0 117.333-52.48 117.333-117.333s-52.48-117.333-117.333-117.333zM810.667 501.333c-29.44 0-53.333-23.893-53.333-53.333s23.893-53.333 53.333-53.333c29.44 0 53.333 23.893 53.333 53.333s-23.893 53.333-53.333 53.333zM394.667 448c0-64.853 52.48-117.333 117.333-117.333s117.333 52.48 117.333 117.333c0 64.853-52.48 117.333-117.333 117.333s-117.333-52.48-117.333-117.333zM458.667 448c0 29.44 23.893 53.333 53.333 53.333s53.333-23.893 53.333-53.333c0-29.44-23.893-53.333-53.333-53.333s-53.333 23.893-53.333 53.333z" />
<glyph unicode="&#xe93b;" glyph-name="money" d="M635.315 182.613c1.907 0 3.806 0.017 5.692 0.047 136.269 2.001 214.464 81.937 214.464 219.691v227.415c43.093-23.467 64-68.266 64-135.678v-219.738c0-104.96-50.773-155.729-155.733-155.729h-375.041c-28.587 0-53.332 3.836-73.812 11.516-28.16 10.24-48.64 27.738-62.293 52.484l382.724-0.009zM164.275 198.4c-56.747 21.333-123.733 73.813-123.733 204.373v219.735c0 139.52 80.213 219.732 219.733 219.732h375.040c110.174 0 183.744-49.295 209.54-139.501 89.37-26.472 138.189-99.81 138.189-208.65v-219.738c0-139.947-79.787-219.729-219.733-219.729h-375.040c-36.267 0-68.694 5.12-96.427 15.787-56.364 21.086-95.156 63.194-112.657 122.914-4.82 1.438-9.829 3.149-14.911 5.077zM786.778 670.3c-0.282 1.409-0.469 2.818-0.559 4.22-15.676 69.377-64.905 102.865-150.477 102.865h-375.041c-104.96 0-155.733-50.772-155.733-155.732v-219.734c0-76.373 26.881-123.307 81.921-144.213 6.845-2.398 13.416-4.241 19.712-5.538 1.96-0.102 3.93-0.388 5.885-0.853 14.080-2.987 29.866-4.693 47.786-4.693h375.040c104.96 0 155.733 50.769 155.733 155.729v219.736c0 17.92-1.28 33.707-4.267 48.213zM303.334 512.004c0-79.787 64.854-144.64 144.641-144.64s144.64 64.853 144.64 144.64c0 79.788-64.853 144.642-144.64 144.642s-144.641-64.854-144.641-144.642zM367.334 512.004c0 44.374 36.267 80.642 80.641 80.642s80.64-36.268 80.64-80.642c0-44.373-36.267-80.64-80.64-80.64s-80.641 36.267-80.641 80.64zM203.958 386.129c17.92 0 32 14.507 32 32v187.735c0 17.493-14.507 32-32 32s-32-14.507-32-32v-187.735c0-17.493 14.507-32 32-32zM659.627 418.129v187.735c0 17.493 14.507 32 32 32s32-14.507 32-32v-187.735c0-17.493-14.080-32-32-32-17.493 0-32 14.507-32 32z" />
<glyph unicode="&#xe93c;" glyph-name="mobile" d="M853.333 229.705c0-192.533-52.271-251.038-224.303-251.038h-234.059c-172.032 0-224.305 58.505-224.305 251.038v436.59c0 192.536 52.273 251.039 224.305 251.039h234.059c172.032 0 224.303-58.503 224.303-251.039v-436.59zM394.971 851.845c-139.654 0-165.79-29.688-165.79-185.551v-436.59c0-155.861 26.136-185.549 165.79-185.549h234.059c139.652 0 165.79 29.687 165.79 185.549v436.59c0 155.862-26.138 185.551-165.79 185.551h-234.059zM597.333 693.333h-170.667c-17.493 0-32 14.507-32 32s14.507 32 32 32h170.667c17.493 0 32-14.507 32-32s-14.507-32-32-32zM512 149.333c23.565 0 42.667 19.102 42.667 42.667s-19.102 42.667-42.667 42.667c-23.565 0-42.667-19.102-42.667-42.667s19.102-42.667 42.667-42.667z" />
<glyph unicode="&#xe93d;" glyph-name="campaigns" d="M503.057 453.12c-23.040 0-46.507 4.267-64.853 12.373l-251.734 111.787c-64 28.587-73.387 66.987-73.387 87.893s9.387 59.307 73.387 87.893l251.734 111.787c37.12 16.64 93.013 16.64 130.133 0l252.16-111.787c63.573-28.16 73.387-66.987 73.387-87.893s-9.387-59.307-73.387-87.893l-252.16-111.787c-18.773-8.533-41.813-12.373-65.28-12.373zM503.057 813.227c-14.507 0-28.587-2.133-38.827-6.827l-251.734-111.787c-26.027-11.947-35.413-23.893-35.413-29.44s9.387-17.92 34.987-29.44l251.734-111.787c20.48-8.96 57.6-8.96 78.080 0l252.16 111.787c26.027 11.52 35.413 23.893 35.413 29.44s-9.387 17.92-35.413 29.44l-251.733 111.787c-10.24 4.267-24.747 6.827-39.253 6.827zM512 230.827c-16.213 0-32.427 3.413-47.787 10.24l-289.707 128.853c-43.947 19.2-78.507 72.533-78.507 120.747 0 17.493 14.507 32 32 32s32-14.507 32-32c0-23.467 19.2-52.907 40.533-62.72l289.707-128.853c13.653-5.973 29.44-5.973 43.52 0l289.707 128.853c21.333 9.387 40.533 39.253 40.533 62.72 0 17.493 14.507 32 32 32s32-14.507 32-32c0-48.213-34.56-101.547-78.507-121.173l-289.707-128.853c-15.36-6.4-31.573-9.813-47.787-9.813zM464.213 27.733c15.36-6.827 31.573-10.24 47.787-10.24s32.427 3.413 47.787 9.813l289.707 128.853c47.787 21.333 78.507 68.693 78.507 121.173 0 17.493-14.507 32-32 32s-32-14.507-32-32c0-27.307-15.787-51.627-40.533-62.72l-289.707-128.853c-14.080-5.973-29.867-5.973-43.52 0l-289.707 128.853c-24.747 11.093-40.533 35.84-40.533 62.72 0 17.493-14.507 32.427-32 32.427s-32-14.507-32-32c0-52.48 30.72-99.84 78.507-121.173l289.707-128.853z" />
<glyph unicode="&#xe93e;" glyph-name="options" d="M938.667 181.333h-298.667c-17.493 0-32 14.507-32 32s14.507 32 32 32h298.667c17.493 0 32-14.507 32-32s-14.507-32-32-32zM213.333 181.333h-128c-17.493 0-32 14.507-32 32s14.507 32 32 32h128c17.493 0 32-14.507 32-32s-14.507-32-32-32zM938.667 650.667h-128c-17.493 0-32 14.507-32 32s14.507 32 32 32h128c17.493 0 32-14.507 32-32s-14.507-32-32-32zM384 650.667h-298.667c-17.493 0-32 14.507-32 32s14.507 32 32 32h298.667c17.493 0 32-14.507 32-32s-14.507-32-32-32zM554.667 53.333h-256c-73.387 0-117.333 43.947-117.333 117.333v85.333c0 73.387 43.947 117.333 117.333 117.333h256c73.387 0 117.333-43.947 117.333-117.333v-85.333c0-73.387-43.947-117.333-117.333-117.333zM298.667 309.333c-37.973 0-53.333-15.36-53.333-53.333v-85.333c0-37.973 15.36-53.333 53.333-53.333h256c37.973 0 53.333 15.36 53.333 53.333v85.333c0 37.973-15.36 53.333-53.333 53.333h-256zM725.333 522.667h-256c-73.387 0-117.333 43.947-117.333 117.333v85.333c0 73.387 43.947 117.333 117.333 117.333h256c73.387 0 117.333-43.947 117.333-117.333v-85.333c0-73.387-43.947-117.333-117.333-117.333zM469.333 778.667c-37.973 0-53.333-15.36-53.333-53.333v-85.333c0-37.973 15.36-53.333 53.333-53.333h256c37.973 0 53.333 15.36 53.333 53.333v85.333c0 37.973-15.36 53.333-53.333 53.333h-256z" />
<glyph unicode="&#xe93f;" glyph-name="image" d="M137.375 746.667c0-88.32 72.107-160 160-160 88.32 0 159.999 71.68 159.999 160s-71.679 160-159.999 160c-88.32 0-160-71.68-160-160zM201.375 746.667c0 52.907 43.093 96 96 96s96-43.093 96-96c0-52.907-43.093-96-96-96s-96 43.093-96 96zM238.501-10.667h544.855c62.72 0 120.747 31.142 154.88 84.476 34.56 52.484 40.533 118.191 15.787 175.791l-133.547 311.891c-27.307 63.147-68.267 98.987-116.053 101.547-48.213 2.133-92.587-29.013-125.867-89.173l-80.64-145.491c-14.507-26.027-34.133-41.387-55.467-43.093-21.335-2.133-43.095 10.24-61.868 33.28l-9.387 11.947c-33.28 41.387-77.227 62.72-120.32 58.027s-81.493-34.56-105.387-82.347l-73.387-147.2c-29.013-58.453-26.027-125.867 8.107-181.333s93.44-88.32 158.293-88.32zM257.701 424.107c1.707 0.427 3.413 0.427 5.12 0.427 20.053 0 40.533-11.947 58.453-35.413l9.387-11.947c32-40.107 75.093-60.587 117.335-57.173 42.24 3.84 81.067 31.573 105.813 75.947l80.64 145.491c20.48 36.267 46.507 57.6 66.56 56.32 21.76-0.853 44.373-24.32 60.587-62.72l133.547-311.895c16.64-38.396 12.8-80.209-10.24-115.196s-60.16-55.040-101.973-55.040h-544.428c-42.667 0-81.92 21.76-104.107 58.027s-24.32 81.067-5.12 119.036l73.387 147.204c14.080 27.733 33.707 44.8 55.040 46.933z" />
<glyph unicode="&#xe940;" glyph-name="sorting" d="M896 629.333h-768c-17.493 0-32 14.507-32 32s14.507 32 32 32h768c17.493 0 32-14.507 32-32s-14.507-32-32-32zM768 416h-512c-17.493 0-32 14.507-32 32s14.507 32 32 32h512c17.493 0 32-14.507 32-32s-14.507-32-32-32zM597.333 202.667h-170.667c-17.493 0-32 14.507-32 32s14.507 32 32 32h170.667c17.493 0 32-14.507 32-32s-14.507-32-32-32z" />
<glyph unicode="&#xe941;" glyph-name="usage-limit" d="M650.244-10.667h-276.481c-80.64 0-139.52 33.707-162.133 91.733-23.467 60.587-1.707 135.68 54.613 186.453l197.975 180.48-197.975 180.48c-56.32 50.773-78.080 125.867-54.613 186.453 22.613 58.453 81.493 91.733 162.133 91.733h276.481c80.64 0 139.52-33.707 162.133-91.733 23.467-60.587 1.707-135.68-54.613-186.453l-197.973-180.48 198.4-180.48c55.893-50.773 78.080-125.867 54.613-186.453-23.040-58.027-81.92-91.733-162.56-91.733zM512.004 404.907l-202.668-184.32c-35.84-32.853-51.627-80.64-37.973-116.053 12.8-32.853 49.067-51.2 102.4-51.2h276.481c53.333 0 89.6 17.92 102.4 51.2 13.653 35.413-1.707 83.2-37.973 116.053l-202.667 184.32zM373.763 842.667c-53.333 0-89.6-17.92-102.4-51.2-13.653-35.413 1.707-83.2 37.973-116.053l202.668-184.32 202.667 184.32c35.84 32.853 51.627 80.64 37.973 116.053-12.8 32.853-49.067 51.2-102.4 51.2h-276.481z" />
<glyph unicode="&#xe942;" glyph-name="help" d="M53.333 448c0 252.34 206.327 458.667 458.667 458.667s458.667-206.327 458.667-458.667c0-252.339-206.327-458.667-458.667-458.667s-458.667 206.327-458.667 458.667zM512 842.667c-216.994 0-394.667-177.673-394.667-394.667s177.673-394.667 394.667-394.667c216.994 0 394.667 177.673 394.667 394.667s-177.673 394.667-394.667 394.667zM377.583 558.365c0 72.4 62.464 126.438 134.4 126.438 71.94 0 134.4-54.037 134.4-126.438 0-55.542-39.044-84.346-65.455-100.986-25.092-15.983-36.945-28.117-36.945-48.631v-11.947c0-17.673-14.327-32-32-32s-32 14.327-32 32v11.947c0 56.836 39.949 85.662 66.633 102.656l0.132 0.085c24.175 15.223 35.635 27.377 35.635 46.877 0 32.276-28.834 62.438-70.4 62.438s-70.4-30.162-70.4-62.438c0-17.673-14.327-31.999-32-31.999s-32 14.326-32 31.999zM511.531 275.196c-17.673 0-32-14.327-32-32s14.327-32 32-32h0.922c17.673 0 32 14.327 32 32s-14.327 32-32 32h-0.922z" />
<glyph unicode="&#xe943;" glyph-name="filter-fills" d="M245.921 578.028l-39.825 41.915c-16.213 16.213-29.013 46.933-29.013 62.72v98.133c0 32.427 23.467 57.6 53.333 57.6h177.987l-162.483-260.368zM463.061 902.396c2.082 0.207 4.186 0.21 6.281 0h324.275c64.853 0 117.333-52.48 117.333-117.333v-93.867c0-44.8-26.88-95.573-52.053-120.747l-184.747-163.413c-17.92-14.933-32-47.787-32-74.24v-183.467c0-37.973-23.893-81.92-53.76-99.84l-58.88-37.973c-19.2-11.947-40.96-17.92-62.72-17.92-20.48 0-40.534 5.12-59.307 15.36-37.547 20.907-60.16 58.88-60.16 101.547v226.133c0 21.333-14.080 53.333-27.307 69.547l-159.573 168.96c-26.88 26.88-47.36 72.96-47.36 107.52v98.133c0 68.267 51.627 121.6 117.333 121.6h232.645zM483.627 838.396l-192.304-308.151 77.334-81.395c21.76-26.88 43.093-71.68 43.093-111.787v-226.133c0-27.733 19.2-41.387 27.307-45.653 17.92-9.813 39.68-9.813 56.32 0.427l59.307 37.973c11.947 7.253 23.893 30.293 23.893 45.653v183.467c0 45.653 22.187 96 54.187 122.88l182.613 161.707c14.507 14.507 32 49.067 32 74.24v93.44c0 29.44-23.893 53.333-53.333 53.333h-310.417z" />
<glyph unicode="&#xe944;" glyph-name="eye" d="M96.003 320c104.107-162.987 255.573-256.853 416.001-256.853 160 0 311.467 93.867 415.573 256.853 45.227 70.827 45.227 185.6 0 256.001-104.107 162.987-255.573 256.853-415.573 256.853s-311.468-93.867-416.001-256.853c-45.227-70.828-45.227-185.601 0-256.001zM150.19 541.441c92.16 144.64 224 227.413 361.814 227.413s269.653-82.773 361.813-227.413c32-49.921 32-136.961 0-186.881-92.16-144.64-224-227.413-361.813-227.413s-269.654 82.773-361.814 227.413c-32 49.92-32 136.96 0 186.881zM327.25 448c0-101.973 82.773-184.747 184.746-184.747s184.747 82.773 184.747 184.747c0 101.972-82.773 184.745-184.747 184.745s-184.746-82.773-184.746-184.745zM391.25 448c0 66.56 54.186 120.745 120.746 120.745s120.747-54.185 120.747-120.745c0-66.56-54.187-120.747-120.747-120.747s-120.746 54.187-120.746 120.747z" />
<glyph unicode="&#xe945;" glyph-name="edit-simple-fill" d="M157.783 85.598c17.493-16.64 41.813-25.6 67.84-25.6 4.376 0 8.576 0.35 12.939 0.717 2.444 0.205 4.937 0.41 7.541 0.563l137.387 23.467c26.027 4.267 59.305 22.187 77.225 41.387l350.293 370.773c87.467 92.588 84.907 183.894-7.68 271.361s-183.893 84.907-271.36-7.68l-350.292-370.774c-18.347-18.773-34.133-53.333-37.12-79.36l-15.787-138.24c-3.84-34.133 6.827-65.707 29.013-86.613zM578.475 717.492c29.013 30.72 57.6 51.2 90.453 51.2 26.453 0 55.893-13.653 90.027-46.507 77.227-72.533 58.027-124.587 5.12-180.907l-47.147-49.908c-91.861 15.59-165.086 85.495-185.246 176.534l46.793 49.588zM480.713 613.896l-252.53-267.604c-8.533-8.96-18.347-30.293-20.053-42.667l-15.787-138.24c-1.707-14.080 1.707-25.6 9.387-32.853s19.2-9.813 33.28-7.68l137.387 23.467c12.373 2.133 32.853 13.227 41.387 22.187l252.628 267.396c-85.551 27.042-154.146 91.977-185.698 175.995z" />
<glyph unicode="&#xe946;" glyph-name="edit-note-fills" d="M362.68 205.222c-26.027 0-49.92 9.387-67.413 26.453-20.907 20.907-29.867 51.2-25.173 83.2l18.347 128.427c3.413 24.747 19.627 56.747 37.12 74.24l284.944 284.946c1.941 2.647 4.292 5.014 6.997 6.999l44.271 44.27c84.907 84.907 171.093 84.907 256 0 46.507-46.507 67.413-93.867 63.147-141.227-3.84-38.4-24.32-75.947-63.147-114.347l-46.793-46.793c-0.951-1.093-1.971-2.111-3.051-3.051l-286.37-286.371c-17.493-17.493-49.493-33.707-74.24-37.12l-128.426-18.347c-5.547-1.28-11.093-1.28-16.213-1.28zM838.003 609.295l34.116 34.116c27.733 27.733 42.24 52.48 44.373 75.52 2.56 27.733-11.947 57.173-44.373 90.027-68.267 68.267-115.2 49.067-165.12-0.427l-34.334-34.333c27.546-76.549 88.7-137.555 165.338-164.903zM623.74 725.269c33.604-72.602 92.523-131.513 165.133-165.108l-252.966-252.966c-7.68-8.107-26.88-17.493-37.973-19.2l-128.426-18.347c-12.373-1.707-22.613 0.853-29.013 7.253s-8.96 16.64-7.253 29.013l18.347 128.427c1.707 11.093 11.093 29.867 19.2 37.973l252.953 252.954zM640-10.667h-256c-231.68 0-330.667 98.987-330.667 330.667v256c0 231.68 98.987 330.667 330.667 330.667h85.333c17.493 0 32-14.507 32-32s-14.507-32-32-32h-85.333c-196.693 0-266.667-69.973-266.667-266.667v-256c0-196.693 69.973-266.667 266.667-266.667h256c196.693 0 266.667 69.973 266.667 266.667v85.333c0 17.493 14.507 32 32 32s32-14.507 32-32v-85.333c0-231.68-98.987-330.667-330.667-330.667z" />
<glyph unicode="&#xe947;" glyph-name="down" d="M527.979 243.2c-29.867 0-59.733 11.52-82.347 34.133l-278.185 278.186c-12.373 12.373-12.373 32.853 0 45.227s32.853 12.373 45.227 0l278.185-278.186c20.48-20.48 53.76-20.48 74.24 0l278.187 278.186c12.373 12.373 32.853 12.373 45.227 0s12.373-32.853 0-45.227l-278.187-278.186c-22.613-22.613-52.48-34.133-82.347-34.133z" />
<glyph unicode="&#xe948;" glyph-name="discount" d="M441.173 18.773c18.773-19.2 43.947-29.44 70.827-29.44s52.053 10.24 70.827 29.44l64.853 64.853c5.12 5.12 18.773 10.667 25.6 10.667h92.16c55.467 0 100.267 44.804 100.267 100.271v92.156c0 6.827 5.547 20.48 10.667 25.6l64.853 64.853c19.2 18.773 29.44 43.947 29.44 70.827s-10.667 52.058-29.44 70.831l-64.853 64.853c-5.12 5.12-10.667 18.772-10.667 25.599v92.157c0 55.467-44.8 100.271-100.267 100.271h-92.16c-6.827 0-20.48 5.547-25.6 10.667l-64.853 64.854c-37.547 37.547-104.107 37.547-141.653 0l-64.853-64.854c-5.12-5.12-18.774-10.667-25.6-10.667h-92.16c-55.467 0-100.267-44.804-100.267-100.271v-92.157c0-6.827-5.547-20.479-10.667-25.599l-64.853-64.853c-19.2-18.773-29.44-43.951-29.44-70.831s10.667-52.053 29.44-70.827l64.853-64.853c5.12-5.12 10.667-18.773 10.667-25.6v-92.156c0-55.467 44.8-100.271 100.267-100.271h92.16c6.827 0 20.48-5.547 25.6-10.667l64.853-64.853zM222.293 286.72c0 23.893-12.373 53.76-29.44 70.827l-64.853 64.858c-6.827 6.827-10.667 15.782-10.667 25.596s3.84 18.773 10.667 25.6l64.853 64.855c17.067 17.067 29.44 46.935 29.44 70.828v92.157c0 20.053 16.214 36.271 36.267 36.271h92.16c23.893 0 53.76 12.371 70.827 29.437l64.853 64.854c13.653 13.653 37.547 13.653 51.2 0l64.853-64.854c17.067-17.067 46.933-29.437 70.827-29.437h92.16c20.053 0 36.267-16.217 36.267-36.271v-92.157c0-23.893 12.373-53.761 29.44-70.828l64.853-64.855c6.827-6.827 10.667-15.787 10.667-25.6s-3.84-18.769-10.667-25.596l-64.853-64.858c-17.067-17.067-29.44-46.933-29.44-70.827v-92.156c0-20.053-16.213-36.271-36.267-36.271h-92.16c-23.893 0-53.76-12.369-70.827-29.436l-64.853-64.858c-13.653-13.653-37.547-13.653-51.2 0l-64.853 64.858c-17.066 17.067-46.933 29.436-70.827 29.436h-92.16c-20.053 0-36.267 16.218-36.267 36.271v92.156zM596.915 320c0-23.467 19.2-42.667 43.093-42.667 23.467 0 42.24 19.2 42.24 42.667s-19.2 42.667-42.667 42.667c-23.467 0-42.667-19.2-42.667-42.667zM384.427 533.333c-23.893 0-43.094 19.2-43.094 42.667s19.2 42.667 42.667 42.667c23.467 0 42.667-19.2 42.667-42.667s-18.773-42.667-42.24-42.667zM361.363 297.387c6.4-6.4 14.507-9.387 22.613-9.387s16.213 2.987 22.613 9.387l256.002 256c12.373 12.373 12.373 32.856 0 45.229s-32.853 12.373-45.227 0l-256.002-255.998c-12.373-12.373-12.373-32.858 0-45.231z" />
<glyph unicode="&#xe949;" glyph-name="desktop" d="M544 193.28v-139.947h160c17.493 0 32-14.507 32-32s-14.507-32-32-32h-384c-17.493 0-32 14.507-32 32s14.507 32 32 32h160v139.947h-205.227c-165.847 0-218.964 49.242-221.355 209.737-0.057 0.764-0.085 1.536-0.085 2.317 0 0.516 0.013 1.033 0.038 1.545-0.026 2.586-0.038 5.201-0.038 7.842v270.507c0 169.813 51.627 221.44 221.44 221.44h474.027c169.813 0 221.44-51.627 221.44-221.44v-270.080c0.004-1.557 0.004-3.102 0-4.642 0.282-1.685 0.427-3.413 0.427-5.171 0-1.98-0.188-3.925-0.542-5.811-2.803-157.794-56.397-206.242-220.898-206.242h-205.227zM748.8 257.707c118.63 0 150.613 18.398 156.386 115.627h-786.799c5.77-97.229 37.756-115.627 156.386-115.627h474.027zM117.333 437.333h788.907v247.893c0 133.973-23.467 157.44-157.44 157.44h-474.027c-133.973 0-157.44-23.467-157.44-157.44v-247.893z" />
<glyph unicode="&#xe94a;" glyph-name="delete" d="M340.47 808.96l-9.12-54.301c-39.995-2.172-79.913-5.229-119.738-9.271l-87.040-8.533c-17.493-1.707-30.293-17.067-28.587-34.987s17.493-30.72 35.413-29.013l87.040 8.533c223.148 22.613 448.428 14.080 674.135-8.533h3.413c16.213 0 30.293 12.373 31.573 29.013 1.707 17.493-11.093 33.28-28.587 34.987-68.749 6.748-137.455 12.279-206.059 16.108l-0.017 0.104-9.429 55.717c-6.4 39.253-15.957 97.883-115.584 97.883h-111.787c-99.344 0-108.788-56.666-115.613-97.619l-0.015-0.088zM620.791 797.867l7.074-41.798c-77.214 3.046-154.261 3.733-231.051 1.367l7.229 40.858 0.064 0.384c6.342 37.629 7.342 43.563 52.417 43.563h111.787c45.227 0 46.507-7.253 52.48-44.373zM375.015-10.671h273.92c148.907 0 154.88 82.347 159.573 148.907l27.733 429.655c1.28 17.92-12.373 32.853-29.867 34.133-17.493 0.853-32.853-12.373-34.133-29.867l-27.733-429.654c-4.267-64.853-5.973-89.173-95.573-89.173h-273.92c-89.12 0-90.878 24.29-95.565 89.058l-0.009 0.115-27.733 429.654c-1.28 17.493-16.213 30.72-34.133 29.867-17.493-1.28-31.147-16.64-29.867-34.133l27.733-429.655c4.693-66.56 10.667-148.907 159.573-148.907zM582.831 224h-142.080c-17.494 0-32.001 14.507-32.001 32s14.507 32 32.001 32h142.080c17.493 0 32-14.507 32-32s-14.507-32-32-32zM405.333 394.667h213.333c17.493 0 32 14.507 32 32s-14.507 32-32 32h-213.333c-17.493 0-32-14.507-32-32s14.507-32 32-32z" />
<glyph unicode="&#xe94b;" glyph-name="dashboard" d="M671.147 373.333h172.373c85.333 0 127.147 39.68 127.147 121.6v290.133c0 81.92-41.387 121.6-127.147 121.6h-172.373c-85.333 0-127.147-39.68-127.147-121.6v-290.133c0-81.92 41.387-121.6 127.147-121.6zM608 785.067c0 43.093 8.96 57.6 63.147 57.6h172.373c54.187 0 63.147-14.507 63.147-57.6v-290.133c0-43.093-8.96-57.6-63.147-57.6h-172.373c-54.187 0-63.147 14.507-63.147 57.6v290.133zM671.147-10.667h172.373c85.333 0 127.147 39.68 127.147 121.6v76.8c0 81.92-41.387 121.6-127.147 121.6h-172.373c-85.333 0-127.147-39.68-127.147-121.6v-76.8c0-81.92 41.387-121.6 127.147-121.6zM608 187.733c0 43.093 8.96 57.6 63.147 57.6h172.373c54.187 0 63.147-14.507 63.147-57.6v-76.8c0-43.093-8.96-57.6-63.147-57.6h-172.373c-54.187 0-63.147 14.507-63.147 57.6v76.8zM352.853-10.667h-172.373c-85.76 0-127.147 39.68-127.147 121.6v290.133c0 81.92 41.813 121.6 127.147 121.6h172.373c85.76 0 127.147-39.68 127.147-121.6v-290.133c0-81.92-41.813-121.6-127.147-121.6zM180.48 458.667c-54.187 0-63.147-14.507-63.147-57.6v-290.133c0-43.093 8.96-57.6 63.147-57.6h172.373c54.187 0 63.147 14.507 63.147 57.6v290.133c0 43.093-8.96 57.6-63.147 57.6h-172.373zM180.48 586.667h172.373c85.333 0 127.147 39.68 127.147 121.6v76.8c0 81.92-41.387 121.6-127.147 121.6h-172.373c-85.333 0-127.147-39.68-127.147-121.6v-76.8c0-81.92 41.387-121.6 127.147-121.6zM117.333 785.067c0 43.093 8.96 57.6 63.147 57.6h172.373c54.187 0 63.147-14.507 63.147-57.6v-76.8c0-43.093-8.96-57.6-63.147-57.6h-172.373c-54.187 0-63.147 14.507-63.147 57.6v76.8z" />
<glyph unicode="&#xe94c;" glyph-name="currency" d="M725.333 74.667h-213.333c-17.493 0-32 14.507-32 32s14.507 32 32 32h213.333c122.027 0 181.333 59.307 181.333 181.333v256c0 122.027-59.307 181.333-181.333 181.333h-426.667c-122.027 0-181.333-59.307-181.333-181.333v-85.333c0-17.493-14.507-32-32-32s-32 14.507-32 32v85.333c0 155.733 89.6 245.333 245.333 245.333h426.667c155.733 0 245.333-89.6 245.333-245.333v-256c0-155.733-89.6-245.333-245.333-245.333zM512 309.333c-76.373 0-138.667 62.293-138.667 138.667s62.293 138.667 138.667 138.667c76.373 0 138.667-62.293 138.667-138.667s-62.293-138.667-138.667-138.667zM512 522.667c-40.96 0-74.667-33.707-74.667-74.667s33.707-74.667 74.667-74.667c40.96 0 74.667 33.707 74.667 74.667s-33.707 74.667-74.667 74.667zM757.333 341.333c0-17.493 14.507-32 32-32s32 14.507 32 32v213.333c0 17.493-14.507 32-32 32s-32-14.507-32-32v-213.333zM362.667 162.56c-17.493 0-32 14.507-32 32v54.613c0 9.387-7.679 17.493-17.492 17.493h-150.9c10.023-12.489 9.257-31.113-2.296-42.667-6.4-6.4-14.508-9.382-22.615-9.382s-16.212 2.982-22.612 9.382l-52.055 52.053c-3.182 3.183-5.546 6.899-7.092 10.88-1.464 3.644-2.272 7.607-2.272 11.733 0 4.1 0.797 8.038 2.243 11.661 1.545 4.006 3.918 7.753 7.12 10.957l52.055 52.049c12.373 12.373 32.853 12.373 45.227 0 11.555-11.554 12.319-30.178 2.294-42.667h150.903c44.8 0 81.492-36.693 81.492-81.493v-54.613c0-17.493-14.507-32-32-32zM285.688 41.382h-150.863c-44.8 0-81.492 36.693-81.492 81.493v54.613c0 17.493 14.507 32 32 32s32-14.507 32-32v-54.613c0-9.387 7.679-17.493 17.492-17.493h150.871c-10.027 12.489-9.263 31.117 2.292 42.671 12.373 12.373 32.853 12.373 45.226 0l52.055-52.053c2.587-2.586 4.634-5.53 6.139-8.674 2.083-4.228 3.258-8.964 3.258-13.943 0-5.111-1.239-9.971-3.431-14.289-1.487-3.012-3.476-5.828-5.966-8.32l-52.055-52.053c-5.973-6.4-14.505-9.387-22.612-9.387s-16.215 2.987-22.615 9.387c-11.552 11.554-12.319 30.174-2.301 42.662z" />
<glyph unicode="&#xe94d;" glyph-name="copy" d="M714.667 245.333v-14.933c0-166.827-74.24-241.067-241.067-241.067h-179.2c-166.827 0-241.067 74.24-241.067 241.067v179.2c0 166.827 74.24 241.067 241.067 241.067h14.933v14.933c0 166.827 74.24 241.067 241.067 241.067h179.2c166.827 0 241.067-74.24 241.067-241.067v-179.2c0-166.827-74.24-241.067-241.067-241.067h-14.933zM714.667 309.333h14.933c132.267 0 177.067 44.8 177.067 177.067v179.2c0 132.267-44.8 177.067-177.067 177.067h-179.2c-132.267 0-177.067-44.8-177.067-177.067v-14.933h100.267c166.827 0 241.067-74.24 241.067-241.067v-100.267zM341.333 586.667h-46.933c-132.267 0-177.067-44.8-177.067-177.067v-179.2c0-132.267 44.8-177.067 177.067-177.067h179.2c132.267 0 177.067 44.8 177.067 177.067v179.2c0 132.267-44.8 177.067-177.067 177.067h-132.267z" />
<glyph unicode="&#xe94e;" glyph-name="conversion" d="M689.067 416h115.2c113.493 0 166.4 52.907 166.4 166.4v157.867c0 113.493-52.907 166.4-166.4 166.4h-115.2c-113.493 0-166.4-52.907-166.4-166.4v-157.867c0-113.493 52.907-166.4 166.4-166.4zM586.667 740.267c0 78.507 23.893 102.4 102.4 102.4h115.2c78.507 0 102.4-23.893 102.4-102.4v-157.867c0-78.507-23.893-102.4-102.4-102.4h-115.2c-78.507 0-102.4 23.893-102.4 102.4v157.867zM219.733-10.667h115.2c113.493 0 166.4 52.907 166.4 166.4v157.867c0 113.493-52.907 166.4-166.4 166.4h-115.2c-113.493 0-166.4-52.907-166.4-166.4v-157.867c0-113.493 52.907-166.4 166.4-166.4zM117.333 313.6c0 78.507 23.893 102.4 102.4 102.4h115.2c78.507 0 102.4-23.893 102.4-102.4v-157.867c0-78.507-23.893-102.4-102.4-102.4h-115.2c-78.507 0-102.4 23.893-102.4 102.4v157.867zM640.009-10.667c-11.52 0-22.187 6.4-27.733 16.213s-5.547 22.187 0.427 32l44.8 74.667c8.96 15.36 28.587 20.053 43.947 11.093s20.053-28.587 11.093-43.947l-11.52-19.2c117.76 27.733 206.080 133.547 206.080 259.84 0 17.493 14.507 32 32 32s32-14.507 32-32c-0.427-182.187-148.907-330.667-331.093-330.667zM53.333 576c0-17.493 14.507-32 32-32s32 14.507 32 32c0 126.293 87.893 232.107 206.080 259.84l-11.52-19.2c-9.387-15.36-4.267-34.987 10.667-43.947 15.36-9.387 34.987-4.267 43.947 10.667l44.8 75.093c5.973 9.813 5.973 22.187 0.427 32s-16.213 16.213-27.733 16.213c-182.187 0-330.667-148.48-330.667-330.667z" />
<glyph unicode="&#xe94f;" glyph-name="close-circle" d="M512-10.667c-253.013 0-458.667 205.653-458.667 458.667s205.653 458.667 458.667 458.667c253.013 0 458.667-205.653 458.667-458.667s-205.653-458.667-458.667-458.667zM512 842.667c-217.6 0-394.667-177.067-394.667-394.667s177.067-394.667 394.667-394.667c217.6 0 394.667 177.067 394.667 394.667s-177.067 394.667-394.667 394.667zM391.268 295.253c-8.107 0-16.213 2.987-22.613 9.387-12.373 12.373-12.373 32.853 0 45.227l98.135 98.133-98.135 98.134c-12.373 12.373-12.373 32.853 0 45.226s32.853 12.373 45.227 0l98.135-98.134 98.133 98.134c12.373 12.373 32.853 12.373 45.227 0s12.373-32.853 0-45.226l-98.133-98.134 98.133-98.133c12.373-12.373 12.373-32.853 0-45.227-6.4-6.4-14.507-9.387-22.613-9.387s-16.213 2.987-22.613 9.387l-98.133 98.133-98.135-98.133c-5.973-6.4-14.507-9.387-22.613-9.387z" />
<glyph unicode="&#xe950;" glyph-name="close" d="M572.156 448.004l183.467 183.038c8.034 8.034 12.548 18.931 12.548 30.293s-4.514 22.259-12.548 30.293c-8.034 8.034-18.931 12.548-30.293 12.548s-22.259-4.514-30.293-12.548l-183.040-183.465-183.038 183.465c-8.034 8.034-18.931 12.548-30.293 12.548s-22.259-4.514-30.293-12.548c-8.034-8.035-12.548-18.931-12.548-30.293s4.514-22.259 12.548-30.293l183.465-183.038-183.465-183.040c-3.999-3.968-7.173-8.687-9.339-13.888-2.166-5.197-3.281-10.773-3.281-16.405 0-5.636 1.115-11.213 3.281-16.41 2.166-5.201 5.34-9.92 9.339-13.884 3.966-4.002 8.685-7.177 13.885-9.34 5.199-2.167 10.776-3.281 16.409-3.281s11.209 1.114 16.409 3.281c5.199 2.163 9.918 5.338 13.885 9.34l183.038 183.467 183.040-183.467c3.968-4.002 8.687-7.177 13.888-9.34 5.197-2.167 10.773-3.281 16.405-3.281 5.636 0 11.213 1.114 16.41 3.281 5.201 2.163 9.92 5.338 13.884 9.34 4.002 3.964 7.177 8.683 9.34 13.884 2.167 5.197 3.281 10.773 3.281 16.41 0 5.632-1.114 11.209-3.281 16.405-2.163 5.201-5.338 9.92-9.34 13.888l-183.467 183.040z" />
<glyph unicode="&#xe951;" glyph-name="clock" d="M53.333 448c0-253.013 205.653-458.667 458.667-458.667s458.667 205.653 458.667 458.667c0 253.013-205.653 458.667-458.667 458.667s-458.667-205.653-458.667-458.667zM117.333 448c0 217.6 177.067 394.667 394.667 394.667s394.667-177.067 394.667-394.667c0-217.6-177.067-394.667-394.667-394.667s-394.667 177.067-394.667 394.667zM654.063 285.013c5.12-3.413 10.667-4.693 16.213-4.693 10.667 0 21.333 5.547 27.733 15.787 8.96 15.36 4.267 34.987-11.093 43.947l-132.267 78.933c-13.227 7.68-26.027 30.293-26.027 45.653v174.933c0 17.493-14.507 32-32 32s-32-14.507-32-32v-174.933c0-37.973 24.32-81.067 57.173-100.693l132.267-78.933z" />
<glyph unicode="&#xe952;" glyph-name="chev-down" d="M764.574 610.985h-505.171c-40.96 0-61.44-49.493-32.427-78.509l221.011-221.013c35.413-35.413 93.013-35.413 128.427 0l221.013 221.013c28.587 29.015 8.107 78.509-32.853 78.509z" />
<glyph unicode="&#xe953;" glyph-name="checkbox-unchecked" d="M640-10.667h-256c-231.68 0-330.667 98.987-330.667 330.667v256c0 231.68 98.987 330.667 330.667 330.667h256c231.68 0 330.667-98.987 330.667-330.667v-256c0-231.68-98.987-330.667-330.667-330.667zM384 842.667c-196.693 0-266.667-69.973-266.667-266.667v-256c0-196.693 69.973-266.667 266.667-266.667h256c196.693 0 266.667 69.973 266.667 266.667v256c0 196.693-69.973 266.667-266.667 266.667h-256z" />
<glyph unicode="&#xe954;" glyph-name="youtube" d="M919.52 663.040c-8.16 45.040-47.040 77.84-92.16 88.080-67.52 14.32-192.48 24.56-327.68 24.56-135.12 0-262.080-10.24-329.68-24.56-45.040-10.24-84-40.96-92.16-88.080-8.24-51.2-16.4-122.88-16.4-215.040s8.16-163.84 18.4-215.040c8.24-45.040 47.12-77.84 92.16-88.080 71.68-14.32 194.56-24.56 329.76-24.56s258.080 10.24 329.76 24.56c45.040 10.24 83.92 40.96 92.16 88.080 8.16 51.2 18.4 124.96 20.48 215.040-4.16 92.16-14.4 163.84-24.64 215.040zM389.12 304.64v286.72l249.84-143.36z" />
<glyph unicode="&#xe955;" glyph-name="checkbox-checked" d="M690.773 874.667h-357.547c-155.307 0-247.893-92.587-247.893-247.893v-357.12c0-155.733 92.587-248.32 247.893-248.32h357.12c155.307 0 247.893 92.587 247.893 247.893v357.547c0.427 155.307-92.16 247.893-247.467 247.893zM715.947 546.133l-241.92-241.92c-5.973-5.973-14.080-9.387-22.613-9.387s-16.64 3.413-22.613 9.387l-120.747 120.747c-12.373 12.373-12.373 32.853 0 45.227s32.853 12.373 45.227 0l98.133-98.133 219.307 219.307c12.373 12.373 32.853 12.373 45.227 0s12.373-32.427 0-45.227z" />
<glyph unicode="&#xe956;" glyph-name="edit-simple" d="M144.556 310.451c2.987 26.027 18.773 60.587 37.12 79.36l291.574 308.624c0.439 0.491 0.892 0.969 1.357 1.434l57.361 60.717c87.467 92.587 178.773 95.147 271.36 7.68s95.147-178.773 7.68-271.361l-350.293-370.773c-17.92-19.2-51.199-37.12-77.225-41.387l-137.387-23.467c-2.604-0.154-5.098-0.358-7.541-0.563-4.362-0.367-8.563-0.717-12.939-0.717-26.027 0-50.347 8.96-67.84 25.6-22.187 20.907-32.853 52.48-29.013 86.613l15.787 138.24zM228.183 346.291c-8.533-8.96-18.347-30.293-20.053-42.667l-15.787-138.24c-1.707-14.080 1.707-25.6 9.387-32.853s19.2-9.813 33.28-7.68l137.387 23.467c12.373 2.133 32.853 13.227 41.387 22.187l252.624 267.392c-14.69 4.642-28.877 10.402-42.466 17.182-51.947 25.924-95.1 66.782-123.78 117.255-7.514 13.221-14.033 27.101-19.46 41.546l-252.517-267.589zM758.955 722.185c-34.133 32.853-63.573 46.507-90.027 46.507-32.853 0-61.44-20.48-90.453-51.2l-46.81-49.606c20.164-91.036 93.393-160.934 185.259-176.516l47.151 49.908c52.907 56.32 72.107 108.373-5.12 180.907z" />
<glyph unicode="&#xe957;" glyph-name="box" d="M862.327 626.347l-328.53-190.293c-13.227-7.68-29.867-7.68-43.52 0l-328.533 190.293c-23.467 13.653-29.44 45.653-11.52 65.707 12.373 14.080 26.453 25.6 41.387 33.707l231.253 128c49.493 27.733 129.707 27.733 179.197 0l231.259-128c14.933-8.107 29.008-20.053 41.387-33.707 17.061-20.053 11.088-52.053-12.379-65.707zM487.645 356.693v-290.987c0-32.427-32.854-53.76-61.867-39.68-87.893 43.093-235.947 123.733-235.947 123.733-52.053 29.44-94.719 103.68-94.719 164.693v220.16c0 33.707 35.413 55.040 64.426 38.4l306.774-177.92c12.8-8.107 21.333-22.613 21.333-38.4zM536.333 356.693v-290.987c0-32.427 32.852-53.76 61.865-39.68 87.893 43.093 235.947 123.733 235.947 123.733 52.053 29.44 94.72 103.68 94.72 164.693v220.16c0 33.707-35.413 55.040-64.427 38.4l-306.772-177.92c-12.8-8.107-21.333-22.613-21.333-38.4z" />
</font>
</defs>
</svg>
