<svg width="256" height="256" viewBox="0 0 256 256" fill="none" xmlns="http://www.w3.org/2000/svg">
<rect width="256" height="256" rx="28" fill="url(#paint0_linear_1555_351)"/>
<path fill-rule="evenodd" clip-rule="evenodd" d="M124.557 45.3564C115.838 45.3564 107.476 48.8393 101.311 55.0387C95.1454 61.2382 91.6818 69.6465 91.6818 78.4138V83.9234H87.1341C82.5213 83.9185 78.0843 85.7028 74.7469 88.9048C71.4095 92.1068 69.4288 96.4797 69.2172 101.113L67.969 127.248C71.6108 126.242 75.4471 125.704 79.409 125.704C102.621 125.704 121.523 144.161 122.24 167.199L133.641 178.795L171.323 140.292C171.02 139.98 170.719 139.669 170.419 139.357L170.412 139.35L168.018 136.881L167.965 136.828C167.451 136.308 166.02 134.861 165.113 132.759C164.036 130.262 163.814 127.172 165.27 123.934C165.805 122.722 166.539 121.57 167.555 120.537C170.63 117.408 174.492 117.228 175.82 117.166L175.821 117.166C175.884 117.163 175.942 117.16 175.993 117.157L176.085 117.152L176.106 117.151C177.622 117.081 179.137 117.009 180.652 116.937L179.896 101.113C179.685 96.4797 177.704 92.1068 174.367 88.9048C171.029 85.7028 166.592 83.9185 161.98 83.9234H157.432V78.4138C157.432 69.6465 153.968 61.2382 147.803 55.0387C141.638 48.8393 133.276 45.3564 124.557 45.3564ZM109.692 198.876C103.755 204.805 96.0878 209.002 87.5129 210.643H121.542L109.692 198.876ZM166.308 210.643H145.731L183.317 172.731L184.225 191.746C184.336 194.183 183.955 196.617 183.105 198.902C182.255 201.188 180.954 203.276 179.28 205.042C177.606 206.808 175.593 208.214 173.364 209.177C171.134 210.14 168.734 210.639 166.308 210.643ZM102.64 78.4138C102.64 72.5689 104.949 66.9634 109.059 62.8304C113.17 58.6975 118.744 56.3756 124.557 56.3756C130.369 56.3756 135.944 58.6975 140.054 62.8304C144.164 66.9634 146.473 72.5689 146.473 78.4138V83.9234H102.64V78.4138ZM93.6543 107.008C93.6543 105.919 93.9756 104.854 94.5777 103.948C95.1798 103.041 96.0355 102.335 97.0367 101.918C98.0379 101.501 99.1395 101.392 100.202 101.605C101.265 101.817 102.242 102.342 103.008 103.113C103.774 103.883 104.296 104.865 104.507 105.934C104.719 107.002 104.61 108.11 104.196 109.117C103.781 110.124 103.079 110.984 102.178 111.59C101.276 112.195 100.217 112.518 99.1335 112.518C97.6803 112.518 96.2867 111.938 95.2591 110.904C94.2316 109.871 93.6543 108.47 93.6543 107.008ZM144.501 107.008C144.501 105.919 144.822 104.854 145.424 103.948C146.026 103.041 146.882 102.335 147.883 101.918C148.885 101.501 149.986 101.392 151.049 101.605C152.112 101.817 153.088 102.342 153.855 103.113C154.621 103.883 155.143 104.865 155.354 105.934C155.565 107.002 155.457 108.11 155.042 109.117C154.628 110.124 153.925 110.984 153.024 111.59C152.123 112.195 151.064 112.518 149.98 112.518C148.527 112.518 147.133 111.938 146.106 110.904C145.078 109.871 144.501 108.47 144.501 107.008ZM205.976 121.878C207.887 121.878 209.389 122.434 210.378 123.51C211.436 124.62 211.88 126.182 211.777 128.195L211.334 137.81L211.29 138.721C210.998 144.835 210.706 150.92 210.446 157.004C210.378 158.497 210.105 160.406 208.638 161.899C208.228 162.315 207.751 162.662 207.205 162.975C206.386 163.426 205.601 163.634 204.816 163.634C202.939 163.634 201.711 162.384 200.823 161.482L193.35 153.915L139.589 208.144C137.985 209.741 135.903 210.643 133.651 210.643C131.399 210.643 129.283 209.741 127.713 208.144L113.713 194.242C117.783 188.815 120.596 182.39 121.718 175.4L133.651 187.538L179.905 140.274C178.199 138.574 176.493 136.838 174.82 135.103L172.398 132.603C171.442 131.632 169.429 129.584 170.862 126.425C171.135 125.8 171.476 125.28 171.92 124.829C173.294 123.431 175.029 123.339 176.319 123.27L176.39 123.267C181.235 123.041 186.071 122.807 190.908 122.572L190.909 122.572L190.91 122.572C195.747 122.338 200.584 122.104 205.43 121.878H205.976ZM79.409 203.756C98.8494 203.756 114.609 187.997 114.609 168.556C114.609 149.116 98.8494 133.356 79.409 133.356C59.9686 133.356 44.209 149.116 44.209 168.556C44.209 187.997 59.9686 203.756 79.409 203.756ZM83.6694 185.546C83.326 185.625 83.1127 185.674 82.9822 185.805C82.7687 186.02 82.7768 186.455 82.7982 187.603C82.8101 188.238 82.8261 189.092 82.8107 190.247C82.8107 191.205 82.5029 191.513 81.5449 191.513H76.7714C75.9319 191.513 75.6192 191.198 75.6192 190.365V186.416C75.1596 186.329 74.7012 186.251 74.2455 186.173C73.2323 186.001 72.2328 185.831 71.2654 185.563C69.9667 185.203 68.6737 184.682 67.406 184.17L67.4055 184.17L67.1025 184.048C66.4178 183.773 66.2927 183.407 66.477 182.687C66.9807 180.73 67.4866 178.773 67.9947 176.816C68.2152 175.97 68.7156 175.712 69.4909 176.107C72.681 177.708 76.3813 178.802 79.9565 178.061C81.828 177.687 83.1663 175.973 81.6486 174.331C80.7762 173.424 79.6421 172.972 78.507 172.519C78.4107 172.48 78.3144 172.442 78.2183 172.403C77.6725 172.183 77.1229 171.97 76.5731 171.757C75.2823 171.258 73.9902 170.757 72.7435 170.163C66.1857 167.418 64.6104 158.683 69.9107 153.901C71.4464 152.536 73.2954 151.567 75.2949 151.081C75.7459 150.964 75.9122 150.782 75.894 150.3C75.8603 149.385 75.8685 148.469 75.8767 147.554C75.8789 147.308 75.8811 147.062 75.8825 146.817C75.8825 145.925 76.2117 145.602 77.0924 145.6H81.8083C82.7301 145.6 83.028 145.913 83.0264 146.851C83.0264 147.116 83.0271 147.38 83.0279 147.645V147.645C83.0301 148.4 83.0323 149.155 83.0165 149.91C83.0083 150.285 83.1037 150.431 83.5103 150.457C85.8042 150.612 88.0522 151.172 90.1488 152.112C90.8829 152.44 91.0525 152.755 90.85 153.522C90.3628 155.373 89.869 157.224 89.3686 159.075C89.1102 160.038 88.6344 160.266 87.7225 159.82C84.7959 158.444 81.3523 157.626 78.1919 158.593C76.5607 159.19 76.3434 160.81 77.8002 161.73C79.0285 162.478 80.3208 163.115 81.6618 163.636C82.0397 163.791 82.4183 163.944 82.7965 164.096C84.4116 164.745 86.0195 165.391 87.5332 166.284C94.2524 170.255 93.8804 180.083 87.395 183.982C85.457 185.134 84.3256 185.395 83.6694 185.546Z" fill="#F8FAFC"/>
<defs>
<linearGradient id="paint0_linear_1555_351" x1="0" y1="0" x2="256" y2="256" gradientUnits="userSpaceOnUse">
<stop stop-color="#0447B0"/>
<stop offset="1" stop-color="#012F78"/>
</linearGradient>
</defs>
</svg>
