<svg width="24" height="24" viewBox="0 0 24 24" fill="none" xmlns="http://www.w3.org/2000/svg">
<path d="M22.8754 19.5645L20.5939 10.0957C20.4806 9.62045 20.2102 9.19736 19.8265 8.89491C19.4428 8.59247 18.9682 8.42838 18.4796 8.4292H17.1941V6.0187C17.1941 3.1552 14.8631 0.824951 11.9996 0.824951C10.6225 0.826539 9.30213 1.37433 8.32832 2.34814C7.35451 3.32195 6.80672 4.64227 6.80513 6.01945V8.42995H5.51963C5.03106 8.42912 4.55651 8.59322 4.1728 8.89566C3.7891 9.19811 3.5187 9.6212 3.40538 10.0965L1.12388 19.5645C1.01896 19.9945 1.0136 20.4428 1.10822 20.8752C1.20285 21.3077 1.39495 21.7128 1.66988 22.0597C1.94261 22.4082 2.29133 22.6899 2.68945 22.8832C3.08757 23.0764 3.52458 23.1762 3.96713 23.175H20.0321C20.4747 23.1762 20.9117 23.0764 21.3098 22.8832C21.7079 22.6899 22.0567 22.4082 22.3294 22.0597C22.6045 21.7129 22.7967 21.3077 22.8913 20.8753C22.9859 20.4428 22.9805 19.9945 22.8754 19.5645ZM8.15513 6.0187C8.15612 4.99945 8.56151 4.02224 9.2823 3.30159C10.0031 2.58094 10.9804 2.17575 11.9996 2.17495C13.0188 2.17594 13.9958 2.58123 14.7165 3.30186C15.4371 4.02248 15.8424 4.99958 15.8434 6.0187V8.4292H8.15513V6.0187ZM21.2689 21.225C20.9689 21.6067 20.5174 21.825 20.0321 21.825H3.96713C3.48188 21.825 3.03038 21.6067 2.73038 21.225C2.43038 20.8432 2.32238 20.3535 2.43638 19.881L4.71788 10.4122C4.80788 10.0402 5.13788 9.77995 5.51963 9.77995H18.4796C18.8621 9.77995 19.1914 10.0402 19.2814 10.4122L21.5629 19.881C21.6769 20.3535 21.5696 20.8432 21.2689 21.225Z" fill="#181C25"/>
<path d="M11.9363 11.25C9.48975 11.25 7.5 13.2398 7.5 15.6863C7.5 18.1328 9.48975 20.1225 11.9363 20.1225C14.3828 20.1225 16.3725 18.1328 16.3725 15.6863C16.3725 13.2398 14.3828 11.25 11.9363 11.25ZM11.9363 18.7718C10.2345 18.7718 8.85075 17.3873 8.85075 15.6863C8.85075 13.9853 10.2353 12.6008 11.9363 12.6008C13.6373 12.6008 15.0225 13.9845 15.0225 15.6863C15.0225 17.388 13.638 18.7718 11.9363 18.7718Z" fill="#0A5CFF"/>
<path d="M11.1835 15.8565L11.2608 15.7793V17.2245C11.2608 17.4035 11.3319 17.5752 11.4585 17.7018C11.585 17.8284 11.7567 17.8995 11.9358 17.8995C12.1148 17.8995 12.2865 17.8284 12.4131 17.7018C12.5396 17.5752 12.6108 17.4035 12.6108 17.2245V15.7793L12.688 15.8565C12.7504 15.9195 12.8247 15.9695 12.9065 16.0037C12.9884 16.0379 13.0762 16.0555 13.1649 16.0556C13.2535 16.0556 13.3414 16.0381 13.4232 16.0041C13.5051 15.9701 13.5795 15.9202 13.642 15.8573C13.7048 15.7948 13.7547 15.7205 13.7887 15.6386C13.8228 15.5568 13.8403 15.4691 13.8404 15.3804C13.8405 15.2918 13.8231 15.204 13.7891 15.1222C13.7552 15.0403 13.7055 14.9659 13.6428 14.9033L12.4128 13.6725C12.3501 13.6097 12.2756 13.5599 12.1936 13.5259C12.1116 13.4919 12.0238 13.4744 11.935 13.4744C11.8463 13.4744 11.7584 13.4919 11.6764 13.5259C11.5944 13.5599 11.52 13.6097 11.4573 13.6725L10.2273 14.9033C10.1009 15.0301 10.03 15.2019 10.0303 15.381C10.0306 15.56 10.102 15.7316 10.2288 15.858C10.3556 15.9844 10.5274 16.0553 10.7064 16.055C10.8855 16.0547 11.0571 15.9833 11.1835 15.8565Z" fill="#0A5CFF"/>
</svg>
