<svg width="24" height="24" viewBox="0 0 24 24" fill="none" xmlns="http://www.w3.org/2000/svg">
<path d="M16.5 8.62999C16.09 8.62999 15.75 8.28999 15.75 7.87999V6.49999C15.75 5.44999 15.3 4.42999 14.52 3.71999C13.73 2.99999 12.71 2.66999 11.63 2.76999C9.83 2.93999 8.25 4.77999 8.25 6.69999V7.66999C8.25 8.07999 7.91 8.41999 7.5 8.41999C7.09 8.41999 6.75 8.07999 6.75 7.66999V6.68999C6.75 3.99999 8.92 1.51999 11.49 1.26999C12.99 1.12999 14.43 1.59999 15.53 2.60999C16.62 3.59999 17.25 5.01999 17.25 6.49999V7.87999C17.25 8.28999 16.91 8.62999 16.5 8.62999Z" fill="#181C25"/>
<path d="M15.4199 13.15C14.8599 13.15 14.4099 12.7 14.4099 12.15C14.4099 11.6 14.8599 11.15 15.4099 11.15C15.9599 11.15 16.4099 11.6 16.4099 12.15C16.4099 12.7 15.9699 13.15 15.4199 13.15Z" fill="#181C25"/>
<path d="M8.41991 13.15C7.85991 13.15 7.40991 12.7 7.40991 12.15C7.40991 11.6 7.85991 11.15 8.40991 11.15C8.95991 11.15 9.40991 11.6 9.40991 12.15C9.40991 12.7 8.96991 13.15 8.41991 13.15Z" fill="#181C25"/>
<path fill-rule="evenodd" clip-rule="evenodd" d="M9.00006 22.75H15.0001C15.9805 22.75 16.7915 22.6532 17.4631 22.4807C16.724 22.2305 16.0665 21.8032 15.5413 21.2493C15.3693 21.2564 15.189 21.26 15.0001 21.26H9.00006C5.40006 21.26 4.96006 19.94 4.79006 18.34L4.04006 12.35C3.91006 11.11 4.07006 10.28 4.56006 9.74C5.15006 9.08 6.31006 8.75 8.00006 8.75H16.0001C17.6901 8.75 18.8501 9.08 19.4401 9.75C19.9301 10.3 20.0901 11.13 19.9601 12.35L19.8394 13.3167C20.3547 13.4104 20.8409 13.5873 21.2837 13.833L21.4501 12.5C21.5601 11.44 21.5901 9.89 20.5501 8.73C19.6601 7.74 18.1701 7.25 16.0001 7.25H8.00006C5.84006 7.25 4.35006 7.73 3.45006 8.73C2.40006 9.89 2.44006 11.44 2.55006 12.52L3.30006 18.51C3.52006 20.6 4.38006 22.75 9.00006 22.75Z" fill="#181C25"/>
<path d="M20.49 18.73H17.5C17.09 18.73 16.75 18.39 16.75 17.98C16.75 17.57 17.09 17.23 17.5 17.23H20.49C20.9 17.23 21.24 17.57 21.24 17.98C21.24 18.39 20.91 18.73 20.49 18.73Z" fill="#0A5CFF"/>
<path d="M19 20.26C18.59 20.26 18.25 19.92 18.25 19.51V16.52C18.25 16.11 18.59 15.77 19 15.77C19.41 15.77 19.75 16.11 19.75 16.52V19.51C19.75 19.93 19.41 20.26 19 20.26Z" fill="#0A5CFF"/>
<path d="M19 22.75C17.6 22.75 16.29 22.14 15.39 21.07C15.38 21.05 15.32 21 15.27 20.92C15.16 20.81 15.03 20.61 14.92 20.42C14.48 19.71 14.24 18.87 14.24 17.99C14.24 16.53 14.89 15.18 16.02 14.28C16.86 13.61 17.92 13.24 18.99 13.24C20.15 13.24 21.22 13.64 22.08 14.39C22.2 14.47 22.34 14.62 22.47 14.76C23.28 15.65 23.73 16.79 23.73 17.98C23.73 18.85 23.49 19.7 23.04 20.43C22.8 20.85 22.47 21.23 22.09 21.55C21.28 22.33 20.17 22.75 19 22.75ZM19 14.75C18.26 14.75 17.56 15 16.97 15.47C16.2 16.08 15.75 17.01 15.75 18C15.75 18.59 15.91 19.17 16.22 19.67C16.3 19.81 16.38 19.92 16.47 20.03C16.49 20.05 16.55 20.11 16.6 20.19C17.15 20.84 18.05 21.26 19 21.26C19.79 21.26 20.55 20.97 21.13 20.45C21.39 20.23 21.61 19.97 21.77 19.69C22.09 19.18 22.25 18.6 22.25 18.01C22.25 17.2 21.94 16.41 21.38 15.8C21.31 15.72 21.23 15.64 21.15 15.58C20.52 15.02 19.79 14.75 19 14.75Z" fill="#0A5CFF"/>
</svg>
