<svg width="24" height="24" viewBox="0 0 24 24" fill="none" xmlns="http://www.w3.org/2000/svg">
<path d="M19.4778 1.65674H12.3528C11.5713 1.65753 10.822 1.96833 10.2695 2.52092C9.71686 3.07351 9.40607 3.82276 9.40527 4.60424V7.45499C9.40607 8.23647 9.71686 8.98572 10.2695 9.53831C10.822 10.0909 11.5713 10.4017 12.3528 10.4025H19.4778C20.2593 10.4017 21.0085 10.0909 21.5611 9.53831C22.1137 8.98572 22.4245 8.23647 22.4253 7.45499V4.60499C22.4245 3.82344 22.1137 3.07411 21.5611 2.5214C21.0086 1.96869 20.2593 1.65773 19.4778 1.65674ZM21.0753 7.45499C21.0753 8.33624 20.3583 9.05249 19.4778 9.05249H12.3528C11.9292 9.05209 11.5231 8.88366 11.2236 8.58415C10.9241 8.28465 10.7557 7.87855 10.7553 7.45499V4.60499C10.7553 3.72374 11.4723 3.00749 12.3528 3.00749H19.4778C20.359 3.00749 21.0753 3.72449 21.0753 4.60499V7.45499Z" fill="#0A5CFF"/>
<path d="M15.9148 3.88208C14.7306 3.88208 13.7668 4.84583 13.7668 6.03008C13.7668 7.21433 14.7306 8.17733 15.9148 8.17733C17.0991 8.17733 18.0628 7.21433 18.0628 6.03008C18.0628 4.84583 17.0991 3.88208 15.9148 3.88208ZM15.9148 6.82808C15.4753 6.82808 15.1168 6.47033 15.1168 6.03083C15.1168 5.59133 15.4753 5.23283 15.9148 5.23283C16.3543 5.23283 16.7128 5.59133 16.7128 6.03083C16.7128 6.47033 16.3543 6.82808 15.9148 6.82808ZM12.4363 5.52533C12.3684 5.52271 12.3007 5.53382 12.2373 5.55799C12.1738 5.58216 12.1158 5.61889 12.0669 5.66598C12.0179 5.71307 11.979 5.76956 11.9524 5.83206C11.9258 5.89456 11.9121 5.96178 11.9121 6.02971C11.9121 6.09763 11.9258 6.16485 11.9524 6.22735C11.979 6.28985 12.0179 6.34634 12.0669 6.39343C12.1158 6.44052 12.1738 6.47725 12.2373 6.50142C12.3007 6.52559 12.3684 6.5367 12.4363 6.53408C12.5667 6.52905 12.6901 6.47371 12.7806 6.37967C12.8711 6.28563 12.9216 6.16021 12.9216 6.02971C12.9216 5.89921 12.8711 5.77378 12.7806 5.67974C12.6901 5.5857 12.5667 5.53036 12.4363 5.52533ZM19.3933 5.52533C19.3254 5.52271 19.2577 5.53382 19.1943 5.55799C19.1308 5.58216 19.0728 5.61889 19.0239 5.66598C18.9749 5.71307 18.936 5.76956 18.9094 5.83206C18.8828 5.89456 18.8691 5.96178 18.8691 6.02971C18.8691 6.09763 18.8828 6.16485 18.9094 6.22735C18.936 6.28985 18.9749 6.34634 19.0239 6.39343C19.0728 6.44052 19.1308 6.47725 19.1943 6.50142C19.2577 6.52559 19.3254 6.5367 19.3933 6.53408C19.5237 6.52905 19.6471 6.47371 19.7376 6.37967C19.8281 6.28563 19.8786 6.16021 19.8786 6.02971C19.8786 5.89921 19.8281 5.77378 19.7376 5.67974C19.6471 5.5857 19.5237 5.53036 19.3933 5.52533Z" fill="#0A5CFF"/>
<path d="M21.7044 14.5395C21.3273 14.14 20.8218 13.8857 20.2762 13.821C19.7306 13.7563 19.1796 13.8853 18.7194 14.1855L16.6292 15.5483C16.6584 15.4005 16.6749 15.249 16.6749 15.093C16.673 14.5552 16.4872 14.0343 16.1483 13.6167C15.8094 13.199 15.3378 12.9099 14.8119 12.7973L11.6567 12.135C10.9911 11.9967 10.3045 11.9933 9.63755 12.1251C8.97061 12.2569 8.3369 12.5212 7.77394 12.9023L7.2092 13.2863C7.19272 12.8457 7.00632 12.4286 6.68908 12.1224C6.37183 11.8162 5.94836 11.6447 5.50745 11.6438H3.7532C3.17561 11.6444 2.62186 11.8742 2.21351 12.2826C1.80516 12.6911 1.57559 13.245 1.5752 13.8225V20.1653C1.57579 20.7428 1.80545 21.2964 2.21377 21.7047C2.6221 22.113 3.17574 22.3427 3.7532 22.3433H5.50745C6.39994 22.3433 7.12595 21.6533 7.2017 20.7803L11.4692 21.858C12.2458 22.0535 13.0577 22.0625 13.8384 21.8843L17.3979 21.0675C18.2902 20.863 19.1101 20.42 19.7702 19.7858L21.7052 17.9273C22.1498 17.4979 22.4076 16.9106 22.4226 16.2926C22.4376 15.6746 22.2087 15.0756 21.7854 14.625L21.7044 14.5395ZM5.8667 20.634C5.8665 20.7293 5.82858 20.8205 5.76125 20.8879C5.69392 20.9552 5.60266 20.9931 5.50745 20.9933H3.7532C3.53372 20.9929 3.32334 20.9055 3.16815 20.7503C3.01295 20.5952 2.92559 20.3848 2.9252 20.1653V13.8225C2.9252 13.3658 3.2972 12.9938 3.7532 12.9938H5.50745C5.60266 12.994 5.69392 13.0319 5.76125 13.0992C5.82858 13.1666 5.8665 13.2578 5.8667 13.353V20.634ZM20.7692 16.9523L18.8334 18.8115C18.3501 19.2766 17.7495 19.6015 17.0957 19.7513L13.5362 20.568C12.9637 20.698 12.3687 20.6916 11.7992 20.5493L7.21669 19.3913V14.9145L8.53369 14.019C8.94604 13.7393 9.41045 13.5453 9.89929 13.4487C10.3881 13.352 10.8914 13.3547 11.3792 13.4565L14.5344 14.1188C14.7737 14.1714 14.9852 14.3102 15.1286 14.5087C15.2721 14.7073 15.3373 14.9517 15.312 15.1954C15.2867 15.439 15.1725 15.6648 14.9914 15.8296C14.8102 15.9945 14.5746 16.0868 14.3297 16.089H12.1539C11.9749 16.089 11.8032 16.1602 11.6766 16.2868C11.5501 16.4133 11.4789 16.585 11.4789 16.764C11.4789 16.9431 11.5501 17.1148 11.6766 17.2413C11.8032 17.3679 11.9749 17.439 12.1539 17.439H15.5042C15.9591 17.4395 16.4042 17.3074 16.7852 17.0588L19.4574 15.3165C19.6526 15.1891 19.8863 15.1344 20.1177 15.1618C20.3491 15.1892 20.5635 15.2971 20.7234 15.4665L20.8029 15.5505C20.9829 15.7416 21.0802 15.996 21.0739 16.2584C21.0676 16.5207 20.9581 16.7701 20.7692 16.9523Z" fill="#181C25"/>
</svg>
