<svg width="24" height="24" viewBox="0 0 24 24" fill="none" xmlns="http://www.w3.org/2000/svg">
<path d="M20.3777 4.15649H6.4202C5.6785 4.15729 4.9674 4.45228 4.44294 4.97674C3.91848 5.5012 3.62349 6.2123 3.6227 6.95399V6.95924H3.6212C2.87989 6.96004 2.16918 7.25487 1.645 7.77905C1.12082 8.30323 0.825989 9.01394 0.825195 9.75524V17.0467C0.825989 17.7881 1.1208 18.4989 1.64496 19.0232C2.16911 19.5475 2.87982 19.8425 3.6212 19.8435H17.5787C18.3202 19.8427 19.0311 19.5478 19.5554 19.0235C20.0797 18.4991 20.3746 17.7882 20.3754 17.0467V17.0407H20.3777C21.1193 17.04 21.8302 16.7451 22.3547 16.2208C22.8791 15.6965 23.1742 14.9856 23.1752 14.244V6.95399C23.1744 6.2123 22.8794 5.5012 22.3549 4.97674C21.8305 4.45228 21.1194 4.15729 20.3777 4.15649ZM19.0247 17.0467C19.0245 17.4303 18.8721 17.798 18.601 18.0693C18.3299 18.3405 17.9622 18.4931 17.5787 18.4935H3.6212C3.23768 18.4931 2.87001 18.3405 2.59889 18.0693C2.32778 17.798 2.17539 17.4303 2.1752 17.0467V9.75524C2.17559 9.37186 2.32807 9.0043 2.59916 8.73321C2.87025 8.46212 3.23781 8.30964 3.6212 8.30924H17.5787C17.9621 8.30964 18.3296 8.46212 18.6007 8.73321C18.8718 9.0043 19.0243 9.37186 19.0247 9.75524V17.0467ZM21.8252 14.244C21.8252 15.042 21.1764 15.6915 20.3777 15.6915H20.3754V9.75524C20.3745 9.01387 20.0795 8.30316 19.5552 7.779C19.0309 7.25485 18.3201 6.96004 17.5787 6.95924H4.9727V6.95399C4.9727 6.15599 5.6222 5.50649 6.4202 5.50649H20.3777C21.1757 5.50649 21.8252 6.15599 21.8252 6.95399V14.244Z" fill="#181C25"/>
<path d="M10.6004 10.4294C8.96166 10.4294 7.62891 11.7622 7.62891 13.4009C7.62891 15.0397 8.96166 16.3724 10.6004 16.3724C12.2392 16.3724 13.5727 15.0397 13.5727 13.4009C13.5727 11.7622 12.2392 10.4294 10.6004 10.4294ZM10.6004 15.0232C9.70641 15.0232 8.97816 14.2957 8.97816 13.4009C8.97816 12.5062 9.70566 11.7787 10.6004 11.7787C11.4952 11.7787 12.2227 12.5062 12.2227 13.4009C12.2227 14.2957 11.4952 15.0232 10.6004 15.0232Z" fill="#0A5CFF"/>
<path d="M5.1752 12.6143C4.96634 12.6143 4.76603 12.6972 4.61835 12.8449C4.47066 12.9926 4.3877 13.1929 4.3877 13.4018C4.3877 13.6106 4.47066 13.8109 4.61835 13.9586C4.76603 14.1063 4.96634 14.1893 5.1752 14.1893C5.38405 14.1893 5.58436 14.1063 5.73204 13.9586C5.87973 13.8109 5.9627 13.6106 5.9627 13.4018C5.9627 13.1929 5.87973 12.9926 5.73204 12.8449C5.58436 12.6972 5.38405 12.6143 5.1752 12.6143ZM16.0254 12.6143C15.8166 12.6143 15.6163 12.6972 15.4686 12.8449C15.3209 12.9926 15.2379 13.1929 15.2379 13.4018C15.2379 13.6106 15.3209 13.8109 15.4686 13.9586C15.6163 14.1063 15.8166 14.1893 16.0254 14.1893C16.2343 14.1893 16.4346 14.1063 16.5823 13.9586C16.73 13.8109 16.8129 13.6106 16.8129 13.4018C16.8129 13.1929 16.73 12.9926 16.5823 12.8449C16.4346 12.6972 16.2343 12.6143 16.0254 12.6143Z" fill="#181C25"/>
</svg>
