<svg width="24" height="24" viewBox="0 0 24 24" fill="none" xmlns="http://www.w3.org/2000/svg">
<path d="M11.8469 12.6584C12.4829 12.8032 12.6044 12.9637 12.6097 12.9637C12.6029 13.1752 12.1042 13.3102 11.5814 13.3424C11.5508 13.1767 11.4593 13.0285 11.3249 12.9268C11.1905 12.8251 11.0229 12.7774 10.8552 12.793C10.6874 12.8086 10.5315 12.8864 10.4182 13.0111C10.3048 13.1358 10.2422 13.2984 10.2427 13.4669C10.2427 13.8037 10.3762 14.1172 10.6177 14.3512C10.8089 14.5364 11.0594 14.6489 11.3219 14.6827V14.6849C11.3219 14.8639 11.393 15.0356 11.5196 15.1622C11.6462 15.2888 11.8179 15.3599 11.9969 15.3599C12.1759 15.3599 12.3476 15.2888 12.4742 15.1622C12.6008 15.0356 12.6719 14.8639 12.6719 14.6849V14.5124C13.7804 14.1554 13.9484 13.3777 13.9582 12.9974C13.9732 12.4334 13.6702 11.6879 12.1454 11.3414C11.4959 11.1937 11.3947 11.0489 11.3894 11.0392C11.4052 10.8007 11.9257 10.6874 12.4094 10.6574C12.44 10.8231 12.5316 10.9714 12.6659 11.073C12.8003 11.1747 12.9679 11.2224 13.1357 11.2068C13.3035 11.1912 13.4593 11.1134 13.5727 10.9887C13.686 10.864 13.7486 10.7014 13.7482 10.5329C13.7482 10.2007 13.6102 9.87666 13.3717 9.64641C13.1795 9.4644 12.9339 9.34898 12.6712 9.31716V9.31416C12.6712 9.13514 12.6 8.96345 12.4735 8.83686C12.3469 8.71028 12.1752 8.63916 11.9962 8.63916C11.8171 8.63916 11.6455 8.71028 11.5189 8.83686C11.3923 8.96345 11.3212 9.13514 11.3212 9.31416V9.48891C10.3042 9.81666 10.0724 10.4999 10.0417 10.9477C9.98542 11.7967 10.5922 12.3727 11.8469 12.6584Z" fill="#0A5CFF"/>
<path d="M12.0002 17.9475C15.2792 17.9475 17.9477 15.2797 17.9477 12C17.9477 8.72024 15.2792 6.05249 12.0002 6.05249C8.72048 6.05249 6.05273 8.72024 6.05273 12C6.05273 15.2797 8.72048 17.9475 12.0002 17.9475ZM12.0002 7.40249C14.5352 7.40249 16.597 9.46499 16.597 12C16.597 14.535 14.5352 16.5975 12.0002 16.5975C9.46523 16.5975 7.40273 14.535 7.40273 12C7.40273 9.46499 9.46523 7.40249 12.0002 7.40249Z" fill="#0A5CFF"/>
<path d="M21.3347 13.6229C21.1608 13.5806 20.9773 13.6089 20.8243 13.7017C20.6714 13.7945 20.5614 13.9442 20.5187 14.1179C20.1373 15.6673 19.3383 17.0823 18.2087 18.2092C16.5504 19.8667 14.3462 20.7802 12.0002 20.7802C9.65417 20.7802 7.44917 19.8667 5.79167 18.2084C5.15342 17.5716 4.6178 16.8397 4.20392 16.0387L5.23517 16.4002C5.31932 16.4318 5.40893 16.4463 5.49876 16.4429C5.58859 16.4394 5.67683 16.418 5.75828 16.38C5.83974 16.342 5.91278 16.288 5.97312 16.2214C6.03345 16.1548 6.07987 16.0767 6.10964 15.9919C6.13941 15.9071 6.15194 15.8172 6.1465 15.7274C6.14105 15.6377 6.11773 15.55 6.07791 15.4694C6.03809 15.3888 5.98257 15.3169 5.91462 15.2581C5.84666 15.1992 5.76763 15.1546 5.68217 15.1267L3.16892 14.2462C3.08135 14.2155 2.9884 14.2033 2.89588 14.2102C2.80336 14.2171 2.71325 14.243 2.63119 14.2863C2.54913 14.3296 2.47687 14.3893 2.41893 14.4618C2.36098 14.5342 2.3186 14.6179 2.29442 14.7074L1.59917 17.2784C1.57153 17.3653 1.56176 17.4568 1.57047 17.5476C1.57917 17.6383 1.60617 17.7264 1.64982 17.8064C1.69348 17.8864 1.75289 17.9568 1.82447 18.0132C1.89606 18.0696 1.97833 18.111 2.06634 18.1348C2.15434 18.1585 2.24624 18.1642 2.33651 18.1515C2.42677 18.1388 2.51353 18.108 2.59154 18.0608C2.66956 18.0137 2.73721 17.9512 2.79043 17.8772C2.84364 17.8032 2.88131 17.7191 2.90117 17.6302L3.11192 16.8517C3.57296 17.701 4.15393 18.4795 4.83692 19.1632C5.77529 20.107 6.89161 20.8552 8.12122 21.3645C9.35082 21.8738 10.6693 22.1341 12.0002 22.1302C14.7062 22.1302 17.2509 21.0764 19.1642 19.1632C20.4684 17.8617 21.3906 16.2274 21.8304 14.4382C21.8727 14.2643 21.8442 14.0808 21.7513 13.9279C21.6583 13.7751 21.5085 13.6654 21.3347 13.6229ZM21.9264 5.89417C21.8408 5.87069 21.7514 5.86439 21.6634 5.87561C21.5754 5.88683 21.4904 5.91537 21.4134 5.95957C21.3365 6.00376 21.269 6.06276 21.215 6.13314C21.1609 6.20353 21.1213 6.28391 21.0984 6.36967L20.8877 7.14742C20.4266 6.29828 19.846 5.51982 19.1634 4.83592C18.2249 3.89234 17.1086 3.14432 15.879 2.63516C14.6494 2.12599 13.331 1.86581 12.0002 1.86967C9.29342 1.86967 6.75017 2.92342 4.83692 4.83667C3.53287 6.13808 2.61045 7.77202 2.16992 9.56092C2.14884 9.64705 2.14494 9.73649 2.15843 9.82413C2.17192 9.91177 2.20253 9.9959 2.24853 10.0717C2.29453 10.1475 2.35501 10.2135 2.42652 10.266C2.49803 10.3184 2.57917 10.3562 2.6653 10.3773C2.75143 10.3984 2.84087 10.4023 2.92851 10.3888C3.01615 10.3753 3.10027 10.3447 3.17608 10.2987C3.25189 10.2527 3.31789 10.1922 3.37033 10.1207C3.42276 10.0492 3.4606 9.96805 3.48167 9.88192C3.86321 8.33243 4.66215 6.91716 5.79167 5.78992C7.44917 4.13242 9.65417 3.21892 12.0002 3.21892C14.3462 3.21892 16.5504 4.13242 18.2087 5.78992C18.8467 6.42692 19.3823 7.15884 19.7964 7.95967L18.7652 7.59817C18.6809 7.56583 18.5909 7.55073 18.5007 7.55378C18.4104 7.55682 18.3217 7.57794 18.2397 7.6159C18.1578 7.65385 18.0843 7.70785 18.0236 7.77472C17.9629 7.84159 17.9163 7.91995 17.8864 8.00517C17.8565 8.0904 17.8441 8.18074 17.8498 8.27087C17.8554 8.36099 17.8791 8.44906 17.9195 8.52986C17.9598 8.61066 18.0159 8.68254 18.0846 8.74125C18.1532 8.79996 18.2329 8.84431 18.3189 8.87167L20.8322 9.75217C20.9198 9.78315 21.0129 9.79567 21.1055 9.78893C21.1982 9.78219 21.2885 9.75635 21.3707 9.71303C21.4529 9.66971 21.5253 9.60984 21.5832 9.5372C21.6412 9.46455 21.6835 9.3807 21.7074 9.29092L22.4027 6.71992C22.4488 6.54727 22.4245 6.3634 22.3352 6.20861C22.2459 6.05382 22.0989 5.94074 21.9264 5.89417Z" fill="#181C25"/>
</svg>
