<svg width="24" height="24" viewBox="0 0 24 24" fill="none" xmlns="http://www.w3.org/2000/svg">
<path d="M20.2502 4.76245H3.7502C2.1377 4.76245 0.825195 6.07495 0.825195 7.68745V16.3125C0.825195 17.925 2.1377 19.2375 3.7502 19.2375H20.2502C21.8627 19.2375 23.1752 17.925 23.1752 16.3125V7.68745C23.1752 6.07495 21.8627 4.76245 20.2502 4.76245ZM21.8252 16.3125C21.8252 17.181 21.1194 17.8875 20.2502 17.8875H8.67469V17.8125C8.67469 17.6334 8.60358 17.4617 8.47699 17.3352C8.3504 17.2086 8.17872 17.1375 7.99969 17.1375C7.82067 17.1375 7.64898 17.2086 7.5224 17.3352C7.39581 17.4617 7.32469 17.6334 7.32469 17.8125V17.8875H3.7502C2.8817 17.8875 2.1752 17.1817 2.1752 16.3125V7.68745C2.1752 6.81895 2.8817 6.11245 3.7502 6.11245H7.32544V6.18745C7.32544 6.36647 7.39656 6.53816 7.52315 6.66475C7.64973 6.79134 7.82142 6.86245 8.00044 6.86245C8.17947 6.86245 8.35115 6.79134 8.47774 6.66475C8.60433 6.53816 8.67544 6.36647 8.67544 6.18745V6.11245H20.2502C21.1187 6.11245 21.8252 6.81895 21.8252 7.68745V16.3125Z" fill="#181C25"/>
<path d="M8.00312 12.78C7.62812 12.78 7.32812 13.0793 7.32812 13.4543V14.9025C7.32812 15.2775 7.62812 15.5768 8.00312 15.5768C8.37063 15.5768 8.67812 15.2775 8.67812 14.9025V13.4543C8.67812 13.0793 8.37063 12.78 8.00312 12.78ZM8.00312 8.41504C7.62812 8.41504 7.32812 8.72254 7.32812 9.09004V10.545C7.32812 10.92 7.62812 11.22 8.00312 11.22C8.37063 11.22 8.67812 10.92 8.67812 10.545V9.09004C8.67812 8.72254 8.37063 8.41504 8.00312 8.41504Z" fill="#181C25"/>
<path d="M13.4937 11.0092C13.973 11.0092 14.3615 10.6207 14.3615 10.1414C14.3615 9.66219 13.973 9.27368 13.4937 9.27368C13.0145 9.27368 12.626 9.66219 12.626 10.1414C12.626 10.6207 13.0145 11.0092 13.4937 11.0092Z" fill="#0A5CFF"/>
<path d="M16.5979 13.2449C16.4352 13.4075 16.3437 13.6281 16.3437 13.8582C16.3436 14.0882 16.4349 14.3088 16.5975 14.4716C16.7601 14.6343 16.9807 14.7257 17.2108 14.7258C17.4408 14.7259 17.6614 14.6345 17.8242 14.4719C17.9869 14.3093 18.0783 14.0887 18.0784 13.8587C18.0785 13.6287 17.9871 13.408 17.8245 13.2453C17.6619 13.0826 17.4413 12.9911 17.2113 12.9911C16.9813 12.991 16.7606 13.0823 16.5979 13.2449ZM17.8497 9.50393C17.787 9.44123 17.7126 9.39149 17.6306 9.35755C17.5487 9.32362 17.4609 9.30615 17.3723 9.30615C17.2836 9.30615 17.1958 9.32362 17.1139 9.35755C17.032 9.39149 16.9576 9.44123 16.8949 9.50393L12.8569 13.5419C12.7372 13.67 12.6719 13.8396 12.6749 14.0149C12.6779 14.1902 12.7489 14.3575 12.8729 14.4814C12.9969 14.6053 13.1643 14.6762 13.3396 14.6791C13.5149 14.6819 13.6844 14.6165 13.8124 14.4967L17.8504 10.4579C17.9767 10.3313 18.0476 10.1597 18.0474 9.98078C18.0473 9.8019 17.9762 9.6304 17.8497 9.50393Z" fill="#0A5CFF"/>
</svg>
