<svg width="32" height="32" viewBox="0 0 32 32" fill="none" xmlns="http://www.w3.org/2000/svg">
<path d="M15.3161 14.2476C13.8261 13.9086 13.1201 13.4806 13.1571 12.9376C13.2311 11.8426 14.8961 11.5546 16.2801 11.5056C16.4161 11.4996 16.4821 11.5626 16.5201 11.5986C16.5601 11.6366 16.6261 11.7196 16.6261 11.8476C16.6261 12.0863 16.7209 12.3152 16.8897 12.484C17.0584 12.6528 17.2874 12.7476 17.5261 12.7476C17.7648 12.7476 17.9937 12.6528 18.1625 12.484C18.3312 12.3152 18.4261 12.0863 18.4261 11.8476C18.4261 11.2686 18.1871 10.7056 17.7711 10.3036C17.5656 10.1046 17.322 9.94918 17.055 9.8466C16.7879 9.74402 16.5029 9.6964 16.2171 9.70661C16.1481 9.70861 16.0871 9.71561 16.0211 9.71861V9.12461C16.0211 8.88591 15.9262 8.657 15.7575 8.48821C15.5887 8.31943 15.3598 8.22461 15.1211 8.22461C14.8824 8.22461 14.6534 8.31943 14.4847 8.48821C14.3159 8.657 14.2211 8.88591 14.2211 9.12461V9.96261C12.0361 10.4956 11.4341 11.7456 11.3621 12.8156C11.2021 15.1586 13.9991 15.7946 14.9181 16.0026C16.3361 16.3256 17.1091 16.7836 17.0961 17.2926C17.0651 18.5056 14.9001 18.7126 13.9711 18.7456C13.876 18.7454 13.7843 18.7106 13.7131 18.6476C13.68 18.6162 13.6537 18.5783 13.6358 18.5364C13.6179 18.4944 13.6088 18.4492 13.6091 18.4036C13.6091 18.1649 13.5142 17.936 13.3455 17.7672C13.1767 17.5984 12.9478 17.5036 12.7091 17.5036C12.4704 17.5036 12.2414 17.5984 12.0727 17.7672C11.9039 17.936 11.8091 18.1649 11.8091 18.4036C11.8091 18.9886 12.0411 19.5346 12.4621 19.9416C12.8671 20.3326 13.3951 20.5456 13.9561 20.5456L14.0341 20.5446C14.1001 20.5426 14.1571 20.5326 14.2221 20.5286V21.1256C14.2221 21.3643 14.3169 21.5932 14.4857 21.762C14.6544 21.9308 14.8834 22.0256 15.1221 22.0256C15.3608 22.0256 15.5897 21.9308 15.7585 21.762C15.9272 21.5932 16.0221 21.3643 16.0221 21.1256V20.2796C17.8331 19.8206 18.8581 18.7996 18.8971 17.3406C18.9341 15.8366 17.7301 14.7966 15.3161 14.2476Z" fill="#181C25"/>
<path d="M16.5571 27.2576C16.1101 27.3196 15.6401 27.3496 15.1201 27.3496C8.3821 27.3496 2.9001 21.8636 2.9001 15.1196C2.9001 8.38161 8.3821 2.89961 15.1201 2.89961C21.8641 2.89961 27.3501 8.38161 27.3501 15.1196C27.3501 15.6396 27.3201 16.1096 27.2581 16.5566C27.2419 16.6737 27.249 16.7929 27.2789 16.9073C27.3088 17.0217 27.361 17.1291 27.4324 17.2234C27.5766 17.4137 27.7905 17.539 28.0271 17.5716C28.2637 17.6042 28.5035 17.5415 28.6939 17.3973C28.8842 17.2531 29.0095 17.0392 29.0421 16.8026C29.1151 16.2726 29.1501 15.7216 29.1501 15.1196C29.1501 7.38861 22.8571 1.09961 15.1201 1.09961C7.3891 1.09961 1.1001 7.38861 1.1001 15.1196C1.1001 22.8556 7.3891 29.1496 15.1201 29.1496C15.7231 29.1496 16.2731 29.1136 16.8031 29.0416C17.0331 29.0016 17.2386 28.8738 17.3763 28.6853C17.514 28.4968 17.5731 28.2621 17.5412 28.0309C17.5093 27.7996 17.3889 27.5897 17.2053 27.4455C17.0217 27.3012 16.7894 27.2339 16.5571 27.2576Z" fill="#181C25"/>
<path d="M24.7442 18.5859C21.3492 18.5859 18.5872 21.3479 18.5872 24.7429C18.5872 28.1379 21.3492 30.8989 24.7442 30.8989C28.1392 30.8989 30.9002 28.1369 30.9002 24.7429C30.8983 23.1107 30.2492 21.5459 29.0951 20.3917C27.9411 19.2374 26.3764 18.5881 24.7442 18.5859ZM24.7442 29.0989C22.3422 29.0989 20.3872 27.1449 20.3872 24.7429C20.3872 22.3409 22.3422 20.3859 24.7442 20.3859C27.1462 20.3859 29.1002 22.3409 29.1002 24.7429C29.1002 27.1449 27.1462 29.0989 24.7442 29.0989Z" fill="#0A5CFF"/>
<path d="M25.3801 21.9571C25.2965 21.8735 25.1973 21.8071 25.088 21.7619C24.9788 21.7166 24.8618 21.6934 24.7436 21.6934C24.6253 21.6934 24.5083 21.7166 24.3991 21.7619C24.2899 21.8071 24.1906 21.8735 24.1071 21.9571L22.3881 23.6761C22.3044 23.7595 22.238 23.8586 22.1927 23.9678C22.1473 24.0769 22.124 24.1939 22.124 24.3121C22.124 24.4302 22.1473 24.5472 22.1927 24.6564C22.238 24.7655 22.3044 24.8646 22.3881 24.9481C22.4715 25.0318 22.5706 25.0982 22.6797 25.1435C22.7889 25.1888 22.9059 25.2121 23.0241 25.2121C23.1422 25.2121 23.2592 25.1888 23.3684 25.1435C23.4775 25.0982 23.5766 25.0318 23.6601 24.9481L23.8431 24.7651V26.8901C23.8431 27.1288 23.9379 27.3577 24.1067 27.5265C24.2754 27.6952 24.5044 27.7901 24.7431 27.7901C24.9818 27.7901 25.2107 27.6952 25.3795 27.5265C25.5482 27.3577 25.6431 27.1288 25.6431 26.8901V24.7651L25.8251 24.9471C25.9084 25.0311 26.0075 25.0978 26.1167 25.1434C26.2259 25.1889 26.343 25.2124 26.4614 25.2125C26.5797 25.2126 26.6969 25.1893 26.8061 25.1439C26.9154 25.0985 27.0146 25.032 27.0981 24.9481C27.1817 24.8645 27.248 24.7653 27.2932 24.656C27.3385 24.5468 27.3618 24.4298 27.3618 24.3116C27.3618 24.1934 27.3385 24.0763 27.2932 23.9671C27.248 23.8579 27.1817 23.7586 27.0981 23.6751L25.3801 21.9571Z" fill="#0A5CFF"/>
</svg>
