<svg width="24" height="24" viewBox="0 0 24 24" fill="none" xmlns="http://www.w3.org/2000/svg">
<path d="M11.164 8.63766V9.24966C9.46148 9.67866 9.09998 10.7024 9.05573 11.3587C8.93648 13.0957 11.0072 13.5659 11.6867 13.7212C12.727 13.9574 13.2947 14.2919 13.285 14.6609C13.2617 15.5459 11.6725 15.6974 10.99 15.7214C10.8797 15.7214 10.8362 15.6787 10.8077 15.6524C10.7845 15.6301 10.766 15.6033 10.7535 15.5737C10.741 15.544 10.7347 15.5121 10.735 15.4799C10.7349 15.3913 10.7174 15.3035 10.6835 15.2216C10.6495 15.1398 10.5997 15.0654 10.537 15.0027C10.4743 14.9401 10.3999 14.8904 10.3179 14.8565C10.236 14.8227 10.1482 14.8052 10.0596 14.8053C9.97096 14.8053 9.88319 14.8228 9.80132 14.8568C9.71944 14.8908 9.64506 14.9405 9.58241 15.0033C9.51977 15.066 9.47009 15.1404 9.43621 15.2223C9.40234 15.3042 9.38493 15.392 9.38498 15.4807C9.38498 15.9157 9.55748 16.3214 9.87023 16.6237C10.171 16.9139 10.5625 17.0714 10.9795 17.0714L11.038 17.0707C11.0822 17.0692 11.1205 17.0624 11.164 17.0602V17.4884C11.164 17.6674 11.2351 17.8391 11.3617 17.9657C11.4883 18.0923 11.66 18.1634 11.839 18.1634C12.018 18.1634 12.1897 18.0923 12.3163 17.9657C12.4429 17.8391 12.514 17.6674 12.514 17.4884V16.8727C13.849 16.5322 14.6057 15.7754 14.6335 14.6962C14.662 13.5824 13.7717 12.8114 11.986 12.4042C10.8932 12.1559 10.3757 11.8439 10.402 11.4509C10.4567 10.6507 11.6785 10.4399 12.6955 10.4047C12.7577 10.4047 12.8176 10.4279 12.8635 10.4699C12.8873 10.4925 12.9063 10.5197 12.9192 10.5499C12.9321 10.5801 12.9386 10.6126 12.9385 10.6454C12.9385 10.8244 13.0096 10.9961 13.1362 11.1227C13.2628 11.2493 13.4345 11.3204 13.6135 11.3204C13.7925 11.3204 13.9642 11.2493 14.0908 11.1227C14.2174 10.9961 14.2885 10.8244 14.2885 10.6454C14.2885 10.2157 14.1107 9.79716 13.801 9.49866C13.6496 9.34948 13.4692 9.23311 13.2708 9.15685C13.0725 9.08058 12.8605 9.04605 12.6482 9.05541C12.6017 9.05691 12.5605 9.06141 12.5147 9.06366V8.63691C12.5147 8.54822 12.4972 8.46041 12.4632 8.37849C12.4292 8.29657 12.3794 8.22214 12.3166 8.15946C12.2539 8.09678 12.1794 8.04708 12.0975 8.01318C12.0155 7.97928 11.9277 7.96186 11.839 7.96191C11.7503 7.96196 11.6625 7.97948 11.5805 8.01347C11.4986 8.04745 11.4242 8.09724 11.3615 8.15999C11.2988 8.22274 11.2491 8.29722 11.2152 8.37918C11.1813 8.46114 11.1639 8.54897 11.164 8.63766Z" fill="#181C25"/>
<path d="M20.0849 10.2825C19.9992 10.305 19.9187 10.3443 19.8481 10.398C19.7776 10.4517 19.7183 10.5187 19.6736 10.5954C19.629 10.672 19.5999 10.7566 19.5879 10.8445C19.576 10.9324 19.5815 11.0217 19.6042 11.1075C19.7692 11.7307 19.8517 12.3892 19.8517 13.065C19.8517 17.4817 16.2584 21.075 11.8417 21.075C7.42492 21.075 3.83242 17.4817 3.83242 13.065C3.83242 8.69171 7.25017 5.17346 11.6129 5.05421C11.7918 5.04931 11.9615 4.97355 12.0845 4.84359C12.2076 4.71363 12.274 4.54012 12.2692 4.36121C12.2629 4.18276 12.1867 4.01393 12.0571 3.89116C11.9274 3.76838 11.7547 3.7015 11.5762 3.70496C6.47692 3.84371 2.48242 7.95446 2.48242 13.065C2.48242 18.2265 6.68167 22.425 11.8424 22.425C17.0032 22.425 21.2024 18.2257 21.2024 13.065C21.2042 12.2883 21.1057 11.5146 20.9092 10.7632C20.887 10.6773 20.8481 10.5966 20.7945 10.5258C20.741 10.455 20.674 10.3956 20.5973 10.3509C20.5207 10.3062 20.4359 10.2771 20.348 10.2654C20.26 10.2536 20.1706 10.2594 20.0849 10.2825Z" fill="#181C25"/>
<path d="M16.4669 6.76712C16.5216 6.83788 16.59 6.89697 16.6679 6.94094C16.7458 6.9849 16.8318 7.01283 16.9206 7.02311C17.0095 7.03338 17.0996 7.02578 17.1855 7.00075C17.2714 6.97572 17.3514 6.93377 17.4209 6.87737L18.9674 5.63162C19.0365 5.57602 19.0939 5.50736 19.1365 5.42955C19.179 5.35174 19.2058 5.26632 19.2154 5.17815C19.2249 5.08998 19.217 5.00079 19.1921 4.91569C19.1672 4.83058 19.1257 4.75121 19.0701 4.68212C19.0145 4.61303 18.9459 4.55556 18.868 4.51301C18.7902 4.47045 18.7048 4.44364 18.6166 4.4341C18.5285 4.42455 18.4393 4.43247 18.3542 4.4574C18.2691 4.48232 18.1897 4.52377 18.1206 4.57937L17.1074 5.39612L16.9221 5.16062C16.8677 5.09059 16.7999 5.03203 16.7227 4.98832C16.6455 4.94461 16.5604 4.91661 16.4724 4.90594C16.3843 4.89527 16.295 4.90215 16.2096 4.92616C16.1242 4.95018 16.0445 4.99086 15.9749 5.04587C15.905 5.10037 15.8467 5.16811 15.8031 5.24521C15.7595 5.3223 15.7315 5.40724 15.7208 5.49516C15.7101 5.58308 15.7168 5.67225 15.7405 5.75757C15.7643 5.84288 15.8047 5.92267 15.8594 5.99237L16.4669 6.76712Z" fill="#0A5CFF"/>
<path d="M17.467 9.67495C17.9989 9.67622 18.5258 9.57201 19.0172 9.36835C19.5086 9.16469 19.9547 8.86562 20.3298 8.48845L20.3305 8.4877C21.0955 7.7227 21.517 6.70645 21.517 5.62495C21.517 4.54345 21.0948 3.5257 20.3305 2.7622C19.5663 1.99645 18.5485 1.57495 17.467 1.57495C16.3855 1.57495 15.3678 1.9972 14.6043 2.76145C14.2267 3.13642 13.9273 3.58261 13.7235 4.07416C13.5197 4.56571 13.4155 5.09283 13.417 5.62495C13.417 6.70645 13.8393 7.7242 14.6035 8.4877C14.9785 8.86527 15.4247 9.16463 15.9162 9.36844C16.4078 9.57224 16.9349 9.67642 17.467 9.67495ZM15.5583 3.71545C16.0683 3.20545 16.7455 2.92495 17.467 2.92495C18.1885 2.92495 18.8658 3.20545 19.3765 3.7162C19.8865 4.2262 20.167 4.90345 20.167 5.62495C20.167 6.34645 19.8865 7.0237 19.3765 7.5337L19.3758 7.53445C18.3565 8.5537 16.579 8.55445 15.5575 7.5337C15.0475 7.0237 14.767 6.34645 14.767 5.62495C14.767 4.90345 15.0475 4.2262 15.5583 3.71545Z" fill="#0A5CFF"/>
</svg>
