<svg width="32" height="32" viewBox="0 0 32 32" fill="none" xmlns="http://www.w3.org/2000/svg">
    <path d="M24.749 9.4841H21.593V6.6921C21.593 3.6091 19.084 1.1001 16 1.1001C12.916 1.1001 10.407 3.6091 10.407 6.6921V9.4841H7.25099C6.59907 9.48489 5.97407 9.74422 5.51309 10.2052C5.05211 10.6662 4.79279 11.2912 4.79199 11.9431V27.0761C4.79358 28.0898 5.19697 29.0615 5.91377 29.7783C6.63056 30.4951 7.60229 30.8985 8.61599 30.9001H23.384C24.3979 30.899 25.3699 30.4958 26.0868 29.7789C26.8037 29.062 27.2069 28.09 27.208 27.0761V11.9431C27.2072 11.2912 26.9479 10.6662 26.4869 10.2052C26.0259 9.74422 25.4009 9.48489 24.749 9.4841ZM12.208 6.6921C12.208 4.6011 13.909 2.9001 16 2.9001C18.091 2.9001 19.792 4.6011 19.792 6.6921V9.4841H12.208V6.6921ZM25.407 27.0761C25.4067 27.6126 25.1935 28.1271 24.8142 28.5066C24.4349 28.8861 23.9205 29.0996 23.384 29.1001H8.61599C8.07945 29.0996 7.56505 28.8861 7.18575 28.5066C6.80645 28.1271 6.59326 27.6126 6.59299 27.0761V11.9431C6.59326 11.7686 6.66263 11.6013 6.78595 11.4778C6.90926 11.3543 7.07647 11.2846 7.25099 11.2841H10.407V13.3141C10.407 13.5528 10.5018 13.7817 10.6706 13.9505C10.8394 14.1193 11.0683 14.2141 11.307 14.2141C11.5457 14.2141 11.7746 14.1193 11.9434 13.9505C12.1122 13.7817 12.207 13.5528 12.207 13.3141V11.2841H19.791V13.3141C19.791 13.5528 19.8858 13.7817 20.0546 13.9505C20.2234 14.1193 20.4523 14.2141 20.691 14.2141C20.9297 14.2141 21.1586 14.1193 21.3274 13.9505C21.4962 13.7817 21.591 13.5528 21.591 13.3141V11.2841H24.747C24.9215 11.2846 25.0887 11.3543 25.212 11.4778C25.3354 11.6013 25.4047 11.7686 25.405 11.9431V27.0761H25.407Z"
          fill="#181C25"/>
    <path d="M12 19.9167V22.3208C12 23.2042 12 23.2042 12.8333 23.7667L15.125 25.0917C15.4708 25.2917 16.0333 25.2917 16.375 25.0917L18.6667 23.7667C19.5 23.2042 19.5 23.2042 19.5 22.325V19.9167C19.5 19.0375 19.5 19.0375 18.6667 18.475L16.375 17.15C16.0333 16.95 15.4708 16.95 15.125 17.15L12.8333 18.475C12 19.0375 12 19.0375 12 19.9167Z"
          stroke="#0A5CFF" stroke-width="1.5" stroke-linecap="round" stroke-linejoin="round"/>
</svg>