<svg width="24" height="24" viewBox="0 0 24 24" fill="none" xmlns="http://www.w3.org/2000/svg">
<path d="M10.3924 17.6985C10.5714 17.6985 10.7431 17.6273 10.8697 17.5008C10.9963 17.3742 11.0674 17.2025 11.0674 17.0235V16.5525C12.6822 16.1212 12.9132 15.0772 12.9267 14.577C12.9529 13.5562 12.1504 12.8512 10.5394 12.4837C9.92218 12.3427 9.19018 12.099 9.21493 11.7337C9.26143 11.0602 10.4449 10.9185 11.1454 10.8937C11.1779 10.8941 11.2091 10.9064 11.2332 10.9282C11.2459 10.9403 11.256 10.9548 11.2628 10.9709C11.2697 10.9871 11.2731 11.0044 11.2729 11.022C11.2729 11.201 11.344 11.3727 11.4706 11.4993C11.5972 11.6258 11.7689 11.697 11.9479 11.697C12.127 11.697 12.2986 11.6258 12.4252 11.4993C12.5518 11.3727 12.6229 11.201 12.6229 11.022C12.6229 10.6222 12.4579 10.2345 12.1699 9.95696C12.0292 9.81804 11.8613 9.70969 11.6768 9.63871C11.4922 9.56773 11.295 9.53564 11.0974 9.54446C11.0862 9.54446 11.0772 9.54596 11.0659 9.54671V9.26021C11.0659 9.08118 10.9948 8.9095 10.8682 8.78291C10.7416 8.65632 10.5699 8.58521 10.3909 8.58521C10.2119 8.58521 10.0402 8.65632 9.91363 8.78291C9.78704 8.9095 9.71593 9.08118 9.71593 9.26021V9.73496C8.22868 10.1325 7.90843 11.0505 7.86793 11.6415C7.79443 12.699 8.59318 13.425 10.2387 13.7992C11.0832 13.9927 11.5827 14.2695 11.5759 14.541C11.5572 15.267 10.0917 15.3742 9.64318 15.39C9.60715 15.3878 9.57263 15.3747 9.54418 15.3525C9.53195 15.3406 9.52225 15.3264 9.51567 15.3106C9.5091 15.2949 9.50578 15.278 9.50593 15.261C9.50583 15.0819 9.43462 14.9103 9.30796 14.7838C9.1813 14.6573 9.00957 14.5862 8.83055 14.5863C8.65153 14.5864 8.47988 14.6576 8.35337 14.7843C8.22685 14.911 8.15583 15.0827 8.15593 15.2617C8.15593 15.666 8.31643 16.0432 8.60743 16.3237C8.88268 16.5892 9.25693 16.74 9.64018 16.74L9.69118 16.7392L9.71593 16.7377V17.022C9.71633 17.2013 9.78773 17.3731 9.91451 17.4999C10.0413 17.6267 10.2131 17.6981 10.3924 17.6985Z" fill="#181C25"/>
<path d="M13.5827 21.273H4.1327C3.61385 21.2726 3.11638 21.0663 2.7495 20.6994C2.38263 20.3325 2.17634 19.8351 2.17595 19.3162V8.01072H5.13995C5.75281 8.01013 6.3404 7.7664 6.77376 7.33304C7.20713 6.89968 7.45085 6.31209 7.45144 5.69922V2.72622H16.6577C17.1776 2.72781 17.6756 2.93561 18.0425 3.30401C18.4093 3.67241 18.615 4.17132 18.6144 4.69122V11.8237C18.6144 12.0027 18.6856 12.1744 18.8121 12.301C18.9387 12.4276 19.1104 12.4987 19.2894 12.4987C19.4685 12.4987 19.6402 12.4276 19.7667 12.301C19.8933 12.1744 19.9644 12.0027 19.9644 11.8237V4.69122C19.9644 3.81333 19.6162 2.97128 18.9962 2.34981C18.3761 1.72834 17.5348 1.37821 16.6569 1.37622H6.0977C5.67432 1.37581 5.25507 1.45938 4.86422 1.62211C4.47337 1.78483 4.11868 2.02348 3.8207 2.32422L1.7657 4.37922C1.16461 4.98478 0.82665 5.80299 0.825195 6.65622V19.3162C0.826188 20.1931 1.17497 21.0338 1.79504 21.6539C2.4151 22.2739 3.2558 22.6227 4.1327 22.6237H13.5827C13.7618 22.6237 13.9336 22.5526 14.0603 22.4259C14.1869 22.2993 14.2581 22.1275 14.2581 21.9483C14.2581 21.7692 14.1869 21.5974 14.0603 21.4708C13.9336 21.3441 13.7618 21.273 13.5827 21.273ZM2.72045 5.33322L4.77545 3.27822C4.9484 3.10336 5.15432 2.96454 5.38128 2.86979C5.60825 2.77504 5.85175 2.72624 6.0977 2.72622H6.10069V5.69997C6.10069 6.23022 5.6702 6.66147 5.13995 6.66147H2.1752V6.65622C2.1752 6.16197 2.37395 5.67972 2.72045 5.33322Z" fill="#181C25"/>
<path d="M18.739 13.7512C16.2925 13.7512 14.3027 15.741 14.3027 18.1875C14.3027 20.634 16.2925 22.6237 18.739 22.6237C21.1855 22.6237 23.1752 20.634 23.1752 18.1875C23.1752 15.741 21.1855 13.7512 18.739 13.7512ZM18.739 21.273C17.0372 21.273 15.6535 19.8885 15.6535 18.1875C15.6535 16.4865 17.038 15.102 18.739 15.102C20.44 15.102 21.8252 16.4857 21.8252 18.1875C21.8252 19.8892 20.4407 21.273 18.739 21.273Z" fill="#0A5CFF"/>
<path d="M17.9872 18.3577L18.0645 18.2805V19.7257C18.0645 19.9048 18.1356 20.0765 18.2622 20.203C18.3888 20.3296 18.5604 20.4007 18.7395 20.4007C18.9185 20.4007 19.0902 20.3296 19.2168 20.203C19.3434 20.0765 19.4145 19.9048 19.4145 19.7257V18.2805L19.4917 18.3577C19.5541 18.4207 19.6284 18.4708 19.7102 18.5049C19.7921 18.5391 19.8799 18.5567 19.9686 18.5568C20.0572 18.5568 20.1451 18.5394 20.227 18.5053C20.3089 18.4713 20.3832 18.4214 20.4457 18.3585C20.5085 18.296 20.5584 18.2217 20.5924 18.1398C20.6265 18.058 20.6441 17.9703 20.6441 17.8816C20.6442 17.793 20.6268 17.7053 20.5929 17.6234C20.5589 17.5415 20.5092 17.4671 20.4465 17.4045L19.2165 16.1737C19.1538 16.1109 19.0793 16.0611 18.9973 16.0271C18.9153 15.9931 18.8275 15.9756 18.7387 15.9756C18.65 15.9756 18.5621 15.9931 18.4801 16.0271C18.3981 16.0611 18.3237 16.1109 18.261 16.1737L17.031 17.4045C16.9046 17.5313 16.8337 17.7031 16.834 17.8822C16.8343 18.0612 16.9057 18.2328 17.0325 18.3592C17.1593 18.4857 17.3311 18.5565 17.5102 18.5562C17.6892 18.5559 17.8608 18.4845 17.9872 18.3577Z" fill="#0A5CFF"/>
</svg>
