<svg width="24" height="24" viewBox="0 0 24 24" fill="none" xmlns="http://www.w3.org/2000/svg">
<g clip-path="url(#clip0_2004_16414)">
<path d="M14.5157 12.7956H14.2577V12.5983C14.2577 11.3533 13.2445 10.3401 11.9995 10.3401C10.7545 10.3401 9.74198 11.3533 9.74198 12.5983V12.7956H9.48323C8.70023 12.7956 8.06348 13.4331 8.06348 14.2161V18.1686C8.06407 18.6635 8.26094 19.138 8.61089 19.4879C8.96085 19.8379 9.43532 20.0347 9.93023 20.0353H14.068C14.5629 20.0347 15.0374 19.8379 15.3873 19.4879C15.7373 19.138 15.9341 18.6635 15.9347 18.1686V14.2161C15.9348 14.0296 15.8982 13.845 15.8269 13.6727C15.7557 13.5004 15.6512 13.3439 15.5194 13.212C15.3877 13.08 15.2312 12.9754 15.059 12.9039C14.8868 12.8325 14.7022 12.7957 14.5157 12.7956ZM11.0927 12.5983C11.0927 12.0981 11.5 11.6908 12.0002 11.6908C12.5005 11.6908 12.9077 12.0981 12.9077 12.5983V12.7956H11.0927V12.5983ZM14.5855 18.1678C14.5855 18.4528 14.3537 18.6838 14.0695 18.6838H9.93173C9.79487 18.6836 9.66366 18.6292 9.56681 18.5325C9.46997 18.4358 9.41537 18.3047 9.41498 18.1678V14.2153C9.41498 14.1763 9.44648 14.1456 9.48473 14.1456H14.5165C14.5555 14.1456 14.5862 14.1763 14.5862 14.2153L14.5855 18.1678Z" fill="#0A5CFF"/>
<path d="M19.5002 0.824951H4.5002C3.52583 0.825944 2.59166 1.21345 1.90267 1.90243C1.21369 2.59141 0.826188 3.52559 0.825195 4.49995V19.4999C0.825195 21.5264 2.4737 23.1749 4.5002 23.1749H19.5002C21.5267 23.1749 23.1752 21.5264 23.1752 19.4999V4.49995C23.1752 2.47345 21.5267 0.824951 19.5002 0.824951ZM4.5002 2.17495H19.5002C20.7819 2.17495 21.8252 3.2182 21.8252 4.49995V7.19995H2.1752V4.49995C2.1752 3.2182 3.21845 2.17495 4.5002 2.17495ZM19.5002 21.8249H4.5002C3.88381 21.8242 3.2929 21.5789 2.85705 21.1431C2.4212 20.7072 2.17599 20.1163 2.1752 19.4999V8.54995H21.8252V19.4999C21.8252 20.7817 20.7819 21.8249 19.5002 21.8249Z" fill="#181C25"/>
<path d="M4.08684 5.3453C4.26138 5.3453 4.42878 5.27596 4.5522 5.15254C4.67562 5.02912 4.74496 4.86172 4.74496 4.68718C4.74496 4.51263 4.67562 4.34524 4.5522 4.22181C4.42878 4.09839 4.26138 4.02905 4.08684 4.02905C3.91229 4.02905 3.74489 4.09839 3.62147 4.22181C3.49805 4.34524 3.42871 4.51263 3.42871 4.68718C3.42871 4.86172 3.49805 5.02912 3.62147 5.15254C3.74489 5.27596 3.91229 5.3453 4.08684 5.3453ZM6.31584 5.3453C6.49038 5.3453 6.65778 5.27596 6.7812 5.15254C6.90462 5.02912 6.97396 4.86172 6.97396 4.68718C6.97396 4.51263 6.90462 4.34524 6.7812 4.22181C6.65778 4.09839 6.49038 4.02905 6.31584 4.02905C6.14129 4.02905 5.97389 4.09839 5.85047 4.22181C5.72705 4.34524 5.65771 4.51263 5.65771 4.68718C5.65771 4.86172 5.72705 5.02912 5.85047 5.15254C5.97389 5.27596 6.14129 5.3453 6.31584 5.3453ZM8.54559 5.3453C8.72013 5.3453 8.88753 5.27596 9.01095 5.15254C9.13437 5.02912 9.20371 4.86172 9.20371 4.68718C9.20371 4.51263 9.13437 4.34524 9.01095 4.22181C8.88753 4.09839 8.72013 4.02905 8.54559 4.02905C8.37104 4.02905 8.20364 4.09839 8.08022 4.22181C7.9568 4.34524 7.88746 4.51263 7.88746 4.68718C7.88746 4.86172 7.9568 5.02912 8.08022 5.15254C8.20364 5.27596 8.37104 5.3453 8.54559 5.3453Z" fill="#181C25"/>
</g>
<defs>
<clipPath id="clip0_2004_16414">
<rect width="24" height="24" fill="white"/>
</clipPath>
</defs>
</svg>
